<svg width="1536" height="734" viewBox="0 0 1536 734" fill="none" xmlns="http://www.w3.org/2000/svg">
<g opacity="0.4">
<path d="M673.964 708.355C631.552 690.481 588.681 653.021 588.755 595.343C588.83 537.665 592.926 381.15 658.859 314.765C724.791 248.38 663.448 101.75 780.654 192.845C897.86 283.94 866.919 114.634 945.513 192.211C1024.11 269.788 1017.51 342.586 931.994 413.685C846.476 484.784 857.971 593.597 820.275 648.011C782.578 702.425 726.98 730.696 673.964 708.355Z" fill="#F2B4AE" fill-opacity="0.3"/>
<path d="M682.43 781.369C640.017 763.495 597.147 726.035 597.221 668.357C597.296 610.679 601.392 454.164 667.325 387.779C733.257 321.394 671.914 174.764 789.12 265.859C906.325 356.955 875.385 187.648 953.979 265.225C1032.57 342.802 1025.98 415.6 940.46 486.699C854.941 557.799 866.437 666.611 828.74 721.025C791.044 775.439 735.446 803.711 682.43 781.369Z" stroke="#F29188" stroke-opacity="0.8"/>
<path d="M689.851 749.489C654.034 734.393 617.825 702.768 617.871 654.091C617.918 605.414 621.334 473.327 676.988 417.321C732.642 361.314 680.805 237.551 779.796 314.462C878.787 391.373 852.615 248.481 918.999 313.972C985.384 379.464 979.836 440.899 907.645 500.878C835.455 560.858 845.191 652.691 813.376 698.603C781.561 744.514 734.623 768.358 689.851 749.489Z" stroke="#F29188" stroke-opacity="0.8"/>
<path d="M699.309 711.947C673.189 700.941 646.79 677.865 646.845 642.323C646.901 606.78 649.451 510.333 690.073 469.414C730.695 428.495 692.937 338.15 765.112 394.264C837.288 450.378 818.26 346.054 866.655 393.844C915.05 441.635 910.976 486.496 858.29 530.323C805.604 574.15 812.665 641.2 789.437 674.737C766.209 708.275 731.96 725.706 699.309 711.947Z" stroke="#F29188" stroke-opacity="0.8"/>
<path d="M718.784 655.911C701.069 648.446 683.162 632.8 683.193 608.71C683.223 584.62 684.932 519.25 712.47 491.524C740.008 463.798 714.385 402.556 763.34 440.604C812.296 478.652 799.371 407.939 832.198 440.341C865.026 472.742 862.272 503.147 826.554 532.842C790.836 562.536 795.638 607.983 779.894 630.709C764.149 653.436 740.927 665.243 718.784 655.911Z" stroke="#F29188" stroke-opacity="0.8"/>
</g>
<g opacity="0.4">
<path d="M1201.24 94.5958C1215.87 65.1628 1244.48 36.2771 1285.59 38.9029C1326.7 41.5288 1438.08 51.4305 1482.45 101.386C1526.83 151.342 1634.08 114.16 1563.92 193.637C1493.76 273.114 1615.82 258.613 1557.02 311.171C1498.22 363.729 1446.62 355.782 1399.76 291.656C1352.9 227.529 1274.83 230.869 1237.72 201.573C1200.62 172.277 1182.95 131.387 1201.24 94.5958Z" fill="#F2B4AE" fill-opacity="0.3"/>
<path d="M1224.53 139.413C1239.16 109.98 1267.78 81.094 1308.89 83.7199C1349.99 86.3458 1461.37 96.2475 1505.75 146.203C1550.12 196.159 1657.37 158.977 1587.21 238.454C1517.05 317.93 1639.11 303.43 1580.31 355.988C1521.51 408.546 1469.92 400.599 1423.05 336.473C1376.19 272.346 1298.12 275.686 1261.02 246.39C1223.91 217.094 1206.24 176.204 1224.53 139.413Z" stroke="#F29188" stroke-opacity="0.8"/>
<path d="M1246.93 146.125C1259.28 121.269 1283.44 96.8704 1318.13 99.0752C1352.83 101.28 1446.82 109.607 1484.26 151.774C1521.69 193.94 1612.22 162.513 1552.99 229.64C1493.75 296.767 1596.77 284.487 1547.13 328.882C1497.48 373.277 1453.94 366.582 1414.41 312.451C1374.88 258.321 1308.99 261.164 1277.68 236.439C1246.38 211.714 1231.48 177.195 1246.93 146.125Z" stroke="#F29188" stroke-opacity="0.8"/>
<path d="M1273.26 154.54C1282.27 136.414 1299.9 118.627 1325.23 120.252C1350.56 121.877 1419.19 127.997 1446.54 158.776C1473.9 189.555 1539.98 166.673 1496.76 215.614C1453.55 264.555 1528.75 255.646 1492.53 288.009C1456.31 320.372 1424.51 315.467 1395.63 275.959C1366.74 236.451 1318.63 238.493 1295.76 220.441C1272.9 202.389 1262 177.199 1273.26 154.54Z" stroke="#F29188" stroke-opacity="0.8"/>
<path d="M1312.33 170.921C1318.45 158.627 1330.4 146.562 1347.57 147.659C1364.73 148.755 1411.25 152.889 1429.79 173.754C1448.32 194.619 1493.11 179.088 1463.81 212.284C1434.51 245.481 1485.49 239.423 1460.93 261.376C1436.37 283.329 1414.82 280.01 1395.25 253.226C1375.67 226.443 1343.07 227.838 1327.57 215.603C1312.07 203.367 1304.69 186.288 1312.33 170.921Z" stroke="#F29188" stroke-opacity="0.8"/>
</g>
<g opacity="0.4">
<path d="M108.59 278.562C138.266 297.342 165.827 330.92 158.526 374.321C151.225 417.723 128.482 535.006 70.5201 576.688C12.5584 618.369 40.3087 736.433 -36.4615 653.15C-113.232 569.866 -111.212 701.178 -160.619 632.919C-210.027 564.66 -195.919 510.698 -122.625 467.928C-49.33 425.159 -44.3139 341.819 -9.10732 305.601C26.0992 269.382 71.4955 255.088 108.59 278.562Z" fill="#F2B4AE" fill-opacity="0.3"/>
<path d="M103.003 225.306C132.679 244.086 160.239 277.664 152.938 321.065C145.637 364.466 122.894 481.75 64.9324 523.432C6.97075 565.113 34.721 683.177 -42.0491 599.893C-118.819 516.61 -116.799 647.922 -166.207 579.663C-215.614 511.404 -201.507 457.442 -128.212 414.672C-54.9177 371.903 -49.9015 288.563 -14.695 252.344C20.5116 216.126 65.9078 201.831 103.003 225.306Z" stroke="#F29188" stroke-opacity="0.8"/>
<path d="M68.5099 274.7C91.0365 288.959 111.972 314.431 106.473 347.316C100.975 380.201 83.8302 469.064 39.9034 500.6C-4.0235 532.136 17.1325 621.635 -41.1741 558.449C-99.4807 495.263 -97.8296 594.78 -135.368 543.005C-172.906 491.23 -162.254 450.348 -106.698 418.001C-51.1418 385.655 -47.4126 322.501 -20.7408 295.084C5.93095 267.668 40.3516 256.876 68.5099 274.7Z" stroke="#F29188" stroke-opacity="0.8"/>
<path d="M32.6615 332.456C47.7695 342.019 61.8119 359.101 58.129 381.15C54.446 403.198 42.9606 462.778 13.5078 483.917C-15.945 505.056 -1.74628 565.068 -40.8544 522.694C-79.9626 480.32 -78.8423 547.046 -104.022 512.326C-129.201 477.606 -122.064 450.196 -84.8125 428.516C-47.5613 406.835 -45.0688 364.491 -27.1866 346.112C-9.30431 327.733 13.7764 320.501 32.6615 332.456Z" stroke="#F29188" stroke-opacity="0.8"/>
</g>
</svg>
