<svg width="106" height="115" viewBox="0 0 106 115" fill="none" xmlns="http://www.w3.org/2000/svg">
<circle cx="104" cy="112.666" r="1.66667" transform="rotate(180 104 112.666)" fill="#F2DCC9"/>
<circle cx="104" cy="100.333" r="1.66667" transform="rotate(180 104 100.333)" fill="#F2DCC9"/>
<circle cx="104" cy="87.9996" r="1.66667" transform="rotate(180 104 87.9996)" fill="#F2DCC9"/>
<circle cx="104" cy="75.6663" r="1.66667" transform="rotate(180 104 75.6663)" fill="#F2DCC9"/>
<circle cx="104" cy="63.3331" r="1.66667" transform="rotate(180 104 63.3331)" fill="#F2DCC9"/>
<circle cx="104" cy="38.6666" r="1.66667" transform="rotate(180 104 38.6666)" fill="#F2DCC9"/>
<circle cx="104" cy="14.0001" r="1.66667" transform="rotate(180 104 14.0001)" fill="#F2DCC9"/>
<circle cx="104" cy="50.9998" r="1.66667" transform="rotate(180 104 50.9998)" fill="#F2DCC9"/>
<circle cx="104" cy="26.3333" r="1.66667" transform="rotate(180 104 26.3333)" fill="#F2DCC9"/>
<circle cx="104" cy="1.66683" r="1.66667" transform="rotate(180 104 1.66683)" fill="#F2DCC9"/>
<circle cx="89.3333" cy="112.666" r="1.66667" transform="rotate(180 89.3333 112.666)" fill="#F2DCC9"/>
<circle cx="89.3333" cy="100.333" r="1.66667" transform="rotate(180 89.3333 100.333)" fill="#F2DCC9"/>
<circle cx="89.3333" cy="87.9996" r="1.66667" transform="rotate(180 89.3333 87.9996)" fill="#F2DCC9"/>
<circle cx="89.3333" cy="75.6663" r="1.66667" transform="rotate(180 89.3333 75.6663)" fill="#F2DCC9"/>
<circle cx="89.3333" cy="63.3331" r="1.66667" transform="rotate(180 89.3333 63.3331)" fill="#F2DCC9"/>
<circle cx="89.3333" cy="38.6666" r="1.66667" transform="rotate(180 89.3333 38.6666)" fill="#F2DCC9"/>
<circle cx="89.3333" cy="14.0001" r="1.66667" transform="rotate(180 89.3333 14.0001)" fill="#F2DCC9"/>
<circle cx="89.3333" cy="50.9998" r="1.66667" transform="rotate(180 89.3333 50.9998)" fill="#F2DCC9"/>
<circle cx="89.3333" cy="26.3333" r="1.66667" transform="rotate(180 89.3333 26.3333)" fill="#F2DCC9"/>
<circle cx="89.3333" cy="1.66683" r="1.66667" transform="rotate(180 89.3333 1.66683)" fill="#F2DCC9"/>
<circle cx="74.6673" cy="112.666" r="1.66667" transform="rotate(180 74.6673 112.666)" fill="#F2DCC9"/>
<circle cx="31.0003" cy="112.666" r="1.66667" transform="rotate(180 31.0003 112.666)" fill="#F2DCC9"/>
<circle cx="74.6673" cy="100.333" r="1.66667" transform="rotate(180 74.6673 100.333)" fill="#F2DCC9"/>
<circle cx="31.0003" cy="100.333" r="1.66667" transform="rotate(180 31.0003 100.333)" fill="#F2DCC9"/>
<circle cx="74.6673" cy="87.9996" r="1.66667" transform="rotate(180 74.6673 87.9996)" fill="#F2DCC9"/>
<circle cx="31.0003" cy="87.9996" r="1.66667" transform="rotate(180 31.0003 87.9996)" fill="#F2DCC9"/>
<circle cx="74.6673" cy="75.6663" r="1.66667" transform="rotate(180 74.6673 75.6663)" fill="#F2DCC9"/>
<circle cx="31.0003" cy="75.6663" r="1.66667" transform="rotate(180 31.0003 75.6663)" fill="#F2DCC9"/>
<circle cx="74.6663" cy="63.3331" r="1.66667" transform="rotate(180 74.6663 63.3331)" fill="#F2DCC9"/>
<circle cx="31.0003" cy="63.3331" r="1.66667" transform="rotate(180 31.0003 63.3331)" fill="#F2DCC9"/>
<circle cx="74.6663" cy="38.6666" r="1.66667" transform="rotate(180 74.6663 38.6666)" fill="#F2DCC9"/>
<circle cx="31.0003" cy="38.6666" r="1.66667" transform="rotate(180 31.0003 38.6666)" fill="#F2DCC9"/>
<circle cx="74.6663" cy="14.0001" r="1.66667" transform="rotate(180 74.6663 14.0001)" fill="#F2DCC9"/>
<circle cx="31.0003" cy="14.0001" r="1.66667" transform="rotate(180 31.0003 14.0001)" fill="#F2DCC9"/>
<circle cx="74.6663" cy="50.9998" r="1.66667" transform="rotate(180 74.6663 50.9998)" fill="#F2DCC9"/>
<circle cx="31.0003" cy="50.9998" r="1.66667" transform="rotate(180 31.0003 50.9998)" fill="#F2DCC9"/>
<circle cx="74.6663" cy="26.3333" r="1.66667" transform="rotate(180 74.6663 26.3333)" fill="#F2DCC9"/>
<circle cx="31.0003" cy="26.3333" r="1.66667" transform="rotate(180 31.0003 26.3333)" fill="#F2DCC9"/>
<circle cx="74.6663" cy="1.66683" r="1.66667" transform="rotate(180 74.6663 1.66683)" fill="#F2DCC9"/>
<circle cx="31.0003" cy="1.66683" r="1.66667" transform="rotate(180 31.0003 1.66683)" fill="#F2DCC9"/>
<circle cx="60.0003" cy="112.666" r="1.66667" transform="rotate(180 60.0003 112.666)" fill="#F2DCC9"/>
<circle cx="16.3333" cy="112.666" r="1.66667" transform="rotate(180 16.3333 112.666)" fill="#F2DCC9"/>
<circle cx="60.0003" cy="100.333" r="1.66667" transform="rotate(180 60.0003 100.333)" fill="#F2DCC9"/>
<circle cx="16.3333" cy="100.333" r="1.66667" transform="rotate(180 16.3333 100.333)" fill="#F2DCC9"/>
<circle cx="60.0003" cy="87.9996" r="1.66667" transform="rotate(180 60.0003 87.9996)" fill="#F2DCC9"/>
<circle cx="16.3333" cy="87.9996" r="1.66667" transform="rotate(180 16.3333 87.9996)" fill="#F2DCC9"/>
<circle cx="60.0003" cy="75.6663" r="1.66667" transform="rotate(180 60.0003 75.6663)" fill="#F2DCC9"/>
<circle cx="16.3333" cy="75.6663" r="1.66667" transform="rotate(180 16.3333 75.6663)" fill="#F2DCC9"/>
<circle cx="60.0003" cy="63.3331" r="1.66667" transform="rotate(180 60.0003 63.3331)" fill="#F2DCC9"/>
<circle cx="16.3333" cy="63.3331" r="1.66667" transform="rotate(180 16.3333 63.3331)" fill="#F2DCC9"/>
<circle cx="60.0003" cy="38.6666" r="1.66667" transform="rotate(180 60.0003 38.6666)" fill="#F2DCC9"/>
<circle cx="16.3333" cy="38.6666" r="1.66667" transform="rotate(180 16.3333 38.6666)" fill="#F2DCC9"/>
<circle cx="60.0003" cy="14.0001" r="1.66667" transform="rotate(180 60.0003 14.0001)" fill="#F2DCC9"/>
<circle cx="16.3333" cy="14.0001" r="1.66667" transform="rotate(180 16.3333 14.0001)" fill="#F2DCC9"/>
<circle cx="60.0003" cy="50.9998" r="1.66667" transform="rotate(180 60.0003 50.9998)" fill="#F2DCC9"/>
<circle cx="16.3333" cy="50.9998" r="1.66667" transform="rotate(180 16.3333 50.9998)" fill="#F2DCC9"/>
<circle cx="60.0003" cy="26.3333" r="1.66667" transform="rotate(180 60.0003 26.3333)" fill="#F2DCC9"/>
<circle cx="16.3333" cy="26.3333" r="1.66667" transform="rotate(180 16.3333 26.3333)" fill="#F2DCC9"/>
<circle cx="60.0003" cy="1.66683" r="1.66667" transform="rotate(180 60.0003 1.66683)" fill="#F2DCC9"/>
<circle cx="16.3335" cy="1.66683" r="1.66667" transform="rotate(180 16.3335 1.66683)" fill="#F2DCC9"/>
<circle cx="45.3333" cy="112.666" r="1.66667" transform="rotate(180 45.3333 112.666)" fill="#F2DCC9"/>
<circle cx="1.66732" cy="112.666" r="1.66667" transform="rotate(180 1.66732 112.666)" fill="#F2DCC9"/>
<circle cx="45.3333" cy="100.333" r="1.66667" transform="rotate(180 45.3333 100.333)" fill="#F2DCC9"/>
<circle cx="1.66634" cy="100.333" r="1.66667" transform="rotate(180 1.66634 100.333)" fill="#F2DCC9"/>
<circle cx="45.3333" cy="87.9996" r="1.66667" transform="rotate(180 45.3333 87.9996)" fill="#F2DCC9"/>
<circle cx="1.66634" cy="87.9996" r="1.66667" transform="rotate(180 1.66634 87.9996)" fill="#F2DCC9"/>
<circle cx="45.3333" cy="75.6663" r="1.66667" transform="rotate(180 45.3333 75.6663)" fill="#F2DCC9"/>
<circle cx="1.66634" cy="75.6663" r="1.66667" transform="rotate(180 1.66634 75.6663)" fill="#F2DCC9"/>
<circle cx="45.3333" cy="63.3331" r="1.66667" transform="rotate(180 45.3333 63.3331)" fill="#F2DCC9"/>
<circle cx="1.66732" cy="63.3331" r="1.66667" transform="rotate(180 1.66732 63.3331)" fill="#F2DCC9"/>
<circle cx="45.3333" cy="38.6666" r="1.66667" transform="rotate(180 45.3333 38.6666)" fill="#F2DCC9"/>
<circle cx="1.66732" cy="38.6666" r="1.66667" transform="rotate(180 1.66732 38.6666)" fill="#F2DCC9"/>
<circle cx="45.3333" cy="14.0001" r="1.66667" transform="rotate(180 45.3333 14.0001)" fill="#F2DCC9"/>
<circle cx="1.66732" cy="14.0001" r="1.66667" transform="rotate(180 1.66732 14.0001)" fill="#F2DCC9"/>
<circle cx="45.3333" cy="50.9998" r="1.66667" transform="rotate(180 45.3333 50.9998)" fill="#F2DCC9"/>
<circle cx="1.66732" cy="50.9998" r="1.66667" transform="rotate(180 1.66732 50.9998)" fill="#F2DCC9"/>
<circle cx="45.3333" cy="26.3333" r="1.66667" transform="rotate(180 45.3333 26.3333)" fill="#F2DCC9"/>
<circle cx="1.66732" cy="26.3333" r="1.66667" transform="rotate(180 1.66732 26.3333)" fill="#F2DCC9"/>
<circle cx="45.3333" cy="1.66683" r="1.66667" transform="rotate(180 45.3333 1.66683)" fill="#F2DCC9"/>
<circle cx="1.66729" cy="1.66683" r="1.66667" transform="rotate(180 1.66729 1.66683)" fill="#F2DCC9"/>
</svg>
