<svg width="375" height="273" viewBox="0 0 375 273" fill="none" xmlns="http://www.w3.org/2000/svg">
<path d="M46.2538 111.089C43.7443 110.074 42.2961 112.248 39.2216 113.51C34.7565 115.367 34.3473 118.516 36.1999 119.987C37.9789 121.456 40.6082 119.787 42.7509 120.871C44.9655 121.799 45.8062 124.981 48.0879 125.278C50.2961 125.574 51.9608 123.011 49.8542 118.215C48.4252 115.017 48.7649 112.261 46.2538 111.089Z" fill="#F2DCC9" fill-opacity="0.15"/>
<path d="M41.3236 106.913C42.018 109.489 41.2329 111.871 39.6867 112.296C38.1405 112.72 36.273 110.887 35.6525 108.312C34.9582 105.736 35.6694 103.352 37.2895 102.929C38.9095 102.507 40.6293 104.336 41.3236 106.913Z" fill="#F2DCC9" fill-opacity="0.15"/>
<path d="M53.2319 112.457C51.1142 113.823 50.1824 116.169 51.0799 117.694C51.9773 119.219 54.4035 119.283 56.4469 117.836C58.5646 116.47 59.4963 114.124 58.5989 112.599C57.7015 111.074 55.2753 111.01 53.2319 112.457Z" fill="#F2DCC9" fill-opacity="0.15"/>
<path d="M48.6948 104.729C48.2096 107.428 46.4599 109.318 44.7577 108.963C43.0555 108.608 42.0655 106.025 42.5506 103.326C43.0357 100.627 44.7854 98.7364 46.4876 99.0914C48.1899 99.4464 49.1799 102.03 48.6948 104.729Z" fill="#F2DCC9" fill-opacity="0.15"/>
<path d="M49.8798 105.43C48.504 107.812 48.6058 110.467 50.0908 111.442C51.5759 112.417 53.85 111.307 55.2258 108.924C56.6017 106.542 56.4999 103.887 55.0148 102.912C53.5297 101.937 51.2556 103.047 49.8798 105.43Z" fill="#F2DCC9" fill-opacity="0.15"/>
<path d="M39.5936 51.3205C37.0841 50.306 35.636 52.4797 32.5615 53.7414C28.0964 55.5983 27.6872 58.7475 29.5397 60.2185C31.3187 61.6876 33.9481 60.0192 36.0907 61.1029C38.3053 62.0305 39.1461 65.2128 41.4278 65.5102C43.636 65.8056 45.3007 63.2426 43.194 58.4468C41.765 55.249 42.1047 52.4929 39.5936 51.3205Z" fill="#F2DCC9" fill-opacity="0.15"/>
<path d="M34.6635 47.1442C35.3578 49.7208 34.5727 52.1031 33.0266 52.5272C31.4804 52.9513 29.6128 51.1188 28.9924 48.5441C28.298 45.9675 29.0092 43.5833 30.6293 43.1611C32.2494 42.739 33.9691 44.5676 34.6635 47.1442Z" fill="#F2DCC9" fill-opacity="0.15"/>
<path d="M46.5718 52.6889C44.4541 54.0551 43.5223 56.4009 44.4197 57.9259C45.3172 59.451 47.7433 59.5152 49.7867 58.068C51.9044 56.7018 52.8362 54.356 51.9387 52.831C51.0413 51.306 48.6151 51.2417 46.5718 52.6889Z" fill="#F2DCC9" fill-opacity="0.15"/>
<path d="M42.0346 44.9603C41.5495 47.6593 39.7998 49.55 38.0976 49.195C36.3954 48.84 35.4053 46.2568 35.8905 43.5578C36.3756 40.8588 38.1253 38.9681 39.8275 39.3231C41.5297 39.6781 42.5198 42.2612 42.0346 44.9603Z" fill="#F2DCC9" fill-opacity="0.15"/>
<path d="M43.2196 45.6614C41.8438 48.0437 41.9456 50.6987 43.4307 51.6737C44.9157 52.6488 47.1898 51.5383 48.5657 49.156C49.9415 46.7738 49.8397 44.1188 48.3546 43.1437C46.8696 42.1686 44.5955 43.2792 43.2196 45.6614Z" fill="#F2DCC9" fill-opacity="0.15"/>
<path d="M88.6288 54.6403C86.1193 53.6259 84.6711 55.7996 81.5966 57.0612C77.1315 58.9181 76.7223 62.0673 78.5749 63.5383C80.3539 65.0074 82.9832 63.339 85.1259 64.4227C87.3405 65.3503 88.1812 68.5326 90.4629 68.83C92.6711 69.1254 94.3358 66.5624 92.2292 61.7666C90.8002 58.5688 91.1399 55.8127 88.6288 54.6403Z" fill="#F2DCC9" fill-opacity="0.15"/>
<path d="M83.6986 50.464C84.393 53.0406 83.6079 55.423 82.0617 55.8471C80.5155 56.2712 78.648 54.4386 78.0275 51.864C77.3332 49.2874 78.0444 46.9031 79.6645 46.4809C81.2845 46.0588 83.0043 47.8874 83.6986 50.464Z" fill="#F2DCC9" fill-opacity="0.15"/>
<path d="M95.6069 56.0087C93.4892 57.3749 92.5574 59.7207 93.4549 61.2458C94.3523 62.7708 96.7785 62.835 98.8219 61.3878C100.94 60.0216 101.871 57.6758 100.974 56.1508C100.076 54.6258 97.6503 54.5616 95.6069 56.0087Z" fill="#F2DCC9" fill-opacity="0.15"/>
<path d="M91.0698 48.2801C90.5846 50.9791 88.8349 52.8698 87.1327 52.5148C85.4305 52.1598 84.4405 49.5766 84.9256 46.8776C85.4107 44.1786 87.1604 42.2879 88.8626 42.6429C90.5649 42.9979 91.5549 45.5811 91.0698 48.2801Z" fill="#F2DCC9" fill-opacity="0.15"/>
<path d="M92.2548 48.9812C90.879 51.3635 90.9808 54.0185 92.4658 54.9936C93.9509 55.9686 96.225 54.8581 97.6008 52.4759C98.9767 50.0936 98.8749 47.4386 97.3898 46.4635C95.9047 45.4885 93.6306 46.599 92.2548 48.9812Z" fill="#F2DCC9" fill-opacity="0.15"/>
<path d="M115.265 12.1393C112.756 11.1249 111.308 13.2986 108.233 14.5602C103.768 16.417 103.359 19.5662 105.212 21.0372C106.991 22.5063 109.62 20.8379 111.763 21.9215C113.977 22.8491 114.818 26.0314 117.1 26.3287C119.308 26.6242 120.972 24.0612 118.866 19.2655C117.437 16.0677 117.777 13.3117 115.265 12.1393Z" fill="#F2DCC9" fill-opacity="0.15"/>
<path d="M110.335 7.96299C111.03 10.5396 110.244 12.9219 108.697 13.346C107.15 13.7701 105.282 11.9375 104.662 9.36292C103.967 6.78634 104.679 4.40209 106.3 3.97996C107.921 3.55782 109.641 5.38641 110.335 7.96299Z" fill="#F2DCC9" fill-opacity="0.15"/>
<path d="M122.244 13.5077C120.126 14.8739 119.194 17.2197 120.092 18.7447C120.989 20.2697 123.415 20.3339 125.459 18.8867C127.576 17.5205 128.508 15.1748 127.611 13.6498C126.713 12.1248 124.287 12.0606 122.244 13.5077Z" fill="#F2DCC9" fill-opacity="0.15"/>
<path d="M117.706 5.78079C117.22 8.47964 115.47 10.3698 113.768 10.0143C112.066 9.65884 111.076 7.07547 111.562 4.37662C112.047 1.67777 113.797 -0.212417 115.499 0.143075C117.201 0.498568 118.191 3.08194 117.706 5.78079Z" fill="#F2DCC9" fill-opacity="0.15"/>
<path d="M118.889 6.48021C117.513 8.86243 117.614 11.5174 119.1 12.4925C120.585 13.4675 122.86 12.357 124.237 9.9748C125.614 7.59258 125.512 4.93759 124.027 3.96253C122.541 2.98748 120.266 4.09799 118.889 6.48021Z" fill="#F2DCC9" fill-opacity="0.15"/>
<path d="M-0.0671589 121.092C-2.10637 122.458 -2.96256 124.804 -2.04887 126.329C-1.13518 127.854 1.23944 127.918 3.20405 126.471C5.24327 125.105 6.09946 122.759 5.18576 121.234C4.27207 119.709 1.89746 119.645 -0.0671589 121.092Z" fill="#F2DCC9" fill-opacity="0.15"/>
<path d="M-3.35088 114.064C-4.62615 116.447 -4.46297 119.102 -3.00024 120.077C-1.5375 121.052 0.639147 119.941 1.91442 117.559C3.1897 115.177 3.02652 112.522 1.56378 111.547C0.101046 110.572 -2.0756 111.682 -3.35088 114.064Z" fill="#F2DCC9" fill-opacity="0.15"/>
<path d="M195.254 111.089C192.744 110.074 191.296 112.248 188.222 113.51C183.757 115.367 183.347 118.516 185.2 119.987C186.979 121.456 189.608 119.787 191.751 120.871C193.965 121.799 194.806 124.981 197.088 125.278C199.296 125.574 200.961 123.011 198.854 118.215C197.425 115.017 197.765 112.261 195.254 111.089Z" fill="#F2DCC9" fill-opacity="0.15"/>
<path d="M190.324 106.913C191.018 109.489 190.233 111.871 188.687 112.296C187.141 112.72 185.273 110.887 184.653 108.312C183.958 105.736 184.669 103.352 186.289 102.929C187.91 102.507 189.629 104.336 190.324 106.913Z" fill="#F2DCC9" fill-opacity="0.15"/>
<path d="M202.232 112.457C200.114 113.823 199.182 116.169 200.08 117.694C200.977 119.219 203.403 119.283 205.447 117.836C207.565 116.47 208.496 114.124 207.599 112.599C206.701 111.074 204.275 111.01 202.232 112.457Z" fill="#F2DCC9" fill-opacity="0.15"/>
<path d="M197.695 104.729C197.21 107.428 195.46 109.318 193.758 108.963C192.056 108.608 191.065 106.025 191.551 103.326C192.036 100.627 193.785 98.7364 195.488 99.0914C197.19 99.4464 198.18 102.03 197.695 104.729Z" fill="#F2DCC9" fill-opacity="0.15"/>
<path d="M198.88 105.43C197.504 107.812 197.606 110.467 199.091 111.442C200.576 112.417 202.85 111.307 204.226 108.924C205.602 106.542 205.5 103.887 204.015 102.912C202.53 101.937 200.256 103.047 198.88 105.43Z" fill="#F2DCC9" fill-opacity="0.15"/>
<path d="M188.594 51.3205C186.084 50.306 184.636 52.4797 181.561 53.7414C177.096 55.5983 176.687 58.7475 178.54 60.2185C180.319 61.6876 182.948 60.0192 185.091 61.1029C187.305 62.0305 188.146 65.2128 190.428 65.5102C192.636 65.8056 194.301 63.2426 192.194 58.4468C190.765 55.249 191.105 52.4929 188.594 51.3205Z" fill="#F2DCC9" fill-opacity="0.15"/>
<path d="M183.663 47.1442C184.358 49.7208 183.573 52.1031 182.027 52.5272C180.48 52.9513 178.613 51.1188 177.992 48.5441C177.298 45.9675 178.009 43.5833 179.629 43.1611C181.249 42.739 182.969 44.5676 183.663 47.1442Z" fill="#F2DCC9" fill-opacity="0.15"/>
<path d="M195.572 52.6889C193.454 54.0551 192.522 56.4009 193.42 57.9259C194.317 59.451 196.743 59.5152 198.787 58.068C200.904 56.7018 201.836 54.356 200.939 52.831C200.041 51.306 197.615 51.2417 195.572 52.6889Z" fill="#F2DCC9" fill-opacity="0.15"/>
<path d="M191.035 44.9603C190.549 47.6593 188.8 49.55 187.098 49.195C185.395 48.84 184.405 46.2568 184.89 43.5578C185.376 40.8588 187.125 38.9681 188.827 39.3231C190.53 39.6781 191.52 42.2612 191.035 44.9603Z" fill="#F2DCC9" fill-opacity="0.15"/>
<path d="M192.22 45.6614C190.844 48.0437 190.946 50.6987 192.431 51.6737C193.916 52.6488 196.19 51.5383 197.566 49.156C198.941 46.7738 198.84 44.1188 197.355 43.1437C195.87 42.1686 193.595 43.2792 192.22 45.6614Z" fill="#F2DCC9" fill-opacity="0.15"/>
<path d="M237.629 54.6403C235.119 53.6259 233.671 55.7996 230.597 57.0612C226.132 58.9181 225.722 62.0673 227.575 63.5383C229.354 65.0074 231.983 63.339 234.126 64.4227C236.34 65.3503 237.181 68.5326 239.463 68.83C241.671 69.1254 243.336 66.5624 241.229 61.7666C239.8 58.5688 240.14 55.8127 237.629 54.6403Z" fill="#F2DCC9" fill-opacity="0.15"/>
<path d="M232.699 50.464C233.393 53.0406 232.608 55.423 231.062 55.8471C229.516 56.2712 227.648 54.4386 227.028 51.864C226.333 49.2874 227.044 46.9031 228.664 46.4809C230.285 46.0588 232.004 47.8874 232.699 50.464Z" fill="#F2DCC9" fill-opacity="0.15"/>
<path d="M244.607 56.0087C242.489 57.3749 241.557 59.7207 242.455 61.2458C243.352 62.7708 245.778 62.835 247.822 61.3878C249.94 60.0216 250.871 57.6758 249.974 56.1508C249.076 54.6258 246.65 54.5616 244.607 56.0087Z" fill="#F2DCC9" fill-opacity="0.15"/>
<path d="M240.07 48.2801C239.585 50.9791 237.835 52.8698 236.133 52.5148C234.431 52.1598 233.44 49.5766 233.926 46.8776C234.411 44.1786 236.16 42.2879 237.863 42.6429C239.565 42.9979 240.555 45.5811 240.07 48.2801Z" fill="#F2DCC9" fill-opacity="0.15"/>
<path d="M241.255 48.9812C239.879 51.3635 239.981 54.0185 241.466 54.9936C242.951 55.9686 245.225 54.8581 246.601 52.4759C247.977 50.0936 247.875 47.4386 246.39 46.4635C244.905 45.4885 242.631 46.599 241.255 48.9812Z" fill="#F2DCC9" fill-opacity="0.15"/>
<path d="M264.265 12.1393C261.756 11.1249 260.308 13.2986 257.233 14.5602C252.768 16.417 252.359 19.5662 254.212 21.0372C255.991 22.5063 258.62 20.8379 260.763 21.9215C262.977 22.8491 263.818 26.0314 266.1 26.3287C268.308 26.6242 269.972 24.0612 267.866 19.2655C266.437 16.0677 266.777 13.3117 264.265 12.1393Z" fill="#F2DCC9" fill-opacity="0.15"/>
<path d="M259.335 7.96299C260.03 10.5396 259.244 12.9219 257.697 13.346C256.15 13.7701 254.282 11.9375 253.662 9.36292C252.967 6.78634 253.679 4.40209 255.3 3.97996C256.921 3.55782 258.641 5.38641 259.335 7.96299Z" fill="#F2DCC9" fill-opacity="0.15"/>
<path d="M271.244 13.5077C269.126 14.8739 268.194 17.2197 269.092 18.7447C269.989 20.2697 272.415 20.3339 274.459 18.8867C276.576 17.5205 277.508 15.1748 276.611 13.6498C275.713 12.1248 273.287 12.0606 271.244 13.5077Z" fill="#F2DCC9" fill-opacity="0.15"/>
<path d="M266.706 5.78079C266.22 8.47964 264.47 10.3698 262.768 10.0143C261.066 9.65884 260.076 7.07547 260.562 4.37662C261.047 1.67777 262.797 -0.212417 264.499 0.143075C266.201 0.498568 267.191 3.08194 266.706 5.78079Z" fill="#F2DCC9" fill-opacity="0.15"/>
<path d="M267.889 6.48021C266.513 8.86243 266.614 11.5174 268.1 12.4925C269.585 13.4675 271.86 12.357 273.237 9.9748C274.614 7.59258 274.512 4.93759 273.027 3.96253C271.541 2.98748 269.266 4.09799 267.889 6.48021Z" fill="#F2DCC9" fill-opacity="0.15"/>
<path d="M141.748 119.724C139.27 118.709 137.905 120.883 134.928 122.144C130.605 124.001 130.279 127.151 132.126 128.622C133.9 130.091 136.432 128.422 138.553 129.506C140.74 130.434 141.637 133.616 143.876 133.913C146.042 134.209 147.609 131.646 145.436 126.85C143.964 123.652 144.231 120.896 141.748 119.724Z" fill="#F2DCC9" fill-opacity="0.15"/>
<path d="M136.928 115.547C137.66 118.124 136.963 120.506 135.486 120.93C134.009 121.354 132.167 119.522 131.506 116.947C130.774 114.371 131.399 111.986 132.947 111.564C134.496 111.142 136.196 112.971 136.928 115.547Z" fill="#F2DCC9" fill-opacity="0.15"/>
<path d="M148.933 121.092C146.894 122.458 146.037 124.804 146.951 126.329C147.865 127.854 150.239 127.918 152.204 126.471C154.243 125.105 155.099 122.759 154.186 121.234C153.272 119.709 150.897 119.645 148.933 121.092Z" fill="#F2DCC9" fill-opacity="0.15"/>
<path d="M144.324 113.363C143.925 116.062 142.289 117.953 140.643 117.598C138.998 117.243 137.981 114.66 138.381 111.961C138.78 109.262 140.416 107.371 142.061 107.726C143.707 108.081 144.723 110.664 144.324 113.363Z" fill="#F2DCC9" fill-opacity="0.15"/>
<path d="M145.649 114.064C144.374 116.447 144.537 119.102 146 120.077C147.463 121.052 149.639 119.941 150.914 117.559C152.19 115.177 152.027 112.522 150.564 111.547C149.101 110.572 146.924 111.682 145.649 114.064Z" fill="#F2DCC9" fill-opacity="0.15"/>
<path d="M336.254 111.089C333.744 110.074 332.296 112.248 329.222 113.51C324.757 115.367 324.347 118.516 326.2 119.987C327.979 121.456 330.608 119.787 332.751 120.871C334.965 121.799 335.806 124.981 338.088 125.278C340.296 125.574 341.961 123.011 339.854 118.215C338.425 115.017 338.765 112.261 336.254 111.089Z" fill="#F2DCC9" fill-opacity="0.15"/>
<path d="M331.324 106.913C332.018 109.489 331.233 111.871 329.687 112.296C328.141 112.72 326.273 110.887 325.653 108.312C324.958 105.736 325.669 103.352 327.289 102.929C328.91 102.507 330.629 104.336 331.324 106.913Z" fill="#F2DCC9" fill-opacity="0.15"/>
<path d="M343.232 112.457C341.114 113.823 340.182 116.169 341.08 117.694C341.977 119.219 344.403 119.283 346.447 117.836C348.565 116.47 349.496 114.124 348.599 112.599C347.701 111.074 345.275 111.01 343.232 112.457Z" fill="#F2DCC9" fill-opacity="0.15"/>
<path d="M338.695 104.729C338.21 107.428 336.46 109.318 334.758 108.963C333.056 108.608 332.065 106.025 332.551 103.326C333.036 100.627 334.785 98.7364 336.488 99.0914C338.19 99.4464 339.18 102.03 338.695 104.729Z" fill="#F2DCC9" fill-opacity="0.15"/>
<path d="M339.88 105.43C338.504 107.812 338.606 110.467 340.091 111.442C341.576 112.417 343.85 111.307 345.226 108.924C346.602 106.542 346.5 103.887 345.015 102.912C343.53 101.937 341.256 103.047 339.88 105.43Z" fill="#F2DCC9" fill-opacity="0.15"/>
<path d="M329.594 51.3205C327.084 50.306 325.636 52.4797 322.561 53.7414C318.096 55.5983 317.687 58.7475 319.54 60.2185C321.319 61.6876 323.948 60.0192 326.091 61.1029C328.305 62.0305 329.146 65.2128 331.428 65.5102C333.636 65.8056 335.301 63.2426 333.194 58.4468C331.765 55.249 332.105 52.4929 329.594 51.3205Z" fill="#F2DCC9" fill-opacity="0.15"/>
<path d="M324.663 47.1442C325.358 49.7208 324.573 52.1031 323.027 52.5272C321.48 52.9513 319.613 51.1188 318.992 48.5441C318.298 45.9675 319.009 43.5833 320.629 43.1611C322.249 42.739 323.969 44.5676 324.663 47.1442Z" fill="#F2DCC9" fill-opacity="0.15"/>
<path d="M336.572 52.6889C334.454 54.0551 333.522 56.4009 334.42 57.9259C335.317 59.451 337.743 59.5152 339.787 58.068C341.904 56.7018 342.836 54.356 341.939 52.831C341.041 51.306 338.615 51.2417 336.572 52.6889Z" fill="#F2DCC9" fill-opacity="0.15"/>
<path d="M332.035 44.9603C331.549 47.6593 329.8 49.55 328.098 49.195C326.395 48.84 325.405 46.2568 325.89 43.5578C326.376 40.8588 328.125 38.9681 329.827 39.3231C331.53 39.6781 332.52 42.2612 332.035 44.9603Z" fill="#F2DCC9" fill-opacity="0.15"/>
<path d="M333.22 45.6614C331.844 48.0437 331.946 50.6987 333.431 51.6737C334.916 52.6488 337.19 51.5383 338.566 49.156C339.941 46.7738 339.84 44.1188 338.355 43.1437C336.87 42.1686 334.595 43.2792 333.22 45.6614Z" fill="#F2DCC9" fill-opacity="0.15"/>
<path d="M378.629 54.6403C376.119 53.6259 374.671 55.7996 371.597 57.0612C367.132 58.9181 366.722 62.0673 368.575 63.5383C370.354 65.0074 372.983 63.339 375.126 64.4227C377.34 65.3503 378.181 68.5326 380.463 68.83C382.671 69.1254 384.336 66.5624 382.229 61.7666C380.8 58.5688 381.14 55.8127 378.629 54.6403Z" fill="#F2DCC9" fill-opacity="0.15"/>
<path d="M373.699 50.464C374.393 53.0406 373.608 55.423 372.062 55.8471C370.516 56.2712 368.648 54.4386 368.028 51.864C367.333 49.2874 368.044 46.9031 369.664 46.4809C371.285 46.0588 373.004 47.8874 373.699 50.464Z" fill="#F2DCC9" fill-opacity="0.15"/>
<path d="M381.07 48.2801C380.585 50.9791 378.835 52.8698 377.133 52.5148C375.431 52.1598 374.44 49.5766 374.926 46.8776C375.411 44.1786 377.16 42.2879 378.863 42.6429C380.565 42.9979 381.555 45.5811 381.07 48.2801Z" fill="#F2DCC9" fill-opacity="0.15"/>
<path d="M282.748 119.724C280.27 118.709 278.905 120.883 275.928 122.144C271.605 124.001 271.279 127.151 273.126 128.622C274.9 130.091 277.432 128.422 279.553 129.506C281.74 130.434 282.637 133.616 284.876 133.913C287.042 134.209 288.609 131.646 286.436 126.85C284.964 123.652 285.231 120.896 282.748 119.724Z" fill="#F2DCC9" fill-opacity="0.15"/>
<path d="M277.928 115.547C278.66 118.124 277.963 120.506 276.486 120.93C275.009 121.354 273.167 119.522 272.506 116.947C271.774 114.371 272.399 111.986 273.947 111.564C275.496 111.142 277.196 112.971 277.928 115.547Z" fill="#F2DCC9" fill-opacity="0.15"/>
<path d="M289.933 121.092C287.894 122.458 287.037 124.804 287.951 126.329C288.865 127.854 291.239 127.918 293.204 126.471C295.243 125.105 296.099 122.759 295.186 121.234C294.272 119.709 291.897 119.645 289.933 121.092Z" fill="#F2DCC9" fill-opacity="0.15"/>
<path d="M285.324 113.363C284.925 116.062 283.289 117.953 281.643 117.598C279.998 117.243 278.981 114.66 279.381 111.961C279.78 109.262 281.416 107.371 283.061 107.726C284.707 108.081 285.723 110.664 285.324 113.363Z" fill="#F2DCC9" fill-opacity="0.15"/>
<path d="M286.649 114.064C285.374 116.447 285.537 119.102 287 120.077C288.463 121.052 290.639 119.941 291.914 117.559C293.19 115.177 293.027 112.522 291.564 111.547C290.101 110.572 287.924 111.682 286.649 114.064Z" fill="#F2DCC9" fill-opacity="0.15"/>
<path d="M21.2538 250.089C18.7443 249.074 17.2961 251.248 14.2216 252.51C9.75651 254.366 9.34731 257.516 11.1999 258.987C12.9789 260.456 15.6082 258.787 17.7509 259.871C19.9655 260.799 20.8062 263.981 23.0879 264.278C25.2961 264.574 26.9608 262.011 24.8542 257.215C23.4252 254.017 23.7649 251.261 21.2538 250.089Z" fill="#F2DCC9" fill-opacity="0.15"/>
<path d="M16.3236 245.912C17.018 248.489 16.2329 250.871 14.6867 251.295C13.1405 251.72 11.273 249.887 10.6525 247.312C9.95817 244.736 10.6694 242.351 12.2895 241.929C13.9095 241.507 15.6293 243.336 16.3236 245.912Z" fill="#F2DCC9" fill-opacity="0.15"/>
<path d="M28.2319 251.457C26.1142 252.823 25.1824 255.169 26.0799 256.694C26.9773 258.219 29.4035 258.283 31.4469 256.836C33.5646 255.47 34.4963 253.124 33.5989 251.599C32.7015 250.074 30.2753 250.01 28.2319 251.457Z" fill="#F2DCC9" fill-opacity="0.15"/>
<path d="M23.6948 243.728C23.2096 246.427 21.4599 248.318 19.7577 247.963C18.0555 247.608 17.0655 245.025 17.5506 242.326C18.0357 239.627 19.7854 237.736 21.4876 238.091C23.1899 238.446 24.1799 241.029 23.6948 243.728Z" fill="#F2DCC9" fill-opacity="0.15"/>
<path d="M24.8798 244.43C23.504 246.812 23.6058 249.467 25.0908 250.442C26.5759 251.417 28.85 250.306 30.2258 247.924C31.6017 245.542 31.4999 242.887 30.0148 241.912C28.5297 240.937 26.2556 242.047 24.8798 244.43Z" fill="#F2DCC9" fill-opacity="0.15"/>
<path d="M14.5936 190.32C12.0841 189.306 10.636 191.48 7.56148 192.741C3.09635 194.598 2.68716 197.747 4.5397 199.219C6.31871 200.688 8.94807 199.019 11.0907 200.103C13.3053 201.03 14.1461 204.213 16.4278 204.51C18.636 204.806 20.3007 202.243 18.194 197.447C16.765 194.249 17.1047 191.493 14.5936 190.32Z" fill="#F2DCC9" fill-opacity="0.15"/>
<path d="M9.66349 186.144C10.3578 188.721 9.57274 191.103 8.02655 191.527C6.48037 191.951 4.61282 190.119 3.99236 187.544C3.29802 184.968 4.00923 182.583 5.62929 182.161C7.24936 181.739 8.96914 183.568 9.66349 186.144Z" fill="#F2DCC9" fill-opacity="0.15"/>
<path d="M21.5718 191.689C19.4541 193.055 18.5223 195.401 19.4197 196.926C20.3172 198.451 22.7433 198.515 24.7867 197.068C26.9044 195.702 27.8362 193.356 26.9387 191.831C26.0413 190.306 23.6151 190.242 21.5718 191.689Z" fill="#F2DCC9" fill-opacity="0.15"/>
<path d="M17.0346 183.96C16.5495 186.659 14.7998 188.55 13.0976 188.195C11.3954 187.84 10.4053 185.257 10.8905 182.558C11.3756 179.859 13.1253 177.968 14.8275 178.323C16.5297 178.678 17.5198 181.261 17.0346 183.96Z" fill="#F2DCC9" fill-opacity="0.15"/>
<path d="M18.2196 184.661C16.8438 187.044 16.9456 189.699 18.4307 190.674C19.9157 191.649 22.1898 190.538 23.5657 188.156C24.9415 185.774 24.8397 183.119 23.3546 182.144C21.8696 181.169 19.5955 182.279 18.2196 184.661Z" fill="#F2DCC9" fill-opacity="0.15"/>
<path d="M63.6288 193.64C61.1193 192.626 59.6711 194.8 56.5966 196.061C52.1315 197.918 51.7223 201.067 53.5749 202.538C55.3539 204.007 57.9832 202.339 60.1259 203.423C62.3405 204.35 63.1812 207.533 65.4629 207.83C67.6711 208.125 69.3358 205.562 67.2292 200.767C65.8002 197.569 66.1399 194.813 63.6288 193.64Z" fill="#F2DCC9" fill-opacity="0.15"/>
<path d="M58.6986 189.464C59.393 192.041 58.6079 194.423 57.0617 194.847C55.5155 195.271 53.648 193.439 53.0275 190.864C52.3332 188.287 53.0444 185.903 54.6645 185.481C56.2845 185.059 58.0043 186.888 58.6986 189.464Z" fill="#F2DCC9" fill-opacity="0.15"/>
<path d="M70.6069 195.009C68.4892 196.375 67.5574 198.721 68.4549 200.246C69.3523 201.771 71.7785 201.835 73.8219 200.388C75.9396 199.022 76.8713 196.676 75.9739 195.151C75.0765 193.626 72.6503 193.562 70.6069 195.009Z" fill="#F2DCC9" fill-opacity="0.15"/>
<path d="M66.0698 187.28C65.5846 189.979 63.8349 191.87 62.1327 191.515C60.4305 191.16 59.4405 188.577 59.9256 185.878C60.4107 183.179 62.1604 181.288 63.8626 181.643C65.5649 181.998 66.5549 184.581 66.0698 187.28Z" fill="#F2DCC9" fill-opacity="0.15"/>
<path d="M67.2548 187.981C65.879 190.364 65.9808 193.019 67.4658 193.994C68.9509 194.969 71.225 193.858 72.6008 191.476C73.9767 189.094 73.8749 186.439 72.3898 185.464C70.9047 184.489 68.6306 185.599 67.2548 187.981Z" fill="#F2DCC9" fill-opacity="0.15"/>
<path d="M90.2655 151.139C87.756 150.125 86.3078 152.299 83.2333 153.56C78.7682 155.417 78.359 158.566 80.2116 160.037C81.9906 161.506 84.6199 159.838 86.7626 160.922C88.9771 161.849 89.8179 165.031 92.0996 165.329C94.3078 165.624 95.9725 163.061 93.8658 158.266C92.4369 155.068 92.7765 152.312 90.2655 151.139Z" fill="#F2DCC9" fill-opacity="0.15"/>
<path d="M85.3353 146.963C86.0296 149.54 85.2438 151.922 83.6969 152.346C82.15 152.77 80.282 150.938 79.6616 148.363C78.9673 145.786 79.6792 143.402 81.3 142.98C82.9208 142.558 84.6411 144.386 85.3353 146.963Z" fill="#F2DCC9" fill-opacity="0.15"/>
<path d="M97.2436 152.508C95.1259 153.874 94.1942 156.22 95.0916 157.745C95.989 159.27 98.4152 159.334 100.459 157.887C102.576 156.521 103.508 154.175 102.611 152.65C101.713 151.125 99.287 151.061 97.2436 152.508Z" fill="#F2DCC9" fill-opacity="0.15"/>
<path d="M92.7065 144.779C92.2213 147.478 90.4716 149.369 88.7694 149.014C87.0672 148.659 86.0772 146.076 86.5623 143.377C87.0475 140.678 88.7971 138.787 90.4993 139.142C92.2015 139.497 93.1916 142.08 92.7065 144.779Z" fill="#F2DCC9" fill-opacity="0.15"/>
<path d="M93.8895 145.48C92.5128 147.862 92.6143 150.517 94.0997 151.492C95.5852 152.468 97.8602 151.357 99.2369 148.975C100.614 146.593 100.512 143.938 99.0266 142.963C97.5412 141.987 95.2661 143.098 93.8895 145.48Z" fill="#F2DCC9" fill-opacity="0.15"/>
<path d="M170.254 250.089C167.744 249.074 166.296 251.248 163.222 252.51C158.757 254.366 158.347 257.516 160.2 258.987C161.979 260.456 164.608 258.787 166.751 259.871C168.965 260.799 169.806 263.981 172.088 264.278C174.296 264.574 175.961 262.011 173.854 257.215C172.425 254.017 172.765 251.261 170.254 250.089Z" fill="#F2DCC9" fill-opacity="0.15"/>
<path d="M165.324 245.912C166.018 248.489 165.233 250.871 163.687 251.295C162.141 251.72 160.273 249.887 159.653 247.312C158.958 244.736 159.669 242.351 161.289 241.929C162.91 241.507 164.629 243.336 165.324 245.912Z" fill="#F2DCC9" fill-opacity="0.15"/>
<path d="M177.232 251.457C175.114 252.823 174.182 255.169 175.08 256.694C175.977 258.219 178.403 258.283 180.447 256.836C182.565 255.47 183.496 253.124 182.599 251.599C181.701 250.074 179.275 250.01 177.232 251.457Z" fill="#F2DCC9" fill-opacity="0.15"/>
<path d="M172.695 243.728C172.21 246.427 170.46 248.318 168.758 247.963C167.056 247.608 166.065 245.025 166.551 242.326C167.036 239.627 168.785 237.736 170.488 238.091C172.19 238.446 173.18 241.029 172.695 243.728Z" fill="#F2DCC9" fill-opacity="0.15"/>
<path d="M173.88 244.43C172.504 246.812 172.606 249.467 174.091 250.442C175.576 251.417 177.85 250.306 179.226 247.924C180.602 245.542 180.5 242.887 179.015 241.912C177.53 240.937 175.256 242.047 173.88 244.43Z" fill="#F2DCC9" fill-opacity="0.15"/>
<path d="M163.594 190.32C161.084 189.306 159.636 191.48 156.561 192.741C152.096 194.598 151.687 197.747 153.54 199.219C155.319 200.688 157.948 199.019 160.091 200.103C162.305 201.03 163.146 204.213 165.428 204.51C167.636 204.806 169.301 202.243 167.194 197.447C165.765 194.249 166.105 191.493 163.594 190.32Z" fill="#F2DCC9" fill-opacity="0.15"/>
<path d="M158.663 186.144C159.358 188.721 158.573 191.103 157.027 191.527C155.48 191.951 153.613 190.119 152.992 187.544C152.298 184.968 153.009 182.583 154.629 182.161C156.249 181.739 157.969 183.568 158.663 186.144Z" fill="#F2DCC9" fill-opacity="0.15"/>
<path d="M170.572 191.689C168.454 193.055 167.522 195.401 168.42 196.926C169.317 198.451 171.743 198.515 173.787 197.068C175.904 195.702 176.836 193.356 175.939 191.831C175.041 190.306 172.615 190.242 170.572 191.689Z" fill="#F2DCC9" fill-opacity="0.15"/>
<path d="M166.035 183.96C165.549 186.659 163.8 188.55 162.098 188.195C160.395 187.84 159.405 185.257 159.89 182.558C160.376 179.859 162.125 177.968 163.827 178.323C165.53 178.678 166.52 181.261 166.035 183.96Z" fill="#F2DCC9" fill-opacity="0.15"/>
<path d="M167.22 184.661C165.844 187.044 165.946 189.699 167.431 190.674C168.916 191.649 171.19 190.538 172.566 188.156C173.941 185.774 173.84 183.119 172.355 182.144C170.87 181.169 168.595 182.279 167.22 184.661Z" fill="#F2DCC9" fill-opacity="0.15"/>
<path d="M212.629 193.64C210.119 192.626 208.671 194.8 205.597 196.061C201.132 197.918 200.722 201.067 202.575 202.538C204.354 204.007 206.983 202.339 209.126 203.423C211.34 204.35 212.181 207.533 214.463 207.83C216.671 208.125 218.336 205.562 216.229 200.767C214.8 197.569 215.14 194.813 212.629 193.64Z" fill="#F2DCC9" fill-opacity="0.15"/>
<path d="M207.699 189.464C208.393 192.041 207.608 194.423 206.062 194.847C204.516 195.271 202.648 193.439 202.028 190.864C201.333 188.287 202.044 185.903 203.664 185.481C205.285 185.059 207.004 186.888 207.699 189.464Z" fill="#F2DCC9" fill-opacity="0.15"/>
<path d="M219.607 195.009C217.489 196.375 216.557 198.721 217.455 200.246C218.352 201.771 220.778 201.835 222.822 200.388C224.94 199.022 225.871 196.676 224.974 195.151C224.076 193.626 221.65 193.562 219.607 195.009Z" fill="#F2DCC9" fill-opacity="0.15"/>
<path d="M215.07 187.28C214.585 189.979 212.835 191.87 211.133 191.515C209.431 191.16 208.44 188.577 208.926 185.878C209.411 183.179 211.16 181.288 212.863 181.643C214.565 181.998 215.555 184.581 215.07 187.28Z" fill="#F2DCC9" fill-opacity="0.15"/>
<path d="M216.255 187.981C214.879 190.364 214.981 193.019 216.466 193.994C217.951 194.969 220.225 193.858 221.601 191.476C222.977 189.094 222.875 186.439 221.39 185.464C219.905 184.489 217.631 185.599 216.255 187.981Z" fill="#F2DCC9" fill-opacity="0.15"/>
<path d="M239.265 151.139C236.756 150.125 235.308 152.299 232.233 153.56C227.768 155.417 227.359 158.566 229.212 160.037C230.991 161.506 233.62 159.838 235.763 160.922C237.977 161.849 238.818 165.031 241.1 165.329C243.308 165.624 244.972 163.061 242.866 158.266C241.437 155.068 241.777 152.312 239.265 151.139Z" fill="#F2DCC9" fill-opacity="0.15"/>
<path d="M234.335 146.963C235.03 149.54 234.244 151.922 232.697 152.346C231.15 152.77 229.282 150.938 228.662 148.363C227.967 145.786 228.679 143.402 230.3 142.98C231.921 142.558 233.641 144.386 234.335 146.963Z" fill="#F2DCC9" fill-opacity="0.15"/>
<path d="M246.244 152.508C244.126 153.874 243.194 156.22 244.092 157.745C244.989 159.27 247.415 159.334 249.459 157.887C251.576 156.521 252.508 154.175 251.611 152.65C250.713 151.125 248.287 151.061 246.244 152.508Z" fill="#F2DCC9" fill-opacity="0.15"/>
<path d="M241.706 144.779C241.221 147.478 239.472 149.369 237.769 149.014C236.067 148.659 235.077 146.076 235.562 143.377C236.047 140.678 237.797 138.787 239.499 139.142C241.202 139.497 242.192 142.08 241.706 144.779Z" fill="#F2DCC9" fill-opacity="0.15"/>
<path d="M242.889 145.48C241.513 147.862 241.614 150.517 243.1 151.492C244.585 152.468 246.86 151.357 248.237 148.975C249.614 146.593 249.512 143.938 248.027 142.963C246.541 141.987 244.266 143.098 242.889 145.48Z" fill="#F2DCC9" fill-opacity="0.15"/>
<path d="M116.748 258.724C114.27 257.709 112.905 259.883 109.928 261.144C105.605 263.001 105.279 266.151 107.126 267.622C108.9 269.091 111.432 267.422 113.553 268.506C115.74 269.434 116.637 272.616 118.876 272.913C121.042 273.209 122.609 270.646 120.436 265.85C118.964 262.652 119.231 259.896 116.748 258.724Z" fill="#F2DCC9" fill-opacity="0.15"/>
<path d="M111.928 254.547C112.66 257.124 111.963 259.506 110.486 259.93C109.009 260.354 107.167 258.522 106.506 255.947C105.774 253.371 106.399 250.986 107.947 250.564C109.496 250.142 111.196 251.971 111.928 254.547Z" fill="#F2DCC9" fill-opacity="0.15"/>
<path d="M123.933 260.092C121.894 261.458 121.037 263.804 121.951 265.329C122.865 266.854 125.239 266.918 127.204 265.471C129.243 264.105 130.099 261.759 129.186 260.234C128.272 258.709 125.897 258.645 123.933 260.092Z" fill="#F2DCC9" fill-opacity="0.15"/>
<path d="M119.324 252.363C118.925 255.062 117.289 256.953 115.643 256.598C113.998 256.243 112.981 253.66 113.381 250.961C113.78 248.262 115.416 246.371 117.061 246.726C118.707 247.081 119.723 249.664 119.324 252.363Z" fill="#F2DCC9" fill-opacity="0.15"/>
<path d="M120.649 253.064C119.374 255.447 119.537 258.102 121 259.077C122.463 260.052 124.639 258.941 125.914 256.559C127.19 254.177 127.027 251.522 125.564 250.547C124.101 249.572 121.924 250.682 120.649 253.064Z" fill="#F2DCC9" fill-opacity="0.15"/>
<path d="M311.254 250.089C308.744 249.074 307.296 251.248 304.222 252.51C299.757 254.366 299.347 257.516 301.2 258.987C302.979 260.456 305.608 258.787 307.751 259.871C309.965 260.799 310.806 263.981 313.088 264.278C315.296 264.574 316.961 262.011 314.854 257.215C313.425 254.017 313.765 251.261 311.254 250.089Z" fill="#F2DCC9" fill-opacity="0.15"/>
<path d="M306.324 245.912C307.018 248.489 306.233 250.871 304.687 251.295C303.141 251.72 301.273 249.887 300.653 247.312C299.958 244.736 300.669 242.351 302.289 241.929C303.91 241.507 305.629 243.336 306.324 245.912Z" fill="#F2DCC9" fill-opacity="0.15"/>
<path d="M318.232 251.457C316.114 252.823 315.182 255.169 316.08 256.694C316.977 258.219 319.403 258.283 321.447 256.836C323.565 255.47 324.496 253.124 323.599 251.599C322.701 250.074 320.275 250.01 318.232 251.457Z" fill="#F2DCC9" fill-opacity="0.15"/>
<path d="M313.695 243.728C313.21 246.427 311.46 248.318 309.758 247.963C308.056 247.608 307.065 245.025 307.551 242.326C308.036 239.627 309.785 237.736 311.488 238.091C313.19 238.446 314.18 241.029 313.695 243.728Z" fill="#F2DCC9" fill-opacity="0.15"/>
<path d="M314.88 244.43C313.504 246.812 313.606 249.467 315.091 250.442C316.576 251.417 318.85 250.306 320.226 247.924C321.602 245.542 321.5 242.887 320.015 241.912C318.53 240.937 316.256 242.047 314.88 244.43Z" fill="#F2DCC9" fill-opacity="0.15"/>
<path d="M304.594 190.32C302.084 189.306 300.636 191.48 297.561 192.741C293.096 194.598 292.687 197.747 294.54 199.219C296.319 200.688 298.948 199.019 301.091 200.103C303.305 201.03 304.146 204.213 306.428 204.51C308.636 204.806 310.301 202.243 308.194 197.447C306.765 194.249 307.105 191.493 304.594 190.32Z" fill="#F2DCC9" fill-opacity="0.15"/>
<path d="M299.663 186.144C300.358 188.721 299.573 191.103 298.027 191.527C296.48 191.951 294.613 190.119 293.992 187.544C293.298 184.968 294.009 182.583 295.629 182.161C297.249 181.739 298.969 183.568 299.663 186.144Z" fill="#F2DCC9" fill-opacity="0.15"/>
<path d="M311.572 191.689C309.454 193.055 308.522 195.401 309.42 196.926C310.317 198.451 312.743 198.515 314.787 197.068C316.904 195.702 317.836 193.356 316.939 191.831C316.041 190.306 313.615 190.242 311.572 191.689Z" fill="#F2DCC9" fill-opacity="0.15"/>
<path d="M307.035 183.96C306.549 186.659 304.8 188.55 303.098 188.195C301.395 187.84 300.405 185.257 300.89 182.558C301.376 179.859 303.125 177.968 304.827 178.323C306.53 178.678 307.52 181.261 307.035 183.96Z" fill="#F2DCC9" fill-opacity="0.15"/>
<path d="M308.22 184.661C306.844 187.044 306.946 189.699 308.431 190.674C309.916 191.649 312.19 190.538 313.566 188.156C314.941 185.774 314.84 183.119 313.355 182.144C311.87 181.169 309.595 182.279 308.22 184.661Z" fill="#F2DCC9" fill-opacity="0.15"/>
<path d="M353.629 193.64C351.119 192.626 349.671 194.8 346.597 196.061C342.132 197.918 341.722 201.067 343.575 202.538C345.354 204.007 347.983 202.339 350.126 203.423C352.34 204.35 353.181 207.533 355.463 207.83C357.671 208.125 359.336 205.562 357.229 200.767C355.8 197.569 356.14 194.813 353.629 193.64Z" fill="#F2DCC9" fill-opacity="0.15"/>
<path d="M348.699 189.464C349.393 192.041 348.608 194.423 347.062 194.847C345.516 195.271 343.648 193.439 343.028 190.864C342.333 188.287 343.044 185.903 344.664 185.481C346.285 185.059 348.004 186.888 348.699 189.464Z" fill="#F2DCC9" fill-opacity="0.15"/>
<path d="M360.607 195.009C358.489 196.375 357.557 198.721 358.455 200.246C359.352 201.771 361.778 201.835 363.822 200.388C365.94 199.022 366.871 196.676 365.974 195.151C365.076 193.626 362.65 193.562 360.607 195.009Z" fill="#F2DCC9" fill-opacity="0.15"/>
<path d="M356.07 187.28C355.585 189.979 353.835 191.87 352.133 191.515C350.431 191.16 349.44 188.577 349.926 185.878C350.411 183.179 352.16 181.288 353.863 181.643C355.565 181.998 356.555 184.581 356.07 187.28Z" fill="#F2DCC9" fill-opacity="0.15"/>
<path d="M357.255 187.981C355.879 190.364 355.981 193.019 357.466 193.994C358.951 194.969 361.225 193.858 362.601 191.476C363.977 189.094 363.875 186.439 362.39 185.464C360.905 184.489 358.631 185.599 357.255 187.981Z" fill="#F2DCC9" fill-opacity="0.15"/>
<path d="M380.265 151.139C377.756 150.125 376.308 152.299 373.233 153.56C368.768 155.417 368.359 158.566 370.212 160.037C371.991 161.506 374.62 159.838 376.763 160.922C378.977 161.849 379.818 165.031 382.1 165.329C384.308 165.624 385.972 163.061 383.866 158.266C382.437 155.068 382.777 152.312 380.265 151.139Z" fill="#F2DCC9" fill-opacity="0.15"/>
<path d="M375.335 146.963C376.03 149.54 375.244 151.922 373.697 152.346C372.15 152.77 370.282 150.938 369.662 148.363C368.967 145.786 369.679 143.402 371.3 142.98C372.921 142.558 374.641 144.386 375.335 146.963Z" fill="#F2DCC9" fill-opacity="0.15"/>
<path d="M257.748 258.724C255.27 257.709 253.905 259.883 250.928 261.144C246.605 263.001 246.279 266.151 248.126 267.622C249.9 269.091 252.432 267.422 254.553 268.506C256.74 269.434 257.637 272.616 259.876 272.913C262.042 273.209 263.609 270.646 261.436 265.85C259.964 262.652 260.231 259.896 257.748 258.724Z" fill="#F2DCC9" fill-opacity="0.15"/>
<path d="M252.928 254.547C253.66 257.124 252.963 259.506 251.486 259.93C250.009 260.354 248.167 258.522 247.506 255.947C246.774 253.371 247.399 250.986 248.947 250.564C250.496 250.142 252.196 251.971 252.928 254.547Z" fill="#F2DCC9" fill-opacity="0.15"/>
<path d="M264.933 260.092C262.894 261.458 262.037 263.804 262.951 265.329C263.865 266.854 266.239 266.918 268.204 265.471C270.243 264.105 271.099 261.759 270.186 260.234C269.272 258.709 266.897 258.645 264.933 260.092Z" fill="#F2DCC9" fill-opacity="0.15"/>
<path d="M260.324 252.363C259.925 255.062 258.289 256.953 256.643 256.598C254.998 256.243 253.981 253.66 254.381 250.961C254.78 248.262 256.416 246.371 258.061 246.726C259.707 247.081 260.723 249.664 260.324 252.363Z" fill="#F2DCC9" fill-opacity="0.15"/>
<path d="M261.649 253.064C260.374 255.447 260.537 258.102 262 259.077C263.463 260.052 265.639 258.941 266.914 256.559C268.19 254.177 268.027 251.522 266.564 250.547C265.101 249.572 262.924 250.682 261.649 253.064Z" fill="#F2DCC9" fill-opacity="0.15"/>
</svg>
