<svg width="60" height="60" viewBox="0 0 60 60" fill="none" xmlns="http://www.w3.org/2000/svg">
<path fill-rule="evenodd" clip-rule="evenodd" d="M36.9821 0.120274C44.3814 0.844805 51.2279 2.16961 56.6324 7.28535C62.104 12.4647 59.1102 23.4679 59.7234 30.9853C60.429 39.635 57.1687 46.5198 51.4438 53.0318C45.6327 59.6419 38.4719 60.3866 29.6961 59.8662C21.623 59.3875 13.0989 59.5415 7.17564 54.0239C1.05295 48.3206 1.0328 42.9076 0.405862 34.5545C-0.281576 25.3952 -0.974999 14.3286 6.27514 8.70859C13.3535 3.2217 28.0755 -0.751858 36.9821 0.120274Z" fill="#F2B4AE"/>
<path d="M30.1594 20.3112C28.6193 19.7002 27.6051 21.0095 25.6043 21.7695C22.6975 22.8879 22.2956 24.7848 23.3997 25.6709C24.4573 26.5558 26.1952 25.5508 27.5002 26.2036C28.8578 26.7623 29.2445 28.6791 30.6732 28.8582C32.0555 29.0362 33.2243 27.4924 32.1109 24.6037C31.3531 22.6775 31.6932 21.0174 30.1594 20.3112Z" fill="white"/>
<path d="M26.5855 17.7964C26.8956 19.3484 26.3047 20.7834 25.3346 21.0388C24.3645 21.2943 23.2992 20.1905 23.0345 18.6396C22.7244 17.0876 23.2699 15.6515 24.2854 15.3972C25.3008 15.143 26.2754 16.2444 26.5855 17.7964Z" fill="white"/>
<path d="M34.7204 21.1358C33.3194 21.9587 32.6235 23.3716 33.1215 24.2902C33.6195 25.2088 35.1505 25.2475 36.5083 24.3758C37.9093 23.5529 38.6051 22.1399 38.1071 21.2213C37.6091 20.3028 36.0781 20.2641 34.7204 21.1358Z" fill="white"/>
<path d="M31.381 16.4814C30.9601 18.1071 29.7985 19.2458 28.7682 19.0319C27.7379 18.8179 27.2467 17.262 27.6676 15.6362C28.0886 14.0105 29.2501 12.8718 30.2804 13.0857C31.3107 13.2997 31.8019 14.8557 31.381 16.4814Z" fill="white"/>
<path d="M32.521 16.9032C31.5577 18.3381 31.5004 19.9373 32.3791 20.5246C33.2578 21.1119 34.7217 20.443 35.685 19.0081C36.6483 17.5732 36.7057 15.974 35.8269 15.3867C34.9482 14.7993 33.4843 15.4682 32.521 16.9032Z" fill="white"/>
<path d="M20.876 42.9114H19.796V35.2914H17.12V34.3434H23.54V35.2914H20.876V42.9114ZM33.5736 38.6154C33.5736 39.2794 33.4896 39.8834 33.3216 40.4274C33.1536 40.9634 32.9016 41.4274 32.5656 41.8194C32.2376 42.2114 31.8256 42.5114 31.3296 42.7194C30.8416 42.9274 30.2736 43.0314 29.6256 43.0314C28.9536 43.0314 28.3696 42.9274 27.8736 42.7194C27.3776 42.5034 26.9656 42.2034 26.6376 41.8194C26.3096 41.4274 26.0656 40.9594 25.9056 40.4154C25.7456 39.8714 25.6656 39.2674 25.6656 38.6034C25.6656 37.7234 25.8096 36.9554 26.0976 36.2994C26.3856 35.6434 26.8216 35.1314 27.4056 34.7634C27.9976 34.3954 28.7416 34.2114 29.6376 34.2114C30.4936 34.2114 31.2136 34.3954 31.7976 34.7634C32.3816 35.1234 32.8216 35.6354 33.1176 36.2994C33.4216 36.9554 33.5736 37.7274 33.5736 38.6154ZM26.8056 38.6154C26.8056 39.3354 26.9056 39.9554 27.1056 40.4754C27.3056 40.9954 27.6136 41.3954 28.0296 41.6754C28.4536 41.9554 28.9856 42.0954 29.6256 42.0954C30.2736 42.0954 30.8016 41.9554 31.2096 41.6754C31.6256 41.3954 31.9336 40.9954 32.1336 40.4754C32.3336 39.9554 32.4336 39.3354 32.4336 38.6154C32.4336 37.5354 32.2096 36.6914 31.7616 36.0834C31.3136 35.4674 30.6056 35.1594 29.6376 35.1594C28.9896 35.1594 28.4536 35.2994 28.0296 35.5794C27.6136 35.8514 27.3056 36.2474 27.1056 36.7674C26.9056 37.2794 26.8056 37.8954 26.8056 38.6154ZM39.2406 34.3434C40.3606 34.3434 41.1766 34.5634 41.6886 35.0034C42.2006 35.4434 42.4566 36.0634 42.4566 36.8634C42.4566 37.2154 42.3966 37.5554 42.2766 37.8834C42.1646 38.2034 41.9766 38.4914 41.7126 38.7474C41.4486 39.0034 41.0966 39.2074 40.6566 39.3594C40.2166 39.5034 39.6766 39.5754 39.0366 39.5754H38.0526V42.9114H36.9726V34.3434H39.2406ZM39.1446 35.2674H38.0526V38.6514H38.9166C39.4606 38.6514 39.9126 38.5954 40.2726 38.4834C40.6326 38.3634 40.9006 38.1754 41.0766 37.9194C41.2526 37.6634 41.3406 37.3274 41.3406 36.9114C41.3406 36.3594 41.1646 35.9474 40.8126 35.6754C40.4606 35.4034 39.9046 35.2674 39.1446 35.2674Z" fill="white"/>
</svg>
