<svg width="101" height="100" viewBox="0 0 101 100" fill="none" xmlns="http://www.w3.org/2000/svg">
<circle cx="50.5" cy="50" r="50" fill="white"/>
<path fill-rule="evenodd" clip-rule="evenodd" d="M15.8328 17.8459C15.1234 18.9266 15.4956 20.3616 17.4594 24.1232C18.474 26.0668 19.0025 27.7151 19.6304 30.894C20.0867 33.2052 20.6454 35.5524 20.8713 36.1096C21.4032 37.4198 23.2531 39.4551 24.7531 40.38L25.9336 41.1082L24.7368 42.334C22.945 44.1696 22.0563 46.4666 21.8788 49.7207C21.409 58.3311 25.5534 69.6608 31.9143 77.1554C34.1474 79.7869 36.3985 80.9691 36.3972 79.51C36.3968 79.2882 35.3374 77.5522 34.0429 75.6523C31.8746 72.4703 30.9766 70.5376 30.9719 69.0426C30.9695 68.313 32.7131 64.7187 33.0693 64.7187C33.2135 64.7187 33.4238 65.1379 33.5371 65.6497C34.6868 70.8596 36.9477 76.5748 38.6649 78.6115C40.5422 80.8377 40.5802 79.5391 38.7993 74.0584C37.2195 69.1973 36.616 66.2926 37.2351 66.5299C37.4624 66.6169 38.5028 66.7947 39.5469 66.9247L41.4459 67.1617L42.6811 71.0745C44.1621 75.7684 46.7131 81.6983 47.5928 82.4929C48.3014 83.133 48.9497 82.9208 48.948 82.049C48.9473 81.7342 48.4178 79.7581 47.7709 77.6575C46.7867 74.4623 45.2175 67.5395 45.2175 66.3942C45.2175 66.2175 45.6422 66.0729 46.1612 66.0729C46.6802 66.0729 47.8987 65.8674 48.8686 65.6162C50.4416 65.2093 50.6496 65.2184 50.7951 65.7009C51.2703 67.2771 51.6628 72.6207 51.6628 77.518C51.6628 83.411 51.8884 84.064 53.0825 81.6275C54.0853 79.5814 54.4635 75.3307 54.6772 63.7031L54.8855 52.362L56.4412 49.6536C57.2967 48.164 58.1506 46.5675 58.3382 46.1061L58.6794 45.2665L59.1062 46.062C60.6283 48.9007 61.3088 64.9767 60.3261 74.8855C60.0035 78.1382 59.7921 81.2447 59.8566 81.789C59.9984 82.9837 60.6446 83.2861 61.1283 82.3842C61.7291 81.264 62.8547 75.6675 63.4839 70.6744C63.9931 66.6312 64.1722 65.908 64.6584 65.9317C64.9738 65.9473 65.9366 65.9856 66.7979 66.0164L68.3641 66.0729L68.1277 68.3581C67.9977 69.6151 67.5981 71.9747 67.2402 73.6017C66.5051 76.9418 66.4352 77.9219 66.9332 77.9219C67.8726 77.9219 69.4011 73.9623 70.4466 68.8202C70.7262 67.445 71.1346 66.1501 71.3544 65.9426C71.7998 65.5214 71.6183 70.8155 70.9419 77.9821C70.5793 81.8202 70.658 83 71.276 83C71.7147 83 72.6207 80.7677 73.1798 78.3102C73.4488 77.127 73.9322 73.7477 74.2541 70.8006C74.8047 65.7594 74.8848 65.4307 75.6016 65.2509C76.0205 65.146 76.5782 64.9781 76.8404 64.8775C77.2397 64.7245 77.2716 65.1253 77.0365 67.3306C76.8818 68.7802 76.5294 71.2611 76.2529 72.8437C75.6165 76.4878 75.6046 77.9219 76.2105 77.9219C76.7498 77.9219 78.0952 75.0341 79.1207 71.6751C81.631 63.4519 82.3617 57.0186 81.3783 51.7983C80.8427 48.9566 80.8464 48.8293 81.497 47.7287C82.7237 45.6538 83.1654 43.807 83.5215 39.2611C83.8574 34.9724 83.9408 34.6271 85.274 32.0183C86.8324 28.9684 86.8904 28.0405 85.5318 27.883C84.1888 27.7273 82.38 29.4884 81.4923 31.8159C80.8678 33.4527 80.7446 34.5557 80.6727 39.1588C80.593 44.2644 80.1564 46.9785 79.5336 46.2388C79.3904 46.0688 78.4151 44.8633 77.3659 43.5599C72.3056 37.2728 63.815 30.0761 59.783 28.6566C57.8107 27.9619 57.7065 28.008 58.424 29.2565C59.6361 31.3659 59.6103 31.717 58.1024 33.6206C57.3324 34.5926 56.3893 36.008 56.0067 36.7657C55.624 37.5233 55.262 38.1981 55.2027 38.2648C55.143 38.3318 54.6273 38.0545 54.0571 37.6493C52.8939 36.8229 52.7857 36.1418 53.533 34.3563C53.8152 33.6823 54.0062 33.0928 53.957 33.0471C53.5622 32.6785 50.3168 34.8898 47.9048 37.1709C44.4722 40.4175 43.8046 40.6278 38.459 40.1447C36.6723 39.9829 33.3994 39.8424 31.1863 39.8319L27.162 39.8129L25.6809 37.8575C23.827 35.4102 23.1693 33.2367 23.1618 29.5334C23.1543 25.8958 22.4562 22.5466 21.2411 20.3187C19.549 17.2156 17.0092 16.0544 15.8328 17.8459ZM18.6633 17.8368C19.0676 18.1195 19.7444 18.843 20.1674 19.4449C20.6807 20.1758 20.7434 20.3847 20.3557 20.0746C19.6749 19.5292 19.6447 19.6568 20.1518 20.9402C20.489 21.7937 20.5538 21.8255 20.7702 21.2429C20.9711 20.7029 21.1105 20.838 21.5922 22.0398C22.3639 23.9644 22.7049 26.4635 22.196 26.4635C21.6217 26.4635 21.7299 28.053 22.3195 28.2788C22.5994 28.3858 22.8283 28.8753 22.8283 29.3669C22.8283 30.0216 22.6926 30.2078 22.3195 30.0649C21.9487 29.9231 21.8001 30.1198 21.7713 30.7904C21.7448 31.4086 21.6794 31.5081 21.5722 31.0938C21.4687 30.695 21.2221 30.549 20.8751 30.6818C19.76 31.109 19.3224 28.7605 20.4093 28.1799C20.7577 27.9937 21.1393 27.9379 21.2574 28.0553C21.3751 28.1728 21.4714 27.7104 21.4714 27.0279C21.4714 25.8122 20.8191 25.2119 20.7662 26.3789C20.7502 26.7327 20.6705 26.8011 20.5684 26.5482C20.4741 26.3156 20.241 26.125 20.0501 26.125C19.8591 26.125 19.7875 26.3457 19.8913 26.6155C20.0175 26.9436 19.9171 27.0438 19.5884 26.9178C19.318 26.8143 19.0968 26.6887 19.0968 26.6386C19.0968 26.5888 18.7125 25.6801 18.2423 24.6198C17.7725 23.5595 17.5435 22.7876 17.7335 22.9051C18.1548 23.1648 18.1806 22.4081 17.7725 21.7652C17.6096 21.5086 17.3145 21.3986 17.1164 21.5208C16.6167 21.8289 16.0326 20.6169 15.9776 19.1581C15.9111 17.3943 17.1547 16.7822 18.6633 17.8368ZM17.4682 20.2851C18.2691 21.926 18.571 22.401 18.8122 22.401C19.2105 22.401 19.1718 22.1735 18.5792 21.0299C18.2945 20.4808 17.9004 20.0312 17.7029 20.0312C17.5055 20.0312 17.4 20.1453 17.4682 20.2851ZM18.7576 20.3051C18.7576 20.4558 18.9818 20.8745 19.2556 21.2361C19.7641 21.9071 19.9401 21.5313 19.5694 20.5668C19.3567 20.0136 18.7576 19.8203 18.7576 20.3051ZM53.972 22.0584L53.1503 23.1062L52.5235 22.4149C52.1788 22.0351 51.5628 21.7239 51.154 21.7239C50.3093 21.7239 49.2882 22.6969 49.2882 23.502C49.2882 24.2742 50.8093 25.9723 52.6059 27.2059L54.1494 28.2656L54.9591 27.2801C56.5993 25.2824 57.4779 23.4779 57.3676 22.3326C57.27 21.3167 57.1488 21.207 56.0267 21.1132C54.9893 21.0269 54.663 21.1769 53.972 22.0584ZM56.7123 21.6928C57.0342 21.8963 57.1075 22.2869 56.9453 22.9319C56.6824 23.9776 54.4567 27.4792 54.0554 27.4792C53.686 27.4792 51.2619 25.6686 50.5332 24.8483C49.7913 24.0135 49.8975 22.7832 50.7561 22.2663C51.2734 21.9548 51.5339 22.0804 52.3365 23.0287L53.2976 24.1638L53.7111 23.3672C54.6633 21.5327 55.6172 21.0005 56.7123 21.6928ZM61.3309 29.7724C64.3198 31.284 67.82 34.0946 71.7299 38.1222C79.1119 45.7262 80.1747 47.319 80.9936 52.0058C81.7226 56.1787 81.6463 59.0793 80.6812 63.8297C79.7541 68.3936 77.4141 76.0287 76.6216 77.0755C76.1253 77.7309 76.1087 77.7218 76.0982 76.7854C76.0792 75.0998 77.179 69.6489 77.6471 69.1073C77.8944 68.8212 78.3323 68.0243 78.6204 67.3367C79.0976 66.1965 79.0939 65.97 78.5749 64.7749L78.006 63.4641L76.8296 64.2607C76.1827 64.6988 75.3956 65.0573 75.0808 65.0573C74.593 65.0573 74.4224 65.8403 73.9247 70.3599C73.267 76.3348 72.6292 79.6968 71.8008 81.5605C71.007 83.3456 70.8425 82.3344 71.2978 78.4734C71.8551 73.7483 72.1465 64.4418 71.7177 65.0573C71.446 65.4469 70.6301 65.5651 68.2131 65.5651C66.48 65.5651 64.6465 65.449 64.1387 65.3071C63.3866 65.0969 63.2519 65.1456 63.4144 65.5685C63.5243 65.8542 63.5063 67.2358 63.3747 68.6391C63.1386 71.151 63.1213 71.1886 62.2329 71.086L61.3309 70.9818L61.1138 61.6719C60.8824 51.7523 60.3413 47.1511 59.2141 45.5112C58.8599 44.9967 58.3925 43.9661 58.175 43.2213C57.8215 42.0111 57.2598 40.9843 56.0277 39.2959C55.8072 38.9936 55.7309 38.3694 55.8543 37.8785C56.0525 37.0904 56.1959 37.0209 57.2689 37.1946C59.3755 37.5359 60.5683 35.6895 59.1533 34.2774C58.5119 33.6372 58.5119 33.6196 59.1533 33.04C59.9346 32.3349 59.9716 31.5813 59.3043 29.9874C58.8131 28.8137 58.8175 28.7974 59.5587 29.0256C59.9736 29.1532 60.7711 29.4894 61.3309 29.7724ZM21.7472 31.9709C22.062 31.8551 22.405 31.6348 22.5091 31.4814C22.6136 31.328 22.8487 32.106 23.0319 33.2103C23.2147 34.3143 23.2439 35.1434 23.0963 35.0523C22.9491 34.9616 22.8161 35.0865 22.8015 35.3303C22.7808 35.6705 22.7351 35.6752 22.6038 35.3509C22.5017 35.0984 22.1217 35.0063 21.6604 35.1217C21.008 35.2852 20.8554 35.1532 20.6793 34.2747C20.5647 33.7026 20.5745 32.7391 20.7017 32.1341C20.8371 31.4892 20.9826 31.2712 21.0535 31.6077C21.1335 31.9855 21.37 32.1094 21.7472 31.9709ZM83.4238 33.4933C83.6901 33.6667 83.7207 34.3576 83.5246 35.7734C83.3699 36.8906 83.0934 39.3823 82.9103 41.3106C82.6589 43.9583 82.3529 45.2743 81.6602 46.6867C80.8827 48.2731 80.6924 48.466 80.4081 47.9589C80.1795 47.5516 80.2059 46.9707 80.4905 46.1375C80.7205 45.4645 80.978 42.4765 81.0631 39.4974C81.1483 36.5182 81.2799 33.8905 81.3559 33.6575C81.5058 33.1971 82.8095 33.0939 83.4238 33.4933ZM53.1866 34.1653C53.052 34.4914 52.8159 35.2832 52.6619 35.9251C52.4275 36.9045 52.4939 37.1706 53.0747 37.5765C53.6137 37.9533 53.6677 38.1222 53.3186 38.3375C53.0716 38.4895 52.9763 38.7204 53.1063 38.8501C53.2362 38.9798 53.5754 38.8934 53.8597 38.6578C54.4652 38.1561 54.5643 38.6669 53.9754 39.2546C53.7545 39.475 53.6806 39.7621 53.8112 39.8925C53.9418 40.0228 54.2294 39.949 54.4503 39.7286C55.0392 39.1409 55.5511 39.2398 55.0483 39.844C54.491 40.514 54.8845 40.9067 55.5558 40.3505C56.1613 39.8488 56.2604 40.3596 55.6715 40.9474C55.1298 41.488 55.5938 41.8966 56.1892 41.4034C56.7645 40.927 57.1519 41.3353 57.7198 43.0179C58.367 44.9357 58.1842 45.7171 56.2424 49.3296L54.3767 52.8011L54.3763 61.553C54.376 72.9565 53.6684 80.6674 52.4787 82.2322C52.0923 82.7403 52.0194 81.9099 51.9943 76.737C51.9783 73.3854 51.7677 69.3483 51.5261 67.7656C51.2089 65.6873 51.1906 64.819 51.46 64.6392C52.1072 64.2072 51.2273 64.3765 49.2882 65.0573C47.2654 65.7672 45.2175 65.9378 45.2175 65.3958C45.2175 65.2096 45.0859 65.0573 44.9254 65.0573C44.5974 65.0573 44.6025 65.0993 45.5733 70.4228C45.9584 72.5364 46.7993 75.9384 47.4418 77.9831C48.795 82.2911 48.8903 82.9739 48.0416 82.2796C47.1419 81.5439 44.7483 76.1239 43.1801 71.2705L41.7414 66.8197L39.2559 66.4511C37.8888 66.2479 35.9233 65.6673 34.8879 65.1605C33.0731 64.2722 33.0045 64.1899 32.99 62.871C32.9815 62.1184 32.7518 61.0456 32.4791 60.487C31.9383 59.3786 31.9366 59.2713 32.5093 62.4248C32.6928 63.4357 32.5293 64.131 31.6843 65.9328C31.1049 67.1688 30.6306 68.6008 30.6306 69.1154C30.6306 70.7414 31.5411 72.7185 33.8336 76.069C35.0572 77.8575 36.0583 79.467 36.0583 79.6457C36.0583 80.2585 34.1708 78.9961 32.6388 77.3589C29.2764 73.7656 26.413 68.7474 24.5537 63.1885C21.4297 53.8505 21.4158 46.7347 24.514 42.9979C26.2542 40.8989 30.7592 39.1822 31.4787 40.3437C31.7636 40.8035 32.9184 40.7733 33.0758 40.3021C33.1623 40.0431 33.6857 40.0052 34.7153 40.1826C35.5471 40.3261 36.0372 40.51 35.8039 40.5912C35.0565 40.8512 35.3503 41.3594 36.2479 41.3594C36.7666 41.3594 37.0275 41.2165 36.8965 41.0046C36.7493 40.7673 37.443 40.6833 38.9963 40.7507C40.6304 40.8218 41.2912 40.9768 41.2315 41.2747C41.1789 41.5371 41.529 41.6979 42.1539 41.6979C42.9097 41.6979 43.1122 41.5713 42.9657 41.1901C42.8408 40.8654 42.9718 40.6823 43.329 40.6823C44.425 40.6823 46.5357 39.3196 47.7719 37.8145C48.8106 36.5494 52.6649 33.5729 53.2643 33.5729C53.3563 33.5729 53.3213 33.8393 53.1866 34.1653ZM63.1376 34.488C62.5877 35.1163 61.8397 36.4299 61.8397 36.7667C61.8397 36.872 62.277 36.9583 62.8116 36.9583C64.1136 36.9583 65.6384 35.7382 65.5047 34.8035C65.369 33.8519 63.869 33.6518 63.1376 34.488ZM22.9131 36.1736C23.2395 36.1709 23.5068 36.006 23.5068 35.8076C23.5068 35.6092 23.9095 36.0537 24.4013 36.7951C24.8936 37.5365 25.7583 38.6334 26.3231 39.2326C27.2254 40.1897 27.279 40.3495 26.7627 40.5472C25.4648 41.0442 22.1383 38.3247 21.948 36.6106C21.8761 35.964 21.9304 35.6021 22.0685 35.8069C22.2065 36.0114 22.5868 36.1766 22.9131 36.1736ZM65.5963 36.7589C65.0583 37.4059 65.6425 37.7187 66.6425 37.3189C67.3525 37.0352 67.3647 36.9983 66.7585 36.9746C66.1944 36.9526 66.1659 36.8926 66.5889 36.6198C67.0316 36.3344 67.0262 36.2911 66.5455 36.2863C66.2419 36.2836 65.8148 36.4962 65.5963 36.7589ZM66.0017 38.2086C66.3318 38.2945 66.7897 38.2888 67.0194 38.196C67.2491 38.1033 66.979 38.0332 66.4193 38.04C65.8596 38.0467 65.6716 38.1226 66.0017 38.2086ZM61.9072 38.8481C61.5425 39.2516 61.5571 39.3711 61.992 39.5377C62.2814 39.6484 62.5182 39.9602 62.5182 40.2307C62.5182 40.5012 62.3655 40.6281 62.1789 40.513C61.9924 40.3979 61.8397 40.4653 61.8397 40.6623C61.8397 40.8593 62.0687 41.0208 62.3485 41.0208C62.6284 41.0208 62.8574 40.7923 62.8574 40.513C62.8574 40.2337 63.0677 40.0052 63.3248 40.0052C63.5816 40.0052 63.9819 39.7767 64.2143 39.4974C64.4806 39.1771 64.5033 38.9896 64.2757 38.9896C64.0776 38.9896 63.8079 39.1626 63.677 39.3742C63.5165 39.6335 63.2611 39.5309 62.8937 39.0593C62.4232 38.4557 62.2882 38.4266 61.9072 38.8481ZM58.8837 40.5976C58.0587 41.4342 58.2975 41.6217 59.2772 40.9067C59.6184 40.6576 59.8386 40.315 59.7663 40.145C59.6937 39.9751 59.2968 40.1789 58.8837 40.5976ZM30.6306 41.3594C30.6306 41.5456 30.9451 41.6979 31.3291 41.6979C31.7131 41.6979 31.9333 41.5456 31.8179 41.3594C31.7026 41.1732 31.3885 41.0208 31.1194 41.0208C30.8504 41.0208 30.6306 41.1732 30.6306 41.3594ZM49.6376 41.3895C49.6322 41.6857 50.0162 42.1045 50.4915 42.3205C51.5455 42.7999 51.6628 42.8053 51.6628 42.375C51.6628 42.1888 51.365 42.0364 51.0013 42.0364C50.6373 42.0364 50.1841 41.77 49.9938 41.444C49.6997 40.9396 49.6465 40.9318 49.6376 41.3895ZM35.0406 42.0364C35.0406 42.2226 35.5077 42.375 36.0783 42.375C36.6838 42.375 37.0288 42.2338 36.9064 42.0364C36.791 41.8502 36.3242 41.6979 35.8687 41.6979C35.4131 41.6979 35.0406 41.8502 35.0406 42.0364ZM59.6147 42.2335C59.0855 42.6634 59.0689 42.7338 59.5285 42.5906C59.8847 42.4799 60.1585 42.6296 60.2524 42.9861C60.34 43.3168 60.4207 43.1655 60.4434 42.6289C60.4896 41.5401 60.4757 41.5334 59.6147 42.2335ZM30.1218 42.375C30.2371 42.5612 30.6367 42.7135 31.0099 42.7135C31.383 42.7135 31.594 42.5612 31.4787 42.375C31.3633 42.1888 30.9637 42.0364 30.5906 42.0364C30.2174 42.0364 30.0064 42.1888 30.1218 42.375ZM40.4683 42.4366C40.4683 42.8696 42.1861 43.1658 42.5559 42.7968C42.7859 42.5673 42.4992 42.4092 41.683 42.314C41.0151 42.2362 40.4683 42.2914 40.4683 42.4366ZM60.8756 43.0521C60.8756 43.5176 60.9526 43.7082 61.0466 43.4752C61.1409 43.2427 61.1409 42.8618 61.0466 42.6289C60.9526 42.3963 60.8756 42.5866 60.8756 43.0521ZM29.4433 43.7292C29.5586 43.9153 30.0346 44.0677 30.501 44.0677C30.98 44.0677 31.2578 43.9204 31.1395 43.7292C31.0241 43.543 30.5482 43.3906 30.0817 43.3906C29.6027 43.3906 29.3249 43.5379 29.4433 43.7292ZM34.3621 43.7292C34.3621 43.9153 34.8201 44.0677 35.3798 44.0677C35.9396 44.0677 36.3975 43.9153 36.3975 43.7292C36.3975 43.543 35.9396 43.3906 35.3798 43.3906C34.8201 43.3906 34.3621 43.543 34.3621 43.7292ZM40.129 43.7227C40.129 43.9123 40.6124 44.0677 41.2034 44.0677C42.4385 44.0677 42.3937 43.9198 41.0619 43.6012C40.508 43.4685 40.129 43.5179 40.129 43.7227ZM28.9345 44.7448C28.9345 44.931 29.4779 45.0833 30.1418 45.0833C30.8603 45.0833 31.2643 44.9462 31.1395 44.7448C31.0241 44.5586 30.481 44.4062 29.9321 44.4062C29.3833 44.4062 28.9345 44.5586 28.9345 44.7448ZM39.7898 44.6659C39.7898 45.1267 41.5765 45.4462 41.9778 45.0573C42.179 44.8622 42.1156 44.7431 41.8082 44.74C41.5378 44.7377 40.9727 44.6436 40.5531 44.5315C40.1334 44.4191 39.7898 44.4797 39.7898 44.6659ZM51.4464 44.914C51.6808 45.5238 51.2781 45.5796 50.713 45.0156C49.9646 44.2688 50.2951 45.1456 51.0692 45.9608C51.8406 46.773 52.6805 47.0364 52.6805 46.4656C52.6805 46.295 52.4899 46.0664 52.2565 45.9578C51.92 45.801 51.9193 45.7198 52.2534 45.564C52.5784 45.4124 52.5645 45.2577 52.193 44.887C51.5648 44.26 51.1998 44.2732 51.4464 44.914ZM34.1925 45.0833C34.3079 45.2695 34.851 45.4219 35.3998 45.4219C35.9487 45.4219 36.3975 45.2695 36.3975 45.0833C36.3975 44.8971 35.8541 44.7448 35.1902 44.7448C34.4717 44.7448 34.0677 44.8819 34.1925 45.0833ZM54.3767 45.0231C54.3767 45.234 54.7661 45.6609 55.242 45.9723C55.8937 46.3982 56.2038 46.4422 56.4972 46.1494C56.7906 45.8566 56.7302 45.7604 56.2523 45.7604C55.9032 45.7604 55.3384 45.5082 54.9971 45.2001C54.6399 44.8775 54.3767 44.8023 54.3767 45.0231ZM28.5952 45.7177C28.5952 46.257 30.2727 46.5915 30.7232 46.1419C31.0068 45.8589 30.92 45.7604 30.387 45.7604C29.9918 45.7604 29.427 45.668 29.1319 45.5549C28.8368 45.4418 28.5952 45.5153 28.5952 45.7177ZM39.9594 46.0989C40.0748 46.2851 40.5415 46.4375 40.9971 46.4375C41.4527 46.4375 41.8252 46.2851 41.8252 46.0989C41.8252 45.9127 41.3581 45.7604 40.7875 45.7604C40.182 45.7604 39.837 45.9016 39.9594 46.0989ZM34.1803 46.4571C34.0891 46.6044 34.2838 46.7946 34.6125 46.8803C35.1773 47.0276 35.1773 47.0381 34.6166 47.0753C33.589 47.1433 33.973 47.7917 35.0406 47.7917C35.6003 47.7917 36.0583 47.6393 36.0583 47.4531C36.0583 47.2669 35.8676 47.1122 35.6342 47.1095C35.3188 47.1054 35.3266 47.0306 35.6655 46.8163C35.9972 46.6064 35.8802 46.4825 35.2333 46.3589C34.7451 46.2658 34.2712 46.3102 34.1803 46.4571ZM28.5952 47.0387C28.5952 47.5161 30.0458 47.8336 30.4383 47.4419C30.6496 47.231 30.5709 47.1146 30.2174 47.1146C29.9155 47.1146 29.427 47.0221 29.1319 46.9091C28.8368 46.796 28.5952 46.8546 28.5952 47.0387ZM40.129 47.4531C40.129 47.6393 40.587 47.7917 41.1467 47.7917C41.7064 47.7917 42.1644 47.6393 42.1644 47.4531C42.1644 47.2669 41.7064 47.1146 41.1467 47.1146C40.587 47.1146 40.129 47.2669 40.129 47.4531ZM66.5889 47.7717C66.5889 47.947 66.7399 48.1833 66.9244 48.2971C67.1164 48.4156 67.1734 48.2798 67.0577 47.9785C66.8321 47.3922 66.5889 47.2849 66.5889 47.7717ZM34.0229 48.8008C34.0229 48.9904 34.5063 49.1458 35.0972 49.1458C36.3324 49.1458 36.2876 48.9979 34.9558 48.6793C34.4018 48.5466 34.0229 48.596 34.0229 48.8008ZM40.2986 48.8073C40.414 48.9935 40.8044 49.1458 41.1667 49.1458C41.529 49.1458 41.8252 48.9935 41.8252 48.8073C41.8252 48.6211 41.4344 48.4687 40.9571 48.4687C40.4649 48.4687 40.1796 48.6153 40.2986 48.8073ZM65.232 49.1658C65.232 49.549 65.3846 49.7687 65.5712 49.6536C65.7578 49.5385 65.9105 49.225 65.9105 48.9566C65.9105 48.6881 65.7578 48.4687 65.5712 48.4687C65.3846 48.4687 65.232 48.7826 65.232 49.1658ZM34.3621 50.1973C34.3621 50.6263 35.7645 50.9286 36.118 50.5758C36.3327 50.3615 36.083 50.1923 35.4053 50.0931C34.8316 50.0091 34.3621 50.0558 34.3621 50.1973ZM68.2851 50.3307C68.2851 50.61 68.433 50.8385 68.6138 50.8385C68.7942 50.8385 68.8543 50.61 68.7471 50.3307C68.6396 50.0514 68.4917 49.8229 68.4184 49.8229C68.3451 49.8229 68.2851 50.0514 68.2851 50.3307ZM66.6425 51.1771C66.6425 51.6426 66.7195 51.8332 66.8135 51.6003C66.9078 51.3677 66.9078 50.9868 66.8135 50.7539C66.7195 50.5213 66.6425 50.7116 66.6425 51.1771ZM67.321 51.5156C67.321 51.9811 67.398 52.1717 67.4919 51.9388C67.5862 51.7062 67.5862 51.3254 67.4919 51.0924C67.398 50.8599 67.321 51.0501 67.321 51.5156ZM34.9727 51.5833C35.2892 51.8992 35.4704 51.8992 35.7869 51.5833C36.1034 51.2675 36.0132 51.1771 35.3798 51.1771C34.7465 51.1771 34.6562 51.2675 34.9727 51.5833ZM65.2588 52.3901C65.2751 52.7845 65.3555 52.8647 65.4637 52.5949C65.5617 52.3505 65.5495 52.0583 65.4369 51.9459C65.3243 51.8335 65.2442 52.0332 65.2588 52.3901ZM64.9196 54.7599C64.9358 55.1543 65.0162 55.2345 65.1245 54.9647C65.2225 54.7202 65.2103 54.4281 65.0977 54.3157C64.985 54.2033 64.905 54.403 64.9196 54.7599ZM67.6066 56.348C67.6066 56.8338 67.7654 57.3287 67.9594 57.4486C68.1908 57.5911 68.2328 57.3358 68.0812 56.7068C67.7691 55.4095 67.6066 55.287 67.6066 56.348ZM65.9766 56.763C65.9834 57.3216 66.0594 57.5092 66.1455 57.1798C66.2317 56.8504 66.2259 56.3933 66.133 56.1641C66.04 55.9349 65.9698 56.2044 65.9766 56.763ZM70.3204 57.5694C70.3204 57.7556 70.4731 58.0021 70.6597 58.1172C70.8462 58.2323 70.9989 58.174 70.9989 57.9879C70.9989 57.8017 70.8462 57.5552 70.6597 57.4401C70.4731 57.325 70.3204 57.3832 70.3204 57.5694ZM68.8665 59.3075C69.1291 60.3089 69.5714 60.4403 69.3838 59.4612C69.2956 59.0011 69.1029 58.625 68.9557 58.625C68.8085 58.625 68.7681 58.932 68.8665 59.3075ZM64.2143 59.6406C64.2143 60.013 64.3527 60.3177 64.5217 60.3177C64.6909 60.3177 64.7493 60.013 64.6519 59.6406C64.5542 59.2682 64.4158 58.9635 64.3442 58.9635C64.273 58.9635 64.2143 59.2682 64.2143 59.6406ZM27.4992 61.3184C27.2648 62.1516 27.4049 62.634 27.7746 62.2653C27.8829 62.157 27.9181 61.7128 27.8523 61.2778L27.7333 60.487L27.4992 61.3184ZM28.5104 60.8495C28.3703 60.9914 28.256 61.5696 28.256 62.1347C28.256 62.869 28.3602 63.0575 28.6217 62.7965C28.8229 62.5957 28.9375 62.0175 28.8761 61.5114C28.8151 61.0053 28.6505 60.7074 28.5104 60.8495ZM29.2846 62.115C29.2781 62.6648 29.4168 62.9776 29.6129 62.8568C29.7995 62.7417 29.9522 62.809 29.9522 63.0061C29.9522 63.2031 30.1048 63.3646 30.2914 63.3646C30.478 63.3646 30.613 62.8693 30.5913 62.2643C30.5692 61.6455 30.482 61.4339 30.3921 61.7809C30.2374 62.3774 30.2171 62.3774 29.7639 61.7809C29.3293 61.2091 29.2944 61.2335 29.2846 62.115ZM31.3328 61.5872C31.346 61.7267 31.4878 62.1458 31.6483 62.5182C31.9068 63.1181 31.9424 63.0893 31.9638 62.2643C31.9767 61.7524 31.8349 61.3333 31.6483 61.3333C31.4617 61.3333 31.3199 61.4478 31.3328 61.5872ZM66.421 61.6692C66.3067 61.854 66.3691 62.2728 66.5601 62.6002C66.8583 63.1107 66.9091 63.0629 66.918 62.2643C66.9285 61.2907 66.7718 61.1028 66.421 61.6692ZM67.6066 61.6319C67.6066 61.8181 67.7593 62.0646 67.9458 62.1797C68.1324 62.2948 68.2851 62.2366 68.2851 62.0504C68.2851 61.8642 68.1324 61.6177 67.9458 61.5026C67.7593 61.3875 67.6066 61.4457 67.6066 61.6319ZM70.6597 64.0417C70.6597 64.4141 70.8123 64.7187 70.9989 64.7187C71.1855 64.7187 71.3381 64.4141 71.3381 64.0417C71.3381 63.6693 71.1855 63.3646 70.9989 63.3646C70.8123 63.3646 70.6597 63.6693 70.6597 64.0417ZM65.232 64.0217C65.232 64.1971 65.383 64.4333 65.5675 64.5471C65.7595 64.6656 65.8165 64.5298 65.7008 64.2285C65.4752 63.6422 65.232 63.5349 65.232 64.0217ZM67.9458 64.0017C67.9458 64.1879 68.0985 64.4344 68.2851 64.5495C68.4716 64.6646 68.6243 64.6063 68.6243 64.4201C68.6243 64.2339 68.4716 63.9875 68.2851 63.8724C68.0985 63.7573 67.9458 63.8155 67.9458 64.0017ZM35.8039 65.9815C36.1305 66.0753 36.4002 66.2483 36.4033 66.3664C36.4297 67.3296 37.6364 71.9818 38.6374 74.9796C40.4286 80.3445 39.6039 80.3773 37.0576 75.0426C35.8483 72.5086 34.0229 66.967 34.0229 65.8295C34.0229 65.4801 34.2068 65.3989 34.6166 65.5671C34.9432 65.7015 35.4772 65.8877 35.8039 65.9815ZM28.256 66.77C28.256 67.1532 28.4087 67.3729 28.5952 67.2578C28.7818 67.1427 28.9345 66.8292 28.9345 66.5607C28.9345 66.2923 28.7818 66.0729 28.5952 66.0729C28.4087 66.0729 28.256 66.3867 28.256 66.77ZM30.1957 66.9802C29.9613 68.1983 30.1279 68.3648 30.6347 67.4196C30.8898 66.944 30.9156 66.5604 30.7063 66.3515C30.497 66.1426 30.3134 66.3685 30.1957 66.9802ZM70.0877 68.6651C69.4785 71.885 68.1334 76.1896 67.458 77.0816C66.7836 77.9716 66.8026 77.4733 67.5757 73.9403C67.9319 72.3133 68.3309 69.9915 68.4625 68.7812C68.7484 66.1498 68.7861 66.0729 69.7909 66.0729H70.5782L70.0877 68.6651ZM29.1404 66.947C28.8449 67.7155 28.8866 68.1736 29.2326 67.9603C29.6353 67.7118 29.9583 66.4115 29.6173 66.4115C29.4684 66.4115 29.2537 66.6525 29.1404 66.947Z" fill="black"/>
</svg>
