<svg width="101" height="100" viewBox="0 0 101 100" fill="none" xmlns="http://www.w3.org/2000/svg">
<circle cx="50.5" cy="50" r="50" fill="white"/>
<path fill-rule="evenodd" clip-rule="evenodd" d="M50.2376 17.913C48.2154 19.0172 44.5076 22.5488 42.5817 25.2047C40.7741 27.6974 38.8433 31.7813 38.1583 34.5612L37.6047 36.8084L36.4646 36.8093L35.3245 36.8106L35.4942 38.6711L35.6639 40.5316H32.1531H28.6421L28.7672 43.6278C28.8377 45.3655 29.0485 46.879 29.2485 47.0778C29.5049 47.3327 30.265 47.351 31.9688 47.1426C33.2692 46.9839 34.2271 46.9504 34.0974 47.0685C33.9676 47.187 33.0193 48.0081 31.99 48.8937C30.9606 49.779 30.0149 50.6863 29.8882 50.9099C29.7301 51.1886 30.2884 51.7248 31.6647 52.6163C34.3884 54.3803 34.5057 54.5583 33.3818 55.2182C32.2143 55.9038 32.2345 56.4021 33.515 58.5166C34.5153 60.1681 34.5877 60.2196 35.8036 60.1433L37.0594 60.0645L37.5282 61.9151C37.9927 63.7474 37.9899 63.7703 37.2737 64.237L36.5503 64.708L37.2662 66.8064C38.0548 69.1184 38.206 69.1938 40.9619 68.644C41.8206 68.4725 42.1628 68.5178 42.2371 68.812C42.3852 69.3996 43.2502 71.9172 43.5185 72.5417C43.6984 72.9601 43.3996 73.294 42.1585 74.0609C41.2838 74.6016 40.5679 75.1353 40.5679 75.2472C40.5679 75.3592 41.3493 76.3924 42.3048 77.5437L44.0412 79.6368L45.502 78.7956C46.3052 78.3326 47.5541 77.5543 48.2772 77.0653L49.5917 76.1769L51.1238 77.2709C56.5092 81.1172 69.0929 84.5393 69.5268 82.2753C69.6672 81.5414 69.3135 81.3265 66.6216 80.5113C62.1747 79.1642 60.904 78.0839 58.688 73.7663C58.1163 72.6518 58.086 72.432 58.4834 72.28C58.7866 72.1647 59.5524 72.7486 60.6666 73.9449C65.7585 79.4123 74.9013 79.3146 80.5163 73.7325C86.7994 67.4864 87.2196 54.118 81.3326 47.7436C79.8737 46.1637 77.4354 44.8805 75.8836 44.8759C73.2918 44.8681 71.3251 46.8 72.0803 48.6121C72.4561 49.5151 73.522 50.0531 76.3253 50.7557C77.6525 51.0885 78.8347 52.0048 77.9367 52.0048C77.5898 52.0048 71.8416 54.6169 71.5412 54.9112C71.4655 54.9853 73.0023 59.2341 73.162 59.3929C73.2228 59.4533 74.371 59.0133 75.7139 58.4152C78.4657 57.1891 80.6719 56.537 81.1255 56.8154C81.584 57.0973 81.4814 62.1018 80.9677 64.5121C79.7524 70.2139 76.3112 73.9405 71.3291 74.9505C67.9291 75.6395 64.0004 74.6134 61.9695 72.5064L61.0874 71.591L62.0808 71.0803L63.0743 70.5693L64.5968 71.9851C65.4341 72.7638 66.4076 73.4007 66.7604 73.4007C67.7816 73.4007 70.2034 69.181 70.5786 66.7475C70.6866 66.0464 71.6224 65.7233 73.672 65.6796C75.5408 65.6395 75.8461 65.2402 75.6084 63.1458C75.2881 60.3216 75.2603 60.3008 72.1027 60.5464L69.3709 60.7588L69.0246 59.8704C68.834 59.3817 68.5861 57.706 68.4735 56.1466L68.2685 53.3118L69.8796 53.0913C71.2034 52.9102 71.4548 52.78 71.2895 52.3604C71.117 51.9214 70.0643 48.6413 69.7015 47.4111C69.6354 47.187 69.2736 47.0474 68.8971 47.1011C68.3056 47.1854 68.1681 46.9885 67.8808 45.648C67.5739 44.216 67.4728 44.0901 66.5598 44.0021L65.5707 43.9069L65.7457 42.2231C65.916 40.5821 65.8873 40.5034 64.6165 39.1331L63.313 37.7269L64.7859 35.8239C65.5963 34.777 67.7928 32.4086 69.6675 30.5608C72.9848 27.2909 73.5834 26.2676 72.1785 26.2676C70.7658 26.2676 65.3461 30.2281 62.6797 33.2086C61.5924 34.4244 61.5453 34.444 61.3291 33.7658C61.1619 33.2424 60.9482 33.1131 60.491 33.2573C59.8964 33.4449 59.893 33.4139 60.3768 32.2625C60.6513 31.6089 61.2193 30.491 61.6395 29.7784C62.0593 29.0659 62.4028 28.4134 62.4028 28.3288C62.4028 28.2438 61.6538 28.3865 60.738 28.6454L59.0736 29.1161L58.0087 28.134C56.838 27.0543 55.3841 26.2419 53.5909 25.6655C52.2898 25.2471 52.2181 25.1026 52.879 24.2338C54.0385 22.7097 52.9196 22.9503 49.7124 24.9141C47.5988 26.2084 44.623 29.0438 44.623 29.7639C44.623 29.9443 44.5434 30.0129 44.4461 29.9161C44.2231 29.6944 45.6505 26.8655 46.9131 25.0273C47.4403 24.2598 49.1727 22.2964 50.7632 20.6638C52.9829 18.3859 53.5696 17.6107 53.2877 17.3303C52.7271 16.7731 52.1092 16.891 50.2376 17.913ZM69.4211 17.7304C69.2495 17.7834 68.3019 17.9918 67.3156 18.1933L65.522 18.5598L65.5239 19.8557C65.5248 20.5683 65.6761 21.6911 65.8605 22.3506L66.1955 23.5504L67.8066 23.3376C68.6924 23.221 71.3482 23.1305 73.7082 23.137C76.8955 23.1457 77.9941 23.0514 77.98 22.7702C77.9694 22.5618 77.7907 21.4157 77.5833 20.2228C77.2283 18.1834 77.1503 18.0423 76.2766 17.8563C75.3277 17.6544 69.9854 17.5564 69.4211 17.7304ZM75.6945 18.2054C76.5795 18.2054 76.9188 18.8147 77.1827 20.8777L77.3858 22.4644L72.4677 22.622C69.7626 22.7085 67.3237 22.8738 67.0476 22.9894C66.6375 23.1612 66.4774 22.8551 66.1733 21.3193C65.9687 20.2852 65.8748 19.3211 65.9643 19.1766C66.1059 18.9493 67.7417 18.5543 70.5128 18.078C70.9417 18.0045 72.1205 18.0029 73.1321 18.0749C74.1436 18.1465 75.2968 18.2054 75.6945 18.2054ZM49.1038 21.0046C49.252 21.1413 48.6468 22.1373 47.7588 23.2179C45.9349 25.4366 43.7249 29.7372 42.8054 32.857C42.0942 35.2688 42.3621 35.6859 43.1763 33.4347C43.6208 32.2064 43.9427 31.825 44.8756 31.4228C45.8454 31.0042 45.8869 30.9521 45.1383 31.091C44.4991 31.2098 44.287 31.1434 44.3825 30.8551C44.4555 30.6343 44.9954 30.3964 45.5828 30.3267L46.6505 30.1995L45.7518 30.0166L44.8532 29.8336L46.3064 28.228C47.6599 26.7328 51.3643 24.097 52.1126 24.097C52.3375 24.097 52.3297 24.3076 52.088 24.7566C51.7174 25.445 52.0852 25.9421 52.9729 25.9529C53.2396 25.956 53.3045 26.2121 53.1719 26.7368C52.7911 28.246 54.3339 28.9645 55.7856 27.9539C56.4278 27.5064 56.5523 27.5195 57.4085 28.1257C57.9185 28.4866 58.4528 28.9902 58.596 29.2445C58.8025 29.611 59.0336 29.6398 59.714 29.3828C61.3831 28.7517 61.5418 28.9303 60.7358 30.5313C59.6004 32.786 57.5704 39.2912 58.0021 39.2912C58.1369 39.2912 59.1438 38.1402 60.2402 36.733C61.3366 35.3262 63.1339 33.2926 64.2338 32.2142C66.6119 29.8829 70.4723 27.116 71.0431 27.3337C71.2661 27.419 71.4486 27.3533 71.4486 27.1883C71.4486 27.023 71.7481 26.8878 72.1139 26.8878C72.6271 26.8878 72.0431 27.6143 69.563 30.0628C62.5409 36.9947 60.2149 41.0246 60.2224 46.2471C60.2261 48.9696 60.995 50.7455 63.3672 53.5115C67.1618 57.9358 67.6016 58.5501 67.6016 59.4267C67.6016 59.9085 67.9058 60.6872 68.2773 61.1569C68.771 61.7812 68.9529 62.4382 68.9516 63.5973C68.9507 64.4696 69.1784 65.8166 69.4573 66.5906C69.9645 67.9968 69.9638 67.9993 68.9638 69.969L67.9628 71.9402L67.2666 70.7324C66.8836 70.0682 65.4531 67.9897 64.0878 66.1137C61.6657 62.7855 61.6161 62.681 62.0387 61.8134C62.5986 60.6642 62.8604 58.7001 62.5484 57.9888C62.4137 57.6821 62.326 57.3265 62.3532 57.1987C62.4318 56.83 61.6744 56.9469 61.0805 57.3953C60.2842 57.9962 59.5421 59.9814 59.6316 61.2698C59.6747 61.8872 59.5436 62.6975 59.3406 63.0699C58.616 64.3998 59.0474 65.4234 61.8978 69.1386L62.7612 70.2639L61.5188 70.8936C60.8356 71.2403 59.7021 71.6149 59.0003 71.7265C58.2055 71.853 57.7239 72.0946 57.7239 72.3675C57.7239 72.9449 58.786 74.9927 60.1251 76.9977C61.3709 78.8629 63.3888 80.075 67.0233 81.1417C69.3946 81.8375 69.8568 82.4691 68.1213 82.6416C66.8499 82.7681 61.2708 81.6136 58.9079 80.7351C57.4475 80.1922 56.9812 79.8691 56.9444 79.3754C56.8608 78.2452 55.9356 77.2185 54.2478 76.3825C52.3759 75.455 51.3263 75.3545 50.9267 76.0646C50.2667 77.2371 45.4524 71.2695 42.7324 65.9065C39.2379 59.0167 37.4487 51.7403 37.4487 44.4176C37.4487 34.7352 39.9525 28.0494 45.8498 21.9863C47.1427 20.6566 47.5832 20.3804 48.1421 20.5481C48.5227 20.6622 48.9553 20.8678 49.1038 21.0046ZM31.99 24.2136C29.0763 25.16 27.6068 25.9448 25.8235 27.508C23.578 29.4758 23.4626 29.846 24.7 31.1152C26.0827 32.5332 27.7999 33.0567 28.7787 32.3583C29.1724 32.0771 30.2666 31.2957 31.2102 30.6212C32.1538 29.9471 33.768 29.0869 34.7973 28.7099C35.8267 28.3328 36.7278 27.9775 36.8002 27.9201C36.8722 27.8627 36.6367 27.5021 36.2765 27.1191C35.9162 26.7362 35.4545 25.7597 35.2506 24.9498C35.0462 24.1398 34.7203 23.4831 34.5263 23.4908C34.3322 23.4983 33.1909 23.8235 31.99 24.2136ZM34.6482 24.6397C34.652 24.938 34.9152 25.752 35.2334 26.4481L35.8114 27.7136L33.9008 28.5446C32.85 29.002 31.1478 30.0104 30.1184 30.7862C28.5226 31.9887 28.0903 32.1729 27.1845 32.0346C26.1005 31.869 24.3478 30.4898 24.3478 29.802C24.3478 29.2249 27.1099 26.925 28.8707 26.0354C30.6974 25.1126 33.3175 24.1519 34.0955 24.1197C34.4137 24.1063 34.6442 24.3234 34.6482 24.6397ZM47.4303 27.7641C47.4303 28.2646 49.7108 29.9887 50.373 29.9887C50.888 29.9887 50.4373 28.7055 49.7276 28.1508C48.9166 27.5167 47.4303 27.2664 47.4303 27.7641ZM48.95 28.0971C49.1852 28.2454 49.3221 28.5328 49.2538 28.7362C49.174 28.975 48.9226 28.8779 48.5436 28.4621C47.9481 27.8078 48.1718 27.6069 48.95 28.0971ZM70.2009 28.1282C70.2009 28.2987 70.403 28.4382 70.6504 28.4382C70.8977 28.4382 71.1866 28.2987 71.2926 28.1282C71.3987 27.9576 71.1963 27.8181 70.8432 27.8181C70.4901 27.8181 70.2009 27.9576 70.2009 28.1282ZM50.0817 29.0584C50.1877 29.229 50.1257 29.3685 49.9441 29.3685C49.7626 29.3685 49.6138 29.229 49.6138 29.0584C49.6138 28.8879 49.6756 28.7483 49.7514 28.7483C49.8272 28.7483 49.9756 28.8879 50.0817 29.0584ZM52.2143 30.7837C51.7009 32.114 53.2689 33.3996 55.4047 33.3996C56.8757 33.3996 57.0052 32.1952 55.663 30.9965C54.7144 30.1493 52.5116 30.0135 52.2143 30.7837ZM48.1112 31.0715C48.1699 31.4113 48.6372 31.8876 49.1497 32.1298C49.6625 32.3723 50.2651 32.8266 50.4894 33.1401C50.7554 33.5119 51.2427 33.6936 51.893 33.6632C52.8029 33.6207 52.817 33.6058 52.054 33.4898C50.9701 33.3249 50.2532 32.5329 50.854 32.1639C51.1974 31.9528 51.1797 31.811 50.7561 31.3899C50.2969 30.9335 50.2376 30.9301 50.2376 31.362C50.2376 32.0914 49.101 31.9528 48.5149 31.1515C48.0464 30.5112 48.0133 30.5043 48.1112 31.0715ZM54.4352 31.5177C54.7478 32.0204 54.0687 32.1732 53.666 31.6907C53.3525 31.3152 53.3716 31.229 53.7683 31.229C54.0363 31.229 54.3367 31.3589 54.4352 31.5177ZM76.1802 32.318C75.5348 33.1336 73.944 37.6602 73.944 38.6804C73.944 39.054 74.1015 39.2116 74.3717 39.1086C74.6069 39.019 74.8832 39.1629 74.9858 39.4286C75.2385 40.0838 78.6903 40.1102 79.3425 39.4618C79.5911 39.2147 79.8959 38.0723 80.0197 36.9231C80.1435 35.7739 80.4464 34.528 80.6928 34.1541C81.1008 33.5351 81.0675 33.3869 80.3223 32.5066C79.637 31.6972 79.2823 31.5391 78.15 31.5391C77.0761 31.5391 76.6693 31.7 76.1802 32.318ZM45.0781 32.18C44.7425 32.7199 45.1246 32.8343 45.5525 32.3218C45.7986 32.0272 45.8223 31.8492 45.6152 31.8492C45.4331 31.8492 45.191 31.998 45.0781 32.18ZM55.3844 32.1593C55.4905 32.3298 55.4284 32.4694 55.2469 32.4694C55.0653 32.4694 54.9165 32.3298 54.9165 32.1593C54.9165 31.9887 54.9783 31.8492 55.0541 31.8492C55.1299 31.8492 55.2784 31.9887 55.3844 32.1593ZM79.7234 32.5531C80.4442 33.1695 80.5026 33.3525 80.1934 34.0272C79.8665 34.7404 79.6791 34.7975 77.6725 34.7962C76.48 34.7956 75.5043 34.7556 75.504 34.7076C75.504 34.6595 75.7011 34.1503 75.9422 33.5764C76.7021 31.7689 78.3004 31.3363 79.7234 32.5531ZM60.9704 34.2124C61.0924 34.528 60.7324 35.2784 60.004 36.2279C59.3655 37.0602 58.8097 37.7408 58.7682 37.7408C58.727 37.7408 58.9104 37.0084 59.1762 36.1129C59.854 33.8282 60.5412 33.1004 60.9704 34.2124ZM54.7606 34.64C54.8666 34.8105 55.0937 34.95 55.2653 34.95C55.4368 34.95 55.4905 34.8105 55.3844 34.64C55.2784 34.4694 55.0513 34.3299 54.8797 34.3299C54.7082 34.3299 54.6545 34.4694 54.7606 34.64ZM52.743 35.1234C52.7374 35.3039 52.9392 35.7225 53.191 36.0536C53.443 36.3845 53.6535 36.5079 53.6589 36.3271C53.6645 36.1467 53.4627 35.7281 53.2109 35.3969C52.9589 35.066 52.7483 34.9426 52.743 35.1234ZM54.1386 35.5721C54.4499 35.9144 54.7724 36.1268 54.8551 36.0446C55.0647 35.8363 54.2868 34.95 53.8944 34.95C53.7172 34.95 53.827 35.2301 54.1386 35.5721ZM79.1919 35.5299C79.4355 35.6834 79.5634 36.2 79.5038 36.7885L79.4027 37.787L76.9706 37.8413L74.5389 37.8959L74.7226 37.1206C75.0018 35.9426 76.0199 35.2595 77.4878 35.2648C78.1977 35.2676 78.9648 35.3866 79.1919 35.5299ZM37.3317 38.0897C37.2244 38.6227 37.1368 39.3902 37.1368 39.7951C37.1368 40.2429 36.9534 40.5316 36.6689 40.5316C36.3844 40.5316 36.201 40.2429 36.201 39.7951C36.201 39.3902 36.1133 38.6227 36.006 38.0897C35.8254 37.1923 35.8744 37.1206 36.6689 37.1206C37.4634 37.1206 37.5123 37.1923 37.3317 38.0897ZM65.2784 42.1763C65.1967 43.0625 65.0919 43.8318 65.0451 43.8858C64.9821 43.959 60.9058 44.8728 60.6426 44.8728C60.6176 44.8728 60.723 44.3171 60.8765 43.6377C61.2178 42.1285 62.0428 40.0041 62.6613 39.0416L63.1208 38.3266L64.274 39.446C65.3698 40.5096 65.4197 40.6457 65.2784 42.1763ZM76.2685 38.7985C75.6565 39.2435 75.1917 39.1805 75.1917 38.6528C75.1917 38.4922 75.5695 38.361 76.0311 38.361C76.8303 38.361 76.8418 38.3821 76.2685 38.7985ZM78.7917 38.6918C79.0799 39.1551 78.8693 39.2906 77.5212 39.508C76.6456 39.6491 76.402 39.6023 76.5745 39.3247C76.7021 39.1195 77.0399 38.9743 77.325 39.0019C78.2464 39.0919 78.4775 38.9784 77.9991 38.6711C77.5957 38.4122 77.6041 38.37 78.0586 38.3656C78.3487 38.3632 78.6787 38.5098 78.7917 38.6918ZM36.8248 43.2752V45.3987L35.6551 45.892C35.0119 46.1631 33.6432 46.4716 32.6138 46.5776C31.5845 46.6834 30.5096 46.8369 30.2248 46.9187C29.818 47.0353 29.6346 46.7296 29.367 45.4895C29.1798 44.6219 29.0267 43.291 29.0267 42.5319V41.1518H32.9258H36.8248V43.2752ZM47.1792 43.4774C47.1855 43.989 47.2553 44.1608 47.3346 43.8591C47.4138 43.5574 47.4085 43.1388 47.323 42.9289C47.2375 42.7189 47.173 42.9658 47.1792 43.4774ZM49.0146 43.1931C49.0296 43.5543 49.1035 43.6278 49.203 43.3807C49.2931 43.1568 49.2819 42.8892 49.1783 42.7862C49.0748 42.6833 49.0012 42.8662 49.0146 43.1931ZM18.0391 45.0461C16.7253 45.7547 15.9851 47.7349 16.918 48.044C17.1208 48.1113 17.7325 49.2044 18.2774 50.4729L19.2681 52.78L21.0635 52.7707C22.6612 52.762 22.946 52.66 23.6553 51.8404C24.0936 51.3337 24.4988 50.9542 24.5559 50.997C25.3684 51.6035 24.1086 49.2537 22.2145 46.63C20.7513 44.603 19.6412 44.1819 18.0391 45.0461ZM67.1783 44.7953C67.2516 44.923 67.4057 45.5463 67.5208 46.1801L67.7298 47.3324L65.8926 48.2543C64.8819 48.7613 63.6162 49.5436 63.0793 49.9926C62.5428 50.4416 61.9639 50.7232 61.7933 50.6184C61.3896 50.37 60.5312 47.4874 60.5312 46.3789C60.5312 45.643 60.7024 45.4728 61.7009 45.2154C64.1053 44.5959 66.9391 44.3785 67.1783 44.7953ZM20.6219 45.5023C20.9522 45.6778 21.4188 46.2009 21.6593 46.6651C22.0907 47.497 22.0829 47.5091 21.0704 47.5619C20.5058 47.591 19.6424 47.8217 19.1511 48.0741C18.3386 48.4918 18.1935 48.4813 17.5441 47.9585C16.8678 47.4143 16.8553 47.3349 17.307 46.4663C17.9695 45.1925 19.3083 44.8033 20.6219 45.5023ZM50.5496 46.1131C50.5496 46.2837 50.6984 46.4232 50.8799 46.4232C51.0614 46.4232 51.1235 46.2837 51.0175 46.1131C50.9114 45.9426 50.7629 45.803 50.6871 45.803C50.6113 45.803 50.5496 45.9426 50.5496 46.1131ZM36.9325 47.586C37.0357 48.396 37.1951 49.966 37.2862 51.0745C37.4493 53.0569 37.4353 53.1034 36.4334 53.9084L35.4146 54.727L33.0786 53.0296C31.7935 52.0962 30.7014 51.2227 30.6518 51.0885C30.4931 50.6612 35.8572 46.1131 36.5195 46.1131C36.6433 46.1131 36.8292 46.7761 36.9325 47.586ZM69.3818 48.0512C69.495 48.5045 70.5244 51.6711 70.7424 52.2373C70.8416 52.495 70.5733 52.6249 69.9426 52.6249C68.5864 52.6249 67.3827 53.1443 66.2731 54.2076L65.3087 55.1323L63.8557 53.4414C63.0566 52.5118 62.4028 51.6057 62.4028 51.4283C62.4028 50.9294 64.2225 49.6676 66.4578 48.6171C68.6787 47.573 69.2352 47.4654 69.3818 48.0512ZM22.4934 48.293C22.8237 48.4685 23.2985 49.0059 23.549 49.4872C23.986 50.3278 23.9766 50.357 23.311 50.2305C22.7071 50.1157 21.3546 50.4745 19.6281 51.2069C19.2472 51.3685 19.0326 51.175 18.774 50.4376C18.3607 49.2593 18.5036 48.9743 19.7843 48.4202C20.9721 47.9064 21.7024 47.8719 22.4934 48.293ZM46.6171 50.0146C46.7213 50.2844 46.8065 50.6333 46.8065 50.7898C46.8065 50.9464 46.9275 51.0745 47.075 51.0745C47.2229 51.0745 47.2768 50.7257 47.1948 50.2993C47.1128 49.8729 46.9066 49.5241 46.7366 49.5241C46.5669 49.5241 46.5129 49.7449 46.6171 50.0146ZM23.412 51.2004C23.412 51.4838 23.1937 51.5799 22.7882 51.4745C22.4451 51.3852 22.1643 51.1889 22.1643 51.0382C22.1643 50.8878 22.4451 50.7644 22.7882 50.7644C23.1313 50.7644 23.412 50.9607 23.412 51.2004ZM48.834 51.0745C48.94 51.2451 49.0885 51.3846 49.1643 51.3846C49.2401 51.3846 49.3019 51.2451 49.3019 51.0745C49.3019 50.904 49.1531 50.7644 48.9715 50.7644C48.79 50.7644 48.7279 50.904 48.834 51.0745ZM21.3065 51.3942C20.2725 51.8076 20.4534 52.2221 21.6185 52.1093L22.6322 52.011L21.6964 52.313C21.1818 52.4792 20.4871 52.5294 20.153 52.4246C19.5703 52.242 19.575 52.21 20.2656 51.6544C20.6618 51.3353 21.2158 51.0835 21.4971 51.094C21.8477 51.1077 21.7878 51.202 21.3065 51.3942ZM84.7407 56.1171C85.6896 60.7724 84.688 66.8935 82.3429 70.7715C79.4501 75.5548 73.7469 78.2588 68.3347 77.4129C65.6359 76.9912 62.7531 75.6206 61.1834 74.0131C59.0798 71.858 59.6466 70.9836 61.8588 72.9706C64.0032 74.8962 65.5445 75.4162 69.1092 75.4162C71.8407 75.4162 72.4502 75.313 74.012 74.5852C79.0378 72.2434 81.7481 67.1509 81.8208 59.912C81.8476 57.2564 81.7381 56.5342 81.0578 54.8839L80.2636 52.9564L81.3173 52.6107C81.8966 52.4206 82.5326 51.9645 82.7303 51.5973C83.0719 50.9629 83.1187 50.9964 83.6574 52.2569C83.9693 52.9871 84.4569 54.7242 84.7407 56.1171ZM79.3372 52.8631C79.6117 53.1645 80.1173 54.0352 80.4608 54.798L81.0852 56.1844L79.4642 56.5519C78.5727 56.754 76.8827 57.3485 75.7086 57.8731C74.5345 58.3975 73.5301 58.8266 73.4764 58.8266C73.4228 58.8266 73.1698 58.2338 72.9147 57.5088C72.6592 56.7838 72.3538 55.9562 72.2362 55.669C72.0637 55.2492 72.5294 54.9087 74.6206 53.9267C78.5668 52.073 78.6092 52.0634 79.3372 52.8631ZM38.4041 56.0312C38.7497 57.2713 38.9494 58.3687 38.8474 58.4697C38.7457 58.5711 37.8302 58.9535 36.8133 59.3194L34.9642 59.9851L34.2218 58.7082C32.6388 55.9856 32.6581 56.1091 33.7283 55.559C34.2614 55.2849 34.8787 55.1298 35.1002 55.2142C35.3214 55.2988 35.9755 54.9735 36.5535 54.4917C37.1318 54.0098 37.643 53.6519 37.6901 53.6963C37.7372 53.7406 38.0585 54.7915 38.4041 56.0312ZM50.2376 53.8287C50.2376 53.9992 50.378 54.225 50.5496 54.3304C50.7211 54.4358 50.8615 54.3825 50.8615 54.212C50.8615 54.0414 50.7211 53.8157 50.5496 53.7102C50.378 53.6048 50.2376 53.6581 50.2376 53.8287ZM67.888 54.2876C67.9778 54.5199 68.0084 55.4824 67.9563 56.4263L67.8615 58.1426L66.8031 56.7686L65.745 55.3949L66.4678 54.63C67.2856 53.7645 67.6522 53.6761 67.888 54.2876ZM45.5834 54.9763C45.5984 55.3376 45.6723 55.4111 45.7718 55.1639C45.862 54.94 45.8507 54.6724 45.7472 54.5695C45.6436 54.4665 45.57 54.6495 45.5834 54.9763ZM47.4877 56.1922C47.6833 56.6195 47.9038 56.9088 47.9774 56.8359C48.1977 56.6167 47.7229 55.4157 47.416 55.4157C47.2597 55.4157 47.2918 55.7652 47.4877 56.1922ZM54.2927 55.8808C54.2927 56.1367 54.4287 56.346 54.5949 56.346C54.7609 56.346 54.8161 56.1367 54.7175 55.8808C54.6186 55.625 54.4827 55.4157 54.4153 55.4157C54.3479 55.4157 54.2927 55.625 54.2927 55.8808ZM49.6238 56.2092C49.6182 56.3897 49.82 56.8083 50.0717 57.1395C50.3237 57.4703 50.5343 57.5937 50.5396 57.413C50.5452 57.2325 50.3434 56.8139 50.0917 56.4827C49.8396 56.1518 49.6291 56.0284 49.6238 56.2092ZM53.045 58.3615C53.045 58.6173 53.181 58.8266 53.3472 58.8266C53.5132 58.8266 53.5684 58.6173 53.4698 58.3615C53.3709 58.1057 53.2349 57.8964 53.1676 57.8964C53.1002 57.8964 53.045 58.1057 53.045 58.3615ZM20.3402 61.0748C19.9543 62.3114 19.5769 63.4624 19.5017 63.633C19.4262 63.8035 20.45 64.3477 21.7772 64.8423L24.1897 65.7419L23.0901 66.1205C22.4853 66.3286 21.2501 66.8718 20.3452 67.3277C18.935 68.0381 18.7282 68.2542 18.8969 68.8406C19.2095 69.9246 20.6824 71.8661 21.605 72.4103C22.3886 72.872 22.5352 72.8667 23.6326 72.3383C25.5051 71.4366 27.7709 70.9277 29.9294 70.9237L31.9236 70.92L31.7192 68.733C31.5252 66.6582 31.562 66.478 32.4367 65.2138L33.359 63.8814L30.6468 62.8596C29.1552 62.2978 26.4767 61.1604 24.6944 60.3324C22.912 59.5042 21.3608 58.8266 21.2476 58.8266C21.1343 58.8266 20.726 59.8382 20.3402 61.0748ZM39.9216 60.854C40.7167 62.9666 40.7211 63.1679 39.9697 63.1679C39.6406 63.1679 39.1577 63.2494 38.897 63.3489C38.5435 63.4835 38.3336 63.1874 38.0732 62.1861C37.8807 61.4469 37.6518 60.5972 37.5644 60.2974C37.4571 59.9302 37.6408 59.6589 38.129 59.4645C39.2338 59.0239 39.2326 59.0229 39.9216 60.854ZM23.617 60.4168C24.7911 60.9501 27.1714 61.9619 28.9066 62.6649C30.6422 63.3679 32.116 64.0383 32.1818 64.1545C32.3334 64.4215 30.5345 67.5091 30.2273 67.5091C30.1019 67.5091 27.7781 66.6352 25.0627 65.567L20.1262 63.6249L20.7554 61.5377C21.1013 60.3898 21.4067 59.4499 21.4335 59.4487C21.4603 59.4478 22.4429 59.8831 23.617 60.4168ZM55.5404 60.067C55.5404 60.2375 55.6892 60.3771 55.8707 60.3771C56.0523 60.3771 56.1143 60.2375 56.0083 60.067C55.9022 59.8964 55.7537 59.7569 55.6779 59.7569C55.6021 59.7569 55.5404 59.8964 55.5404 60.067ZM49.3019 60.3405C49.3019 60.511 49.4422 60.7368 49.6138 60.8422C49.7854 60.9476 49.9257 60.8943 49.9257 60.7238C49.9257 60.5532 49.7854 60.3275 49.6138 60.222C49.4422 60.1166 49.3019 60.1699 49.3019 60.3405ZM52.4211 60.9607C52.4211 61.1312 52.5615 61.357 52.7331 61.4624C52.9046 61.5678 53.045 61.5145 53.045 61.3439C53.045 61.1734 52.9046 60.9476 52.7331 60.8422C52.5615 60.7368 52.4211 60.7901 52.4211 60.9607ZM74.9915 62.1601C75.3842 64.5214 75.2772 64.9338 74.2169 65.1446C73.6807 65.2513 72.6982 65.3385 72.0335 65.3385C70.9919 65.3385 70.8229 65.242 70.811 64.6408C70.8035 64.2569 70.5989 63.3896 70.3566 62.7126C69.8001 61.1594 70.01 61.0084 72.7334 61.0019L74.7981 60.9972L74.9915 62.1601ZM54.6046 62.5477C54.6046 62.7182 54.7534 62.8578 54.9349 62.8578C55.1165 62.8578 55.1786 62.7182 55.0725 62.5477C54.9664 62.3771 54.818 62.2376 54.7422 62.2376C54.6664 62.2376 54.6046 62.3771 54.6046 62.5477ZM64.1995 67.03C67.1715 71.1439 67.7317 72.2583 67.1284 72.858C66.6035 73.3799 64.9468 72.0568 62.5509 69.2027C59.9922 66.1549 59.3618 65.0563 59.956 64.682C60.2795 64.478 60.2508 64.4166 59.8294 64.4128C59.1937 64.4073 59.165 64.2773 59.6166 63.4389C60.3001 62.1691 61.1925 62.8683 64.1995 67.03ZM41.9501 65.6057L43.0278 67.7336L40.7105 68.1798L38.3932 68.6257L37.8754 67.0597C37.5909 66.1983 37.3024 65.3428 37.2344 65.1589C37.1074 64.8144 39.5723 63.6162 40.6419 63.5024C40.7685 63.4891 41.3571 64.4355 41.9501 65.6057ZM51.6413 63.788C51.7474 63.9586 51.8958 64.0981 51.9716 64.0981C52.0474 64.0981 52.1092 63.9586 52.1092 63.788C52.1092 63.6175 51.9604 63.4779 51.7789 63.4779C51.5973 63.4779 51.5353 63.6175 51.6413 63.788ZM60.4161 65.4997C60.2711 65.8752 60.3818 65.9766 60.8572 65.9025C61.5836 65.7893 61.7203 65.2293 61.0549 65.0907C60.8101 65.0395 60.5225 65.2237 60.4161 65.4997ZM27.8782 67.2511C30.1858 68.0719 30.6868 68.1612 30.9207 67.7937C31.1203 67.4799 31.2021 67.6353 31.2055 68.3364C31.208 68.8768 31.2953 69.5395 31.3995 69.8093C31.5527 70.2059 31.3515 70.2998 30.3502 70.2998C28.5535 70.2998 25.9948 70.8254 24.0964 71.5845C22.6459 72.1647 22.3437 72.1948 21.6531 71.8273C20.746 71.3448 19.211 68.9249 19.5086 68.4464C19.9103 67.7999 23.3768 66.3469 24.6538 66.2895C24.9077 66.278 26.3588 66.7109 27.8782 67.2511ZM56.3202 68.1292C56.4263 68.2998 56.6533 68.4393 56.8249 68.4393C56.9965 68.4393 57.0501 68.2998 56.9441 68.1292C56.838 67.9587 56.6109 67.8191 56.4394 67.8191C56.2678 67.8191 56.2141 67.9587 56.3202 68.1292ZM44.5487 70.0381C45.336 71.2645 45.4861 71.7188 45.2122 72.0465C44.3594 73.0683 43.482 72.0738 42.918 69.4471C42.5867 67.9029 43.3572 68.1819 44.5487 70.0381ZM48.7906 76.1676C48.6428 76.2947 47.5467 76.9995 46.3542 77.7344L44.1863 79.0703L43.2901 78.0185C42.7973 77.4399 42.1188 76.5899 41.7829 76.1297L41.1718 75.2928L42.9754 74.1619C43.9673 73.5399 45.0506 72.859 45.3825 72.6487C45.9225 72.3067 46.1489 72.4605 47.5226 74.1015C48.3677 75.1108 48.9382 76.0408 48.7906 76.1676Z" fill="black"/>
</svg>
