<svg width="100" height="100" viewBox="0 0 100 100" fill="none" xmlns="http://www.w3.org/2000/svg">
<circle cx="50" cy="50" r="50" fill="white"/>
<path fill-rule="evenodd" clip-rule="evenodd" d="M34.5329 17.104C34.5329 18.604 33.8764 22.1197 33.1423 24.5483C32.184 27.7206 30.7589 30.9613 26.7817 39.0129C21.573 49.5578 20 54.4883 20 60.2716C20 67.2567 22.4076 73.7953 26.5375 78.0262C30.0021 81.5751 33.3512 83.2347 38.3234 83.8662C40.8142 84.1829 44.2238 83.9131 45.3206 83.313C46.0868 82.8939 46.1378 81.5332 45.4126 80.8623C44.6298 80.1381 41.8341 79.2441 38.8073 78.7504C31.9406 77.6297 30.1585 76.7969 26.8191 73.1483C24.4126 70.5187 22.8496 67.7971 22.8496 66.2357C22.8496 65.4029 22.9559 65.2756 23.7757 65.1273C25.1979 64.8695 33.1808 64.8488 33.7906 65.1014C34.1573 65.2531 34.4414 65.1695 34.6768 64.8404C34.9136 64.5095 35.4416 64.3562 36.3452 64.3562C37.3403 64.3562 37.6674 64.2464 37.6674 63.912C37.6674 63.6516 37.3141 63.3955 36.8126 63.293C35.9252 63.1115 35.8383 62.8814 35.9489 61.0062C36.0081 59.996 37.1702 55.1449 37.7629 53.4324C38.1379 52.3487 38.1735 52.7102 38.273 58.5887C38.3804 64.9484 38.5138 65.73 39.4302 65.3705C39.7733 65.236 39.9035 64.4002 40.0563 61.3555C40.5076 52.3616 41.6403 46.135 44.3976 37.4908C45.0992 35.2921 45.8572 32.6048 46.0823 31.5191C46.6781 28.6437 46.6157 24.4163 45.9372 21.704C45.3166 19.2238 44.0009 16 43.6094 16C43.3837 16 43.478 17.4198 43.8174 19.1315C43.9451 19.7753 43.8984 19.7869 41.1636 19.7901C39.6325 19.7919 37.9122 19.8723 37.3409 19.969C36.4205 20.1246 36.2808 20.066 36.1198 19.456C35.5719 17.3825 35.2553 16.5415 34.9133 16.2514C34.6067 15.9913 34.5329 16.1567 34.5329 17.104ZM68.066 18.4338L67.585 19.9938H63.6298H59.6748L59.3491 18.883C59.1702 18.2722 58.9026 17.696 58.755 17.6025C58.4173 17.3892 58.3349 17.7813 57.5918 23.1369C56.7158 29.4515 57.0184 31.3764 59.3976 34.6201L60.5556 36.1989L60.5813 39.5722C60.6132 43.8005 60.3467 44.5185 58.2127 45.9555C56.2815 47.2559 55.621 48.4596 55.6204 50.6796C55.6199 52.5847 55.9578 53.091 56.9287 52.6389C57.9408 52.1673 58.4706 52.7796 58.4649 54.4146C58.4589 56.0841 57.5493 57.8197 56.1855 58.7629L55.1924 59.4495L55.1009 58.6834C54.9921 57.7734 53.9232 57.2516 52.7207 57.5217C52.2251 57.633 51.9154 57.5817 51.9154 57.388C51.9154 57.2152 51.7872 57.0737 51.6304 57.0737C51.4737 57.0737 51.3455 57.2703 51.3455 57.5106C51.3455 58.0463 50.0321 58.1092 49.8244 57.5834C49.7454 57.3833 49.6705 57.5001 49.6582 57.8436C49.6232 58.8139 48.941 58.8567 47.741 57.9639C47.1375 57.5147 46.355 57.0562 46.0025 56.9452C45.4326 56.7655 45.3613 56.8438 45.3613 57.651C45.3613 58.6345 45.931 59.9648 46.5926 60.5259C46.9158 60.8003 46.9471 61.1155 46.7357 61.9667C46.3937 63.3445 46.8044 64.5357 47.7778 64.9892C48.7318 65.4335 49.842 64.924 50.0862 63.9292C50.2498 63.2624 50.4051 63.191 51.6894 63.191C54.0936 63.191 56.3907 61.5792 56.1117 60.0878C56.0273 59.6368 56.2311 59.2672 56.801 58.8363C57.9779 57.947 58.8202 56.0707 58.8202 54.3386C58.8202 53.1192 58.6951 52.7676 58.0645 52.213C57.4604 51.6819 57.3037 51.2788 57.2826 50.2007C57.2549 48.789 57.5695 48.348 58.6119 48.3381C58.9254 48.3349 59.5802 48.0841 60.0669 47.7808L60.9517 47.2291L61.1204 51.2045C61.278 54.9134 62.0425 59.2383 62.99 61.7782C63.2351 62.4351 63.1958 62.572 62.7259 62.6976C62.4016 62.7844 62.1739 63.0966 62.1739 63.4549C62.1739 63.9697 62.3474 64.0649 63.2832 64.0649C64.0065 64.0649 64.4496 64.217 64.5567 64.5019C64.7727 65.0778 65.5866 65.0597 66.0083 64.4701C66.3032 64.0579 66.5472 64.0445 68.0344 64.3606C69.1497 64.5977 70.6814 64.6528 72.5339 64.5226L75.3424 64.3253L74.711 65.2316C73.6857 66.7038 72.2606 67.9876 70.6691 68.8732C68.7448 69.9437 65.8379 70.166 62.6304 69.4878C59.4933 68.8248 57.5544 68.863 56.901 69.6008C56.479 70.0777 56.4422 70.3145 56.7004 70.8942C57.1635 71.9324 58.596 72.2179 63.3551 72.2197C66.7327 72.2211 67.8813 72.1098 69.3819 71.6362C76.5846 69.362 80.8846 61.2233 79.8462 51.8302C79.2441 46.3829 76.2207 36.0393 72.9875 28.3652C70.9766 23.5922 69.7319 20.2198 69.3107 18.4032C69.1155 17.562 68.8642 16.8739 68.7516 16.8739C68.639 16.8739 68.3307 17.5759 68.066 18.4338ZM35.6856 19.9236C35.8369 21.2568 35.936 21.5222 36.097 21.025C36.3492 20.2457 37.9524 20.057 37.9524 20.8065C37.9524 21.0468 38.0806 21.2434 38.2374 21.2434C38.3941 21.2434 38.5223 21.0468 38.5223 20.8065C38.5223 20.5638 38.7757 20.3695 39.0922 20.3695C39.5103 20.3695 39.6622 20.5638 39.6622 21.0978C39.6622 21.4983 39.7904 21.8261 39.9471 21.8261C40.1038 21.8261 40.2321 21.4887 40.2321 21.0765C40.2321 20.1202 41.1853 20.2052 41.3206 21.1735C41.3705 21.5324 41.5457 21.8261 41.7099 21.8261C41.8746 21.8261 41.9472 21.4995 41.872 21.0978C41.6825 20.0838 42.4314 20.1394 42.8546 21.1706L43.1834 21.9717L43.3025 21.2434C43.3678 20.8429 43.614 20.403 43.8493 20.2664C44.1788 20.0747 44.2352 19.7054 44.0953 18.6643C43.8448 16.804 44.3081 17.55 45.2445 20.5152C46.2307 23.6382 46.4564 27.5749 45.8301 30.735C45.5756 32.0179 44.6615 35.3439 43.798 38.1256C41.2933 46.1988 40.0486 53.1122 39.7468 60.6281C39.6248 63.6641 39.4735 64.9388 39.235 64.9388C38.8885 64.9388 38.5223 59.0752 38.5223 53.5317C38.5223 52.1151 38.4118 50.9563 38.2767 50.9563C38.0017 50.9563 36.1711 57.4025 35.6539 60.1912C35.2681 62.2731 35.4596 63.4803 36.1768 63.4867C36.4481 63.4893 36.8624 63.6184 37.0975 63.7736C37.4067 63.9778 37.1502 64.0574 36.1714 64.0606L34.8179 64.0649V60.7802C34.8179 57.8841 35.106 54.1886 35.5217 51.7574C35.5969 51.3169 35.5511 50.9563 35.4197 50.9563C35.1119 50.9563 34.5916 55.8173 34.3488 60.9611C34.228 63.5208 34.0673 64.8276 33.9086 64.5377C33.6453 64.0571 33.03 59.4953 32.5678 54.5976L32.2931 51.6846L32.4268 55.3258C32.5003 57.3286 32.7268 60.1143 32.9303 61.516C33.203 63.3932 33.215 64.0649 32.9762 64.0649C32.7981 64.0649 32.5302 63.9449 32.3815 63.7984C32.2324 63.6516 31.7905 63.4879 31.3986 63.4343C30.5577 63.3189 30.4779 62.9868 29.8681 57.0472C29.4273 52.7542 28.9828 51.4582 27.4351 49.9551C26.9504 49.4846 26.5541 49.2324 26.5541 49.3946C26.5541 49.5569 26.8872 50.0072 27.2941 50.3958C28.4034 51.4541 29.0913 53.0455 29.2583 54.9402C29.3407 55.8732 29.3324 56.473 29.2398 56.2726C29.1469 56.0722 28.9511 55.9085 28.8047 55.9085C28.4519 55.9085 28.8303 57.4285 29.276 57.8019C29.4672 57.9621 29.7097 59.1317 29.8148 60.4012C30.0391 63.1036 30.3204 63.7736 31.2311 63.7736C31.5981 63.7736 32.058 63.9703 32.2532 64.2106C32.5658 64.5957 32.0888 64.6481 28.2273 64.6516C25.8183 64.6536 23.5583 64.7346 23.2058 64.8311C21.8867 65.1926 22.6168 68.5489 24.5602 71.0574C25.3874 72.125 25.4755 72.9832 24.7608 73.012C24.5716 73.0196 24.214 73.1128 23.9661 73.2188C23.6187 73.3671 23.3118 72.9566 22.6313 71.4328C21.5841 69.0881 21.0296 66.9249 20.5391 63.2735C19.9846 59.144 20.6412 54.807 22.757 48.6259C23.2007 47.3296 29.5267 34.1951 29.987 33.6142C30.1183 33.4487 30.9276 31.548 31.7859 29.3903C33.4746 25.1454 34.4337 21.7168 34.7221 18.8947C34.868 17.4699 34.9643 17.2136 35.1954 17.6362C35.3553 17.9278 35.5758 18.9573 35.6856 19.9236ZM69.3979 20.1385C69.668 21.0529 70.8919 24.2645 72.1178 27.2754C75.655 35.965 78.5197 45.2736 79.3096 50.6455C79.6045 52.6505 79.6031 53.1251 79.3022 53.2276C78.799 53.3992 77.2767 56.9365 77.2767 57.9342C77.2767 58.3775 77.6019 59.2302 77.9994 59.8288C78.8337 61.0855 78.8027 61.2833 77.3155 64.2097C74.8056 69.1476 70.2294 71.9321 64.6285 71.9292L62.8863 71.9283L62.8652 70.9169C62.8456 69.9699 62.8909 69.9184 63.5776 70.1045C63.9811 70.2137 65.2754 70.2994 66.454 70.2947C69.1477 70.2842 71.2099 69.3896 73.3836 67.2882C74.7967 65.922 76.7524 62.8997 76.2232 62.8997C76.0944 62.8997 75.8288 63.1619 75.6331 63.4823C75.3057 64.0183 74.9686 64.0649 71.4089 64.0649C68.4419 64.0649 67.5679 63.9802 67.6576 63.7008C67.7221 63.5007 68.1013 63.2968 68.5006 63.2481C69.2218 63.1598 69.2278 63.1368 69.4198 59.6068C69.7168 54.144 69.67 54.2859 71.1327 54.405C74.2727 54.6602 75.8764 51.7495 73.8777 49.4223C73.1215 48.542 73.0881 48.4196 73.5215 48.1184C73.8307 47.9037 73.8712 47.7802 73.6361 47.7692C72.9057 47.7348 70.8005 50.2726 70.2012 51.91C69.5053 53.8114 69.0129 57.427 69.0129 60.6345C69.0129 62.8254 68.9907 62.8997 68.3353 62.8997C67.9628 62.8997 67.4984 63.0963 67.3032 63.3367C67.108 63.577 66.7959 63.7736 66.6096 63.7736C66.352 63.7736 66.3637 63.2662 66.658 61.6617C66.8763 60.4726 67.0909 56.877 67.149 53.4324L67.2524 47.315L67.0273 52.7041C66.8093 57.9269 66.4457 61.2955 65.8564 63.5551C65.2138 66.0181 65.0375 64.499 65.197 57.8747C65.2868 54.1499 65.2515 50.3874 65.1187 49.5141C64.9488 48.3981 64.8702 50.0862 64.8537 55.1945C64.8406 59.192 64.7365 62.7576 64.6226 63.1182C64.4607 63.6294 64.2 63.7736 63.4371 63.7736C62.3796 63.7736 62.0998 63.2324 63.0288 62.9842C63.3422 62.9003 63.5987 62.7733 63.5987 62.7022C63.5987 62.6308 63.279 61.4336 62.8883 60.0415C61.9417 56.669 61.3227 52.2957 61.3207 48.9641L61.319 46.2436L60.4422 46.9978C59.3035 47.9774 58.4694 47.9967 58.4694 47.0435C58.4694 46.5932 58.7726 46.1143 59.3021 45.7289C60.6813 44.7251 61.1141 43.0606 60.9859 39.2512L60.8751 35.9542L59.6731 34.3521C58.2004 32.389 57.5131 30.3921 57.5174 28.0891C57.5214 26.0345 58.4344 19.1667 58.7501 18.8184C58.8698 18.6864 59.0539 19.0467 59.159 19.6194C59.3138 20.4625 59.4776 20.6608 60.0188 20.6608C60.4892 20.6608 60.7389 20.8706 60.8611 21.3687C61.1213 22.4282 61.8188 22.9913 62.8718 22.9913C63.9603 22.9913 64.3766 22.5837 64.6345 21.2647C64.8169 20.3328 64.8357 20.3232 66.2747 20.4188L67.7306 20.5152L68.1478 19.2812C68.6345 17.8422 68.7408 17.915 69.3979 20.1385ZM36.021 23.6417C35.2177 24.0373 35.3299 24.4728 36.3683 24.9899C37.2383 25.4231 38.8153 25.1513 39.0167 24.5334C39.1338 24.1742 37.6791 23.2683 37.0405 23.3024C36.8368 23.3132 36.378 23.4658 36.021 23.6417ZM42.3898 23.8419C41.9179 24.3752 41.9216 24.416 42.4693 24.7158C43.2954 25.1679 44.2771 25.1038 45.0541 24.5474C45.6982 24.0863 45.705 24.0469 45.2055 23.6735C44.4392 23.1005 42.9683 23.1888 42.3898 23.8419ZM65.2976 23.938C64.3023 24.451 64.0261 24.7516 64.0261 25.3217C64.0261 25.8918 64.3023 26.1924 65.2976 26.7054C66.7372 27.4476 67.434 27.3558 68.3718 26.3013C69.1924 25.3785 69.1799 24.8833 68.3133 23.9977C67.4488 23.1136 66.917 23.1031 65.2976 23.938ZM44.3406 23.7507C44.5885 23.848 44.7914 24.0606 44.7914 24.2232C44.7914 24.3939 44.6105 24.3656 44.364 24.1565C44.0138 23.8593 43.9365 23.8794 43.9365 24.2666C43.9365 24.7822 43.4484 24.8754 42.8337 24.4775C42.5186 24.2733 42.5459 24.1635 42.9762 23.908C43.6066 23.5337 43.7462 23.5176 44.3406 23.7507ZM38.3915 24.176C38.6893 24.6683 38.2946 24.8591 37.8168 24.4536C37.4922 24.1783 37.3825 24.1728 37.3825 24.4323C37.3825 24.8844 36.1805 24.7044 36.0275 24.2293C35.8796 23.7702 38.1157 23.7195 38.3915 24.176ZM58.784 25.0053C58.0873 25.4566 58.6552 26.1956 59.6988 26.1956C60.5599 26.1956 61.604 25.5046 61.604 24.9345C61.604 24.6462 59.2477 24.7053 58.784 25.0053ZM67.2704 25.0036C67.9429 25.4388 66.6458 25.9666 65.7544 25.6203C64.897 25.287 64.7585 24.9051 65.5934 25.176C65.9203 25.2821 66.1633 25.2285 66.1633 25.0499C66.1633 24.6753 66.727 24.6517 67.2704 25.0036ZM40.6672 25.3089C40.5746 25.4621 40.2785 25.5032 40.0092 25.4C39.5912 25.2401 39.5738 25.2806 39.8898 25.6782C40.3224 26.2224 39.9001 26.6424 39.1974 26.3669C38.9238 26.2597 38.8041 26.3319 38.8785 26.5594C39.0481 27.08 41.3087 27.0613 41.7352 26.5358C42.0262 26.1775 41.9746 26.1458 41.4021 26.3313C40.7815 26.5329 40.7402 26.4872 40.9111 25.791C41.0989 25.026 40.9801 24.7912 40.6672 25.3089ZM60.7491 25.4673C60.3277 25.9864 59.1588 26.0462 58.867 25.5635C58.7285 25.3342 58.8162 25.2835 59.1351 25.4088C59.3958 25.511 59.6093 25.4676 59.6093 25.3127C59.6093 25.1574 59.9455 25.0304 60.3564 25.0304C60.9885 25.0304 61.0492 25.098 60.7491 25.4673ZM62.4589 26.1312C62.4589 26.1877 62.5917 26.4875 62.7538 26.7974C63.0017 27.2711 62.9538 27.3608 62.452 27.3608C62.1237 27.3608 61.93 27.4843 62.0212 27.6352C62.1565 27.8592 63.1131 27.877 64.5248 27.6815C65.0523 27.6087 64.6707 27.1715 64.0974 27.1921C63.6027 27.2099 63.471 27.0698 63.5209 26.5784C63.5691 26.1041 63.4417 25.9526 63.0222 25.985C62.7125 26.0089 62.4589 26.0744 62.4589 26.1312ZM68.3752 27.5668C68.7297 27.6364 69.2426 27.6338 69.515 27.5609C69.7874 27.4881 69.4973 27.431 68.8704 27.4342C68.2435 27.4374 68.0207 27.4971 68.3752 27.5668ZM58.8801 28.371C58.576 28.6064 58.4626 28.803 58.6287 28.808C58.7946 28.8132 59.1793 28.6248 59.4836 28.3897C59.7877 28.1543 59.9011 27.9577 59.7349 27.9527C59.5691 27.9475 59.1844 28.136 58.8801 28.371ZM67.7306 28.526C67.8275 28.6862 68.1877 28.8153 68.5311 28.8129C69.0386 28.8092 69.0753 28.7556 68.728 28.526C68.1666 28.1552 67.5063 28.1552 67.7306 28.526ZM59.4668 29.1086C59.3699 29.2688 59.4189 29.3999 59.5756 29.3999C59.7324 29.3999 59.9398 29.2688 60.0367 29.1086C60.1336 28.9484 60.0846 28.8173 59.9279 28.8173C59.7711 28.8173 59.5637 28.9484 59.4668 29.1086ZM67.5485 29.4095C67.9184 29.7247 68.3672 29.9796 68.5459 29.9761C68.7243 29.9726 68.5499 29.7134 68.158 29.3999C67.2268 28.6553 66.6731 28.6641 67.5485 29.4095ZM60.3217 29.6912C60.0381 30.0117 59.9495 30.2738 60.125 30.2738C60.3006 30.2738 60.5813 30.0117 60.7491 29.6912C60.917 29.3708 61.0053 29.1086 60.9457 29.1086C60.8862 29.1086 60.6052 29.3708 60.3217 29.6912ZM31.1299 32.3529C30.5061 33.3986 30.4104 33.7695 30.7637 33.7695C31.0783 33.7695 32.0942 31.7621 31.8871 31.55C31.7919 31.453 31.4511 31.8142 31.1299 32.3529ZM32.1333 32.6736C31.8563 33.1059 31.6796 33.6127 31.7409 33.8C31.8019 33.9871 32.0783 33.7866 32.3555 33.3546C32.6325 32.9223 32.8092 32.4155 32.7479 32.2282C32.6869 32.0412 32.4105 32.2416 32.1333 32.6736ZM33.0092 33.4289C32.7493 33.7223 32.6231 34.0503 32.7283 34.1578C32.9397 34.3742 33.963 33.532 33.963 33.1417C33.963 32.7289 33.5076 32.8661 33.0092 33.4289ZM63.5987 36.5368C63.5987 36.7772 63.7229 36.9738 63.8748 36.9738C64.0264 36.9738 64.0769 36.7772 63.9868 36.5368C63.8965 36.2965 63.7722 36.0999 63.7107 36.0999C63.6491 36.0999 63.5987 36.2965 63.5987 36.5368ZM62.5144 37.9933C62.5201 38.474 62.584 38.6354 62.6563 38.3519C62.7287 38.0685 62.7239 37.6752 62.6458 37.478C62.5677 37.2808 62.5087 37.5127 62.5144 37.9933ZM28.1572 38.8521C27.8934 39.2637 27.8141 39.6372 27.97 39.7356C28.1182 39.8291 28.4408 39.5084 28.6864 39.0225C29.2198 37.968 28.8089 37.8355 28.1572 38.8521ZM63.3588 38.7216C63.3588 39.1221 63.4235 39.2861 63.5024 39.0857C63.5816 38.8856 63.5816 38.5579 63.5024 38.3575C63.4235 38.1573 63.3588 38.3211 63.3588 38.7216ZM65.0235 38.6872C65.0235 38.8474 65.1517 39.0595 65.3085 39.1586C65.4652 39.2576 65.5934 39.2075 65.5934 39.0473C65.5934 38.8871 65.4652 38.675 65.3085 38.5759C65.1517 38.4769 65.0235 38.527 65.0235 38.6872ZM28.8206 39.3293C28.6456 39.6634 28.5875 40.0237 28.6915 40.1298C28.8847 40.3273 29.6886 39.3823 29.6886 38.9573C29.6886 38.4944 29.1332 38.7324 28.8206 39.3293ZM30.03 40.022C29.8542 40.417 29.8148 40.8062 29.9425 40.8869C30.136 41.0089 30.8284 39.8752 30.8284 39.4362C30.8284 39.024 30.3033 39.4094 30.03 40.022ZM64.1774 39.8868C64.1774 40.1271 64.3017 40.5204 64.4536 40.7607C64.6992 41.149 64.7297 41.149 64.7297 40.7607C64.7297 40.5204 64.6055 40.1271 64.4536 39.8868C64.2079 39.4985 64.1774 39.4985 64.1774 39.8868ZM63.3363 40.3479C63.3499 40.6873 63.4175 40.7563 63.5084 40.5242C63.5907 40.3139 63.5805 40.0625 63.4859 39.9658C63.3912 39.869 63.324 40.0409 63.3363 40.3479ZM62.5144 42.9455C62.5201 43.4261 62.584 43.5875 62.6563 43.3041C62.7287 43.0206 62.7239 42.6274 62.6458 42.4302C62.5677 42.233 62.5087 42.4648 62.5144 42.9455ZM63.0844 42.9455C63.09 43.4261 63.1539 43.5875 63.2263 43.3041C63.2986 43.0206 63.2938 42.6274 63.2157 42.4302C63.1376 42.233 63.0787 42.4648 63.0844 42.9455ZM63.8879 43.4553C63.8857 43.896 64.0119 44.2563 64.1686 44.2563C64.5288 44.2563 64.5288 43.6612 64.1686 43.0911C63.9535 42.7506 63.8914 42.831 63.8879 43.4553ZM25.5122 44.113C25.2518 44.6869 25.2603 44.839 25.553 44.839C25.7567 44.839 26.0009 44.6315 26.0961 44.3781C26.5301 43.2222 26.0212 42.9912 25.5122 44.113ZM26.315 44.707C25.9206 45.5917 25.9095 45.7129 26.2232 45.7129C26.4304 45.7129 27.124 44.4687 27.124 44.097C27.124 43.6778 26.5962 44.0755 26.315 44.707ZM27.3001 45.4682C27.1288 46.3432 27.2462 46.8501 27.5486 46.5413C27.8546 46.2282 28.0373 44.5477 27.7651 44.5477C27.6084 44.5477 27.3992 44.9619 27.3001 45.4682ZM65.2221 45.8273C65.1056 46.1306 65.0774 46.4475 65.1591 46.5314C65.4193 46.7971 65.6478 46.3616 65.539 45.8084C65.4393 45.3015 65.4239 45.3024 65.2221 45.8273ZM63.3137 46.9894C63.3137 47.2297 63.442 47.5073 63.5987 47.6063C63.7554 47.7054 63.8837 47.5897 63.8837 47.3494C63.8837 47.1091 63.7554 46.8315 63.5987 46.7324C63.442 46.6334 63.3137 46.749 63.3137 46.9894ZM62.7888 47.4607C62.7888 47.8612 62.8535 48.0252 62.9325 47.8248C63.0117 47.6247 63.0117 47.297 62.9325 47.0965C62.8535 46.8964 62.7888 47.0601 62.7888 47.4607ZM63.6212 49.9609C63.6349 50.3003 63.7024 50.3693 63.7933 50.1372C63.8757 49.9268 63.8654 49.6755 63.7708 49.5787C63.6762 49.482 63.609 49.6539 63.6212 49.9609ZM22.0298 52.435C21.8058 53.0924 21.8101 53.301 22.046 53.2206C22.4752 53.0744 22.8895 51.8896 22.5797 51.6942C22.4452 51.6091 22.1979 51.9424 22.0298 52.435ZM26.7766 51.6997C26.5629 51.9185 27.1453 52.9954 27.4776 52.9954C27.8007 52.9954 27.7395 52.5879 27.33 52.0152C27.1297 51.7352 26.8806 51.5934 26.7766 51.6997ZM23.0317 52.0324C22.7521 52.3181 22.8154 53.634 23.1001 53.4542C23.4517 53.232 23.6962 52.1506 23.4326 51.984C23.3124 51.9083 23.132 51.9298 23.0317 52.0324ZM25.5915 52.6313C25.8126 53.574 25.9214 53.7391 26.1608 53.4944C26.4198 53.2299 26.0223 51.8302 25.6883 51.8302C25.5219 51.8302 25.4815 52.1635 25.5915 52.6313ZM24.2744 52.7041C24.2744 53.0246 24.4026 53.2867 24.5593 53.2867C24.7161 53.2867 24.8443 53.0246 24.8443 52.7041C24.8443 52.3837 24.7161 52.1215 24.5593 52.1215C24.4026 52.1215 24.2744 52.3837 24.2744 52.7041ZM27.8857 56.4095C27.6657 56.7733 27.9797 57.9476 28.2971 57.9476C28.6174 57.9476 28.6163 57.0509 28.2952 56.5327C28.1601 56.3151 27.9763 56.2598 27.8857 56.4095ZM26.7695 56.6722C26.6877 56.8129 26.7538 57.2557 26.916 57.6563C27.1533 58.2427 27.234 58.2869 27.3291 57.8838C27.4648 57.309 26.9929 56.2871 26.7695 56.6722ZM24.8443 57.4934C24.8443 57.9033 24.9725 58.2389 25.1293 58.2389C25.286 58.2389 25.4142 57.9846 25.4142 57.6735C25.4142 57.3623 25.286 57.0271 25.1293 56.928C24.9677 56.8258 24.8443 57.0708 24.8443 57.4934ZM25.7035 57.2921C25.7086 57.8745 26.1716 58.7277 26.3708 58.5217C26.4441 58.4463 26.4361 58.0239 26.3532 57.5834C26.1876 56.7017 25.6966 56.4814 25.7035 57.2921ZM46.7497 57.7827C47.1845 58.0125 47.7065 58.4058 47.9103 58.6566C48.3708 59.2238 49.1613 59.2316 51.1993 58.6889C52.8426 58.2514 53.1293 58.2992 54.692 59.268C55.7905 59.9491 55.8649 60.6366 54.9422 61.5798C53.9571 62.5869 52.132 63.0792 50.7659 62.7063L49.6651 62.406L49.579 63.4541C49.5049 64.3606 49.3852 64.5144 48.6925 64.5957C47.3538 64.7527 46.9779 64.1809 47.1722 62.2819C47.3073 60.9614 47.2478 60.5489 46.877 60.2346C46.1746 59.6389 45.3234 57.365 45.803 57.365C45.8891 57.365 46.3151 57.5529 46.7497 57.7827ZM52.6956 59.2916C52.5141 59.5923 52.9355 60.5064 53.1464 60.2695C53.2137 60.1941 53.1786 59.8789 53.0686 59.569C52.9586 59.2593 52.7908 59.1343 52.6956 59.2916ZM47.7496 59.6392C47.8485 59.8029 47.8271 59.9809 47.7023 60.0348C47.5772 60.0883 47.7045 60.3616 47.9852 60.6421C48.381 61.0374 48.4959 61.0593 48.4959 60.7391C48.4959 60.5122 48.6563 60.2681 48.8521 60.1964C49.3029 60.0318 49.1085 59.8262 48.2465 59.5547C47.8111 59.4178 47.6339 59.4478 47.7496 59.6392ZM50.8408 60.3328C50.9029 60.523 51.1061 60.7304 51.2922 60.7939C51.5005 60.865 51.564 60.7316 51.4577 60.4481C51.2588 59.9185 50.6698 59.8084 50.8408 60.3328ZM27.124 61.1519C27.124 61.6325 27.2522 62.0258 27.4089 62.0258C27.5657 62.0258 27.6939 61.6325 27.6939 61.1519C27.6939 60.6712 27.5657 60.278 27.4089 60.278C27.2522 60.278 27.124 60.6712 27.124 61.1519ZM28.8337 61.0062C28.8337 61.4068 28.962 61.7345 29.1187 61.7345C29.2754 61.7345 29.4036 61.4068 29.4036 61.0062C29.4036 60.6057 29.2754 60.278 29.1187 60.278C28.962 60.278 28.8337 60.6057 28.8337 61.0062ZM26.2691 61.2975C26.2691 61.6981 26.3973 62.0258 26.5541 62.0258C26.7108 62.0258 26.839 61.6981 26.839 61.2975C26.839 60.897 26.7108 60.5693 26.5541 60.5693C26.3973 60.5693 26.2691 60.897 26.2691 61.2975ZM27.9788 61.1347C27.9788 61.4458 28.1071 61.7811 28.2638 61.8802C28.4254 61.9824 28.5488 61.7374 28.5488 61.3147C28.5488 60.9049 28.4205 60.5693 28.2638 60.5693C28.1071 60.5693 27.9788 60.8236 27.9788 61.1347ZM47.9741 63.2379C48.026 63.6125 48.2608 63.9193 48.4959 63.9193C49.114 63.9193 49.0288 62.7829 48.4016 62.6594C47.9969 62.5796 47.9009 62.7095 47.9741 63.2379ZM29.4609 76.2717C29.8844 76.6486 31.2308 77.3177 32.453 77.7588C33.6752 78.1998 34.6318 78.663 34.5785 78.7876C34.4503 79.0889 35.3789 79.6103 35.6146 79.3691C35.7158 79.2657 35.61 79.0489 35.3795 78.8879C35.0698 78.6711 35.1832 78.6327 35.8152 78.7399C36.2854 78.8197 37.3822 78.9651 38.2525 79.0626C39.9226 79.2502 42.7326 80.0338 41.8538 80.067C41.0673 80.0968 41.5893 80.6692 42.4029 80.6692C42.7947 80.6692 43.0412 80.5465 42.9506 80.3965C42.683 79.954 44.5227 80.5937 45.1282 81.1542C45.4269 81.4303 45.6338 81.9258 45.5876 82.255C45.4443 83.2787 43.6926 83.655 39.8046 83.498C36.8804 83.3797 36.0446 83.2291 34.0331 82.4584C30.9994 81.2958 30.3286 80.9305 29.1187 79.7822C28.5701 79.2616 28.3487 79.0047 28.6268 79.2115C28.905 79.418 29.2253 79.492 29.339 79.3761C29.6544 79.0533 28.5006 78.3152 27.9566 78.4917C27.2753 78.7128 24.8905 75.96 24.9455 75.0164C24.9765 74.4869 25.0757 74.3858 25.343 74.6124C25.5994 74.83 25.6992 74.7986 25.6992 74.5C25.6992 74.2722 25.539 73.899 25.343 73.6712C25.1472 73.4431 25.2538 73.4827 25.5798 73.7592C26.348 74.4102 26.7008 74.0511 26.0653 73.2645C25.7958 72.9313 26.2765 73.317 27.1334 74.1221C27.9902 74.9273 29.0375 75.8947 29.4609 76.2717ZM29.4036 77.4179C29.4036 77.7293 30.8501 78.4139 31.0581 78.201C31.2567 77.9979 30.2329 77.1951 29.7598 77.1829C29.5641 77.1776 29.4036 77.2837 29.4036 77.4179ZM29.0791 78.3484C29.751 78.9208 30.2585 79.0871 30.2585 78.7349C30.2585 78.4264 29.2914 77.7748 28.8337 77.7751C28.5368 77.7754 28.6117 77.9504 29.0791 78.3484ZM34.2479 80.0525C34.2479 80.3377 35.5767 80.6703 35.8007 80.4411C35.8785 80.3615 35.8739 80.1839 35.7907 80.0461C35.591 79.7154 34.2479 79.7213 34.2479 80.0525ZM33.8205 80.9605C33.9174 81.1207 34.3172 81.2518 34.709 81.2518C35.1114 81.2518 35.3447 81.1251 35.2453 80.9605C35.1484 80.8003 34.7486 80.6692 34.3568 80.6692C33.9544 80.6692 33.7211 80.7959 33.8205 80.9605ZM41.087 81.2177C41.087 81.5477 42.4815 81.8286 42.6594 81.5346C42.8061 81.292 42.1316 80.9605 41.491 80.9605C41.2688 80.9605 41.087 81.0764 41.087 81.2177ZM33.5355 81.8344C33.6324 81.9946 33.8963 82.1257 34.1223 82.1257C34.3482 82.1257 34.5329 81.9946 34.5329 81.8344C34.5329 81.6742 34.2687 81.5431 33.9462 81.5431C33.6236 81.5431 33.4387 81.6742 33.5355 81.8344ZM40.517 82.0928C40.517 82.4065 42.202 82.6934 42.3741 82.4091C42.4414 82.2978 42.4143 82.1231 42.314 82.0205C42.037 81.7374 40.517 81.7983 40.517 82.0928ZM40.0896 82.9996C39.9844 83.1732 40.3298 83.2909 40.9445 83.2909C41.5591 83.2909 41.9045 83.1732 41.7993 82.9996C41.7025 82.8394 41.3178 82.7083 40.9445 82.7083C40.5712 82.7083 40.1865 82.8394 40.0896 82.9996Z" fill="black"/>
</svg>
