<svg width="100" height="100" viewBox="0 0 100 100" fill="none" xmlns="http://www.w3.org/2000/svg">
<circle cx="50" cy="50" r="50" fill="white"/>
<path fill-rule="evenodd" clip-rule="evenodd" d="M65.3641 20.0588C65.3479 20.2332 65.3568 20.9542 65.384 21.6605C65.4293 22.8453 65.3429 22.9882 64.2692 23.503C63.6292 23.8101 62.2656 24.258 61.2391 24.499C59.1395 24.9914 59.0535 24.9354 58.5768 22.7635L58.3321 21.6494L57.8725 22.7635C57.0653 24.7193 55.9265 30.4159 55.5387 34.4362C54.8487 41.5943 56.0733 50.2958 58.3311 54.277C61.4739 59.8189 67.9754 62.2225 74.5339 60.2678L76.8692 59.5716L79.0773 60.3276C82.8655 61.6247 85.9678 64.3149 85.9678 66.3031C85.9678 67.4659 84.1288 69.0333 81.5867 70.036C77.2525 71.746 74.7589 74.5446 74.9542 77.4799C75.0261 78.5615 75.2381 79.0253 75.8801 79.5053C77.1971 80.4905 77.9584 80.0299 78.5474 77.8918C79.6081 74.0417 80.2083 73.3252 84.0901 71.2736C87.2674 69.5945 88.5 68.3664 88.5 66.8799C88.5 64.2359 85.9317 61.3392 81.9118 59.4484C80.5738 58.8191 79.4337 58.2716 79.378 58.2318C79.3226 58.1917 79.7756 57.4615 80.3849 56.6087C82.0068 54.3381 82.9339 51.1642 84.5364 42.3955C86.3324 32.569 86.3568 31.4224 84.7517 32.2863C84.0965 32.6387 83.7217 33.4558 82.9538 36.2067C82.6737 37.2101 82.347 38.0873 82.2277 38.1564C82.1087 38.2252 81.1885 38.3818 80.1832 38.5043L78.355 38.7272L78.5655 35.7181C78.681 34.0632 78.682 32.3334 78.5674 31.8744C78.2996 30.801 77.2952 30.7702 76.6147 31.8146C76.1921 32.463 75.2546 36.5897 75.2169 37.9673C75.2084 38.2755 74.9279 38.2535 74.0189 37.8738C71.9269 37.0003 70.5152 35.8668 69.6334 34.3538C68.8373 32.9879 68.8041 32.7937 69.1849 31.735C69.8872 29.7821 69.6635 27.1022 68.6135 24.8857C67.6323 22.8151 65.4141 19.5195 65.3641 20.0588ZM68.1397 24.6177C68.598 25.5501 69.0399 27.0166 69.1222 27.8767C69.2513 29.2292 69.17 29.5294 68.5195 30.0988C67.7852 30.7418 67.7842 30.7492 68.4796 30.4098C69.213 30.052 69.3504 30.2539 68.9997 31.1728C68.894 31.4498 68.5737 31.6786 68.2875 31.6812C67.8792 31.685 67.8589 31.7445 68.1922 31.9569C68.5176 32.1641 68.4053 32.3796 67.7146 32.8743C65.6195 34.3745 62.4403 34.5136 59.9103 33.2155C59.2364 32.8698 58.6056 32.6667 58.5087 32.7644C58.2637 33.0108 60.8662 34.1256 62.3096 34.3929C64.0011 34.7059 66.1247 34.3118 67.3873 33.4501L68.4714 32.71L69.0079 33.933C69.6878 35.4829 72.0096 37.5526 73.7258 38.1386C74.8808 38.533 75.0394 38.7007 74.9827 39.4692C74.9469 39.9527 74.8475 40.419 74.7618 40.5056C74.6757 40.5919 73.5298 40.3143 72.2153 39.889C70.9004 39.4634 69.8249 39.197 69.8249 39.297C69.8249 39.3966 70.4605 39.9788 71.2372 40.5909C72.014 41.2027 72.655 41.8005 72.6616 41.9193C72.6683 42.038 71.9118 42.2309 70.9805 42.3477C69.0174 42.5944 65.8993 41.9107 64.2157 40.8644C63.6266 40.498 63.0708 40.2726 62.9809 40.363C62.8907 40.4534 63.7172 40.9713 64.8174 41.5134C67.4019 42.7873 70.0151 43.0846 72.4277 42.3795C74.7048 41.7136 74.67 41.7053 74.1183 42.7781C73.1203 44.7192 68.9158 45.3093 64.9216 44.0685C62.1703 43.2139 61.8943 43.4682 64.6025 44.3624C66.8052 45.0894 70.7216 45.2922 72.1333 44.7526C72.8341 44.4846 72.785 44.6326 71.5674 46.4585C70.8343 47.5579 70.0901 48.8736 69.9138 49.3822L69.5935 50.3066L70.896 50.1895C73.2228 49.9797 74.3658 48.0809 73.6764 45.5697C73.4608 44.7844 73.4637 44.3493 73.6852 44.2115C74.4031 43.7652 75.1878 41.198 75.668 37.7245C76.2972 33.1738 76.6843 31.6965 77.3117 31.4546C78.1825 31.1184 78.4161 32.0597 78.236 35.1817C78.0252 38.8379 77.3301 43.0722 76.1861 47.6719C75.718 49.5538 75.4252 51.0938 75.5357 51.0938C75.7965 51.0938 77.067 46.1446 77.5326 43.3132L77.8963 41.1034L79.7822 40.5409C80.8191 40.2319 81.7301 40.0412 81.8061 40.1179C82.034 40.3471 80.9603 42.8717 79.9439 44.497C79.1254 45.8056 78.9086 45.9718 78.3863 45.6907C77.425 45.1731 77.1933 45.324 77.9954 45.9447L78.7279 46.5113L78.0793 48.1659C77.7226 49.076 77.5713 49.8206 77.7428 49.8206C77.9144 49.8206 78.0546 49.6206 78.0546 49.3765C78.0546 49.1323 78.6399 47.8072 79.3549 46.4321C81.8849 41.5675 82.1049 41.0327 82.9696 37.6541C83.8489 34.2176 84.7042 32.3131 85.368 32.3131C85.9007 32.3131 85.5946 35.034 84.2582 42.1809C82.4512 51.8444 81.5706 54.6749 79.6056 57.1336C79.0425 57.8383 78.6414 58.4673 78.7139 58.5313C78.7864 58.5953 79.6084 58.8983 80.5406 59.2046C84.3095 60.4431 88.1835 64.1627 88.1835 66.5424C88.1835 67.9567 87.0842 69.2087 84.7384 70.466C83.6961 71.0247 82.1229 71.9691 81.243 72.5647C80.0541 73.3691 79.5809 73.5442 79.4027 73.2449C79.2704 73.0234 78.8776 72.6857 78.5294 72.4947C77.9733 72.1891 78.3097 71.9526 81.2971 70.5494C83.1678 69.6709 85.0549 68.5934 85.4911 68.1547C88.0581 65.5732 84.2607 61.302 77.79 59.493C76.0225 58.9986 75.8471 58.998 75.3644 59.4834C74.7146 60.1369 73.7498 60.1608 73.5086 59.5293C73.3874 59.2116 72.8895 59.0518 72.02 59.0518C71.3015 59.0518 69.9268 58.8216 68.9652 58.5406C66.9837 57.9612 65.8309 58.2426 65.6553 59.3481C65.553 59.9915 65.5328 59.9902 63.9017 59.2272C60.7912 57.7721 58.2349 54.3741 57.0521 50.1223C55.3067 43.8489 55.4416 32.5321 57.3439 25.6284C58.1086 22.853 58.1362 22.8164 58.5451 24.0368C58.8923 25.0723 59.0022 25.1442 60.0986 25.0576C60.9843 24.9876 61.2786 25.085 61.2786 25.4482C61.2786 26.3032 62.654 26.9653 63.6441 26.5865C64.41 26.2937 64.4965 26.1202 64.3793 25.1117C64.2686 24.1571 64.3673 23.9133 64.9782 23.6332C65.541 23.3753 65.7126 23.0341 65.7214 22.1552L65.7328 21.0128L66.5197 21.9677C66.9524 22.4929 67.6817 23.6854 68.1397 24.6177ZM66.6596 27.5383C65.9968 28.2048 65.8072 29.5924 66.3339 29.9199C66.7593 30.1841 68.4391 29.2661 68.6787 28.6381C68.9408 27.9508 68.9465 27.9737 68.378 27.4017C67.7263 26.7466 67.4228 26.7708 66.6596 27.5383ZM42.851 30.0052C42.3171 31.516 42.3152 31.5176 40.1653 32.025C38.9821 32.3045 37.8119 32.5909 37.565 32.6616C37.2656 32.7476 37.0178 32.3926 36.8212 31.5968C36.6591 30.9405 36.4135 30.4031 36.2755 30.4031C35.8327 30.4031 34.8746 34.9487 34.8613 37.1114C34.8502 38.9353 34.9654 39.3581 35.7561 40.4018L36.6636 41.5997L35.2072 43.7206C34.4064 44.8873 33.2856 46.3856 32.7171 47.0509L31.6833 48.2598L30.2137 47.3179C28.1075 45.9683 26.8712 43.2409 25.1793 36.2125C24.8064 34.6632 24.0534 34.407 23.7265 35.7178C23.3542 37.2085 24.4769 43.3304 25.8402 47.2434C26.5477 49.2737 27.2035 51.1724 27.2978 51.4631C27.4216 51.8444 26.9769 52.3079 25.6987 53.1301C22.8253 54.9786 23.5302 55.7893 27.0873 54.7268C28.5798 54.2811 28.8096 54.2776 29.0425 54.6956C29.6465 55.7814 32.2284 58.7405 33.1428 59.3952C34.0592 60.0516 34.087 60.1251 33.5388 60.4517C33.1966 60.6555 30.4944 60.8694 27.0937 60.9623C21.3066 61.1202 21.2126 61.1342 19.0896 62.1449C16.0016 63.6149 12.4517 67.1835 11.7823 69.4904C11.2512 71.3207 11.4642 72.4944 12.4666 73.2605C14.3477 74.6978 16.5919 72.594 18.072 68.0061C18.757 65.8826 20.4368 64.1261 22.3534 63.5289C23.1906 63.2679 25.4531 63.061 27.885 63.0228C32.3876 62.9521 33.3786 62.786 34.9413 61.8415C35.8495 61.2924 36.1628 61.2568 37.3764 61.5639C39.1698 62.0182 43.6803 62.0169 45.8324 61.5617C49.4924 60.7876 52.1487 58.8843 53.3018 56.2101C54.058 54.4565 53.9498 50.9649 53.0774 48.9678C52.6814 48.0612 52.0883 47.0744 51.7594 46.7752C51.4305 46.476 50.7946 45.0216 50.3464 43.5436C49.3389 40.222 47.7338 36.5145 45.7337 32.8886C44.8942 31.367 44.1159 29.7554 44.0042 29.3075C43.7123 28.1374 43.4562 28.2924 42.851 30.0052ZM78.1622 29.1716C78.4829 29.3587 78.9402 29.9632 79.1786 30.5146C79.5046 31.2683 79.6154 31.3571 79.6249 30.872C79.6417 29.9925 78.7709 28.8093 78.1157 28.8211C77.6399 28.8297 77.645 28.8692 78.1622 29.1716ZM79.8984 29.6627C80.0332 30.329 80.113 30.4092 80.2051 29.9715C80.2738 29.6465 80.1915 29.2416 80.0228 29.0719C79.8246 28.8727 79.7803 29.0818 79.8984 29.6627ZM45.6305 33.4533C48.0924 38.1201 50.5708 44.4607 50.1131 44.921C49.7855 45.2505 48.301 44.2678 48.301 43.7213C48.301 43.3994 48.1434 43.1359 47.9506 43.1359C47.7579 43.1359 47.6822 43.3507 47.7825 43.6133C47.9345 44.0119 47.5341 44.0985 45.3633 44.1367L42.7618 44.1822L45.294 44.4111C46.6867 44.5371 48.3292 44.8542 48.9436 45.1158C50.5727 45.8094 51.9696 47.3644 52.6723 49.266C53.7022 52.0545 53.7741 52.8465 53.1774 54.8287C52.8593 55.8855 52.5703 56.4263 52.4963 56.1035C52.4257 55.7951 52.238 55.6232 52.0791 55.7222C51.9202 55.8208 51.8749 55.6795 51.9784 55.4077C52.0823 55.1358 52.0246 54.9136 51.8506 54.9136C51.5024 54.9136 51.1498 55.6566 51.1498 56.391C51.1498 56.6494 51.2634 56.7904 51.4024 56.7042C51.5413 56.6179 51.823 56.652 52.0291 56.7799C52.2896 56.942 52.1079 57.3723 51.4293 58.2006C50.3702 59.4926 48.7736 60.4352 47.0349 60.7946C45.9866 61.0113 45.9612 60.9967 46.5601 60.5253C46.9083 60.2512 47.0267 60.0223 46.8235 60.0169C46.0777 59.9965 45.4966 60.389 45.6555 60.8057C45.8859 61.4096 43.4964 61.7196 40.1093 61.5254C36.8823 61.3405 34.8499 60.4594 32.4572 58.2086C29.4524 55.3825 26.8756 50.4486 25.3433 44.5887C24.3456 40.773 23.7765 36.3496 24.188 35.6099C24.5266 35.0016 24.4722 34.8548 25.6782 39.6344C26.259 41.9361 27.9907 45.7868 28.9238 46.8519C29.2571 47.2323 30.1925 47.8568 31.0022 48.2398C31.8122 48.6224 32.4746 49.1263 32.4746 49.3593C32.4746 49.5923 32.6411 49.8864 32.845 50.0131C33.0998 50.1717 33.1469 50.0641 32.996 49.6687C32.8026 49.1616 32.8396 49.146 33.31 49.5369C33.6034 49.7804 34.1048 50.4094 34.4238 50.9347C35.0572 51.9765 35.2291 51.7878 34.6454 50.6912C34.3298 50.0978 34.4184 49.8989 35.3455 49.1203C36.5841 48.0806 36.3493 47.9176 35.0278 48.9003L34.125 49.5716L33.1577 48.8525L32.1904 48.1332L33.5477 46.51C34.294 45.6172 35.3759 44.186 35.9514 43.3294C36.9719 41.8113 36.9848 41.7515 36.46 40.942C34.8765 38.4986 34.7761 37.5109 35.6902 33.3476C36.0919 31.5182 36.4132 31.2451 36.7196 32.4722C36.8288 32.9099 37.1292 33.268 37.3868 33.268C37.6448 33.268 37.8556 33.4198 37.8556 33.6051C37.8556 33.7904 38.0003 33.8521 38.1772 33.7423C38.3541 33.6322 38.4171 33.409 38.3168 33.246C38.2168 33.0831 38.2858 32.9497 38.47 32.9497C38.6542 32.9497 38.8052 33.1732 38.8052 33.4459C38.8052 33.7187 38.9413 33.8575 39.1078 33.7541C39.2743 33.6506 39.3303 33.3555 39.2322 33.0987C39.1344 32.8418 39.2012 32.6314 39.3813 32.6314C39.5611 32.6314 39.7734 32.8819 39.8532 33.1884C39.9536 33.5752 40.0089 33.508 40.0346 32.9685C40.07 32.2156 40.0859 32.2109 40.536 32.8093C40.9522 33.3625 41.0019 33.3696 41.0108 32.8762C41.0168 32.5591 41.3558 32.2408 41.8097 32.1262C42.382 31.9817 42.6994 31.587 42.9675 30.6877C43.1707 30.0059 43.3774 29.4482 43.4271 29.4482C43.4771 29.4482 44.4685 31.2505 45.6305 33.4533ZM61.4369 29.7665C61.3188 29.9588 61.7189 30.0759 62.4469 30.0625C63.4098 30.0447 63.525 29.9849 63.0195 29.7665C62.1497 29.3906 61.668 29.3906 61.4369 29.7665ZM86.0346 29.8821C86.7876 30.4576 87.269 31.876 87.0563 32.8921C86.8996 33.6389 86.9237 33.672 87.2472 33.1569C87.9144 32.095 86.899 29.4275 85.8396 29.4584C85.649 29.4638 85.7367 29.6545 86.0346 29.8821ZM65.71 31.0586C65.71 31.2438 65.5524 31.2976 65.3596 31.1779C65.1238 31.0312 65.0789 31.1814 65.2226 31.6366C65.3976 32.1905 65.3061 32.3131 64.7183 32.3131C64.1603 32.3131 64.0853 32.398 64.3806 32.695C64.6614 32.9774 64.8532 32.9838 65.1156 32.7199C65.3109 32.5235 65.6524 32.4331 65.8749 32.5187C66.0971 32.6046 66.3731 32.5219 66.488 32.3347C66.603 32.1478 66.47 31.9947 66.1924 31.9947C65.786 31.9947 65.7537 31.8709 66.0266 31.3581C66.2564 30.9265 66.2598 30.7215 66.0376 30.7215C65.8575 30.7215 65.71 30.8733 65.71 31.0586ZM68.2422 31.0398C67.9571 31.225 67.9178 31.3501 68.1444 31.3533C68.3518 31.3559 68.6094 31.2149 68.717 31.0398C68.9598 30.6444 68.8503 30.6444 68.2422 31.0398ZM61.0473 31.897C61.3552 31.9779 61.7826 31.9725 61.9968 31.8852C62.2111 31.798 61.9592 31.7321 61.4369 31.7385C60.9146 31.7449 60.7393 31.8162 61.0473 31.897ZM87.9287 32.7905C87.935 33.3158 88.0059 33.4921 88.0863 33.1824C88.1667 32.8727 88.1613 32.4429 88.0746 32.2274C87.9879 32.0119 87.9223 32.2653 87.9287 32.7905ZM61.1204 32.6314C60.8729 33.0344 61.2919 33.0344 61.9117 32.6314C62.321 32.3656 62.3124 32.3223 61.8512 32.3178C61.5569 32.3153 61.228 32.4563 61.1204 32.6314ZM22.372 34.2386C22.1834 35.1225 22.0489 36.5193 22.0726 37.3422C22.1156 38.829 22.1172 38.8262 22.3467 36.9287C22.4736 35.8782 22.6835 34.4818 22.8133 33.8251C22.9431 33.1687 22.9741 32.6314 22.882 32.6314C22.7902 32.6314 22.5604 33.3546 22.372 34.2386ZM77.105 34.8596C77.105 35.5246 77.2395 35.8225 77.5007 35.735C77.7184 35.6621 77.8963 35.268 77.8963 34.8596C77.8963 34.4512 77.7184 34.0571 77.5007 33.9842C77.2395 33.8967 77.105 34.1946 77.105 34.8596ZM84.3851 35.3371C84.3851 36.2261 84.847 36.4044 85.1426 35.6293C85.4465 34.8329 85.3708 34.5413 84.8599 34.5413C84.5646 34.5413 84.3851 34.8418 84.3851 35.3371ZM41.5748 35.2034C40.8037 35.6551 40.8832 36.3398 41.7331 36.569C42.8099 36.859 43.335 36.7947 43.9956 36.2917C45.2563 35.3323 43.0492 34.3398 41.5748 35.2034ZM43.2366 35.8518C43.2366 36.3952 43.0989 36.4884 42.5244 36.3334C42.1328 36.228 41.6878 36.1396 41.5362 36.1373C41.3843 36.1348 41.4371 35.918 41.6539 35.6554C42.2534 34.9287 43.2366 35.0506 43.2366 35.8518ZM35.8466 36.3974C35.2199 37.0936 35.4478 37.4061 36.5819 37.4061C37.6094 37.4061 38.6656 36.6785 38.3602 36.1813C38.0107 35.6127 36.4303 35.7487 35.8466 36.3974ZM37.4615 36.5308C37.3052 37.0086 35.9564 37.2661 35.9564 36.8182C35.9564 36.4833 36.4787 36.1991 37.1697 36.158C37.402 36.1443 37.5331 36.3121 37.4615 36.5308ZM65.735 36.9551C65.7502 37.3259 65.8252 37.4014 65.9262 37.1477C66.0177 36.9178 66.0063 36.6431 65.9012 36.5375C65.7961 36.4318 65.7214 36.6196 65.735 36.9551ZM20.8644 38.6794C20.8644 39.8174 20.922 40.2828 20.992 39.714C21.0622 39.1451 21.0622 38.2137 20.992 37.6449C20.922 37.076 20.8644 37.5414 20.8644 38.6794ZM39.2623 37.6334C39.348 37.8585 39.2009 38.0428 38.935 38.0428C38.6688 38.0428 38.5393 38.186 38.6469 38.3611C38.7545 38.5362 39.2971 38.6629 39.8526 38.6425C40.4081 38.6221 40.6135 38.54 40.3087 38.4601C39.6848 38.2962 39.6073 38.0001 40.0669 37.5379C40.2717 37.332 40.1606 37.2244 39.7424 37.2244C39.354 37.2244 39.167 37.3835 39.2623 37.6334ZM66.9825 37.8913C67.2028 38.158 67.4481 38.3108 67.5278 38.2309C67.7472 38.01 67.3012 37.4061 66.9188 37.4061C66.7087 37.4061 66.7327 37.5889 66.9825 37.8913ZM46.1239 39.6038C45.5504 39.9689 45.9511 40.5893 46.7602 40.5893C47.1853 40.5893 47.3638 40.4123 47.2954 40.0587C47.1707 39.4119 46.7082 39.2323 46.1239 39.6038ZM47.668 39.7748C47.668 40.0476 47.8104 40.271 47.9845 40.271C48.1586 40.271 48.301 40.1364 48.301 39.9715C48.301 39.8066 48.1586 39.5834 47.9845 39.4752C47.8104 39.367 47.668 39.502 47.668 39.7748ZM44.8917 40.3309C44.9607 40.5387 45.1864 40.7654 45.3931 40.8348C45.6245 40.9124 45.695 40.7666 45.577 40.4569C45.356 39.8782 44.7018 39.7579 44.8917 40.3309ZM73.5444 40.6425C74.9251 40.9923 74.9447 41.0146 74.2211 41.4042C73.4251 41.8327 73.063 41.7114 71.724 40.5686C71.1264 40.0587 71.0783 39.9409 71.5275 40.088C71.8545 40.1949 72.7623 40.4445 73.5444 40.6425ZM44.1963 40.6501C44.1906 40.9462 44.3381 41.2829 44.5239 41.3982C45.0816 41.7448 45.1598 41.3794 44.6676 40.7252C44.2624 40.1867 44.2052 40.1774 44.1963 40.6501ZM67.6092 40.8701C67.6092 41.0452 67.7516 41.2769 67.9257 41.3851C68.0998 41.4934 68.2422 41.4386 68.2422 41.2635C68.2422 41.0884 68.0998 40.8567 67.9257 40.7485C67.7516 40.6403 67.6092 40.695 67.6092 40.8701ZM48.69 43.8324C48.759 44.0402 48.9847 44.2669 49.1914 44.3363C49.4228 44.4139 49.4934 44.2681 49.3753 43.9584C49.1544 43.3797 48.5001 43.2594 48.69 43.8324ZM49.4269 48.9452C49.6937 49.8186 49.8273 49.9832 50.0707 49.7384C50.3436 49.464 49.8966 48.229 49.5244 48.229C49.3424 48.229 49.3009 48.5333 49.4269 48.9452ZM29.5667 48.7647C29.7949 48.8567 30.0681 48.8452 30.1732 48.7395C30.2783 48.6339 30.0915 48.5587 29.7579 48.5724C29.3891 48.5877 29.3141 48.6631 29.5667 48.7647ZM48.301 48.8468C48.301 49.0117 48.4435 49.2348 48.6175 49.3431C48.7916 49.4513 48.9341 49.3163 48.9341 49.0435C48.9341 48.7707 48.7916 48.5473 48.6175 48.5473C48.4435 48.5473 48.301 48.6819 48.301 48.8468ZM50.5215 48.786C50.5243 48.9172 50.6645 49.2396 50.8332 49.5022C51.0814 49.8884 51.1409 49.8425 51.145 49.2635C51.1475 48.8694 51.0073 48.5473 50.8332 48.5473C50.6591 48.5473 50.5189 48.6549 50.5215 48.786ZM47.3562 49.1043C47.365 49.5401 47.9471 50.2828 48.1329 50.0956C48.3824 49.8447 47.9851 48.8656 47.6341 48.8656C47.4787 48.8656 47.3536 48.9732 47.3562 49.1043ZM29.3094 49.5022C29.3094 49.6773 29.5316 49.8206 29.8028 49.8206C30.0741 49.8206 30.2083 49.6773 30.1007 49.5022C29.9931 49.3272 29.7712 49.1839 29.6072 49.1839C29.4433 49.1839 29.3094 49.3272 29.3094 49.5022ZM46.4019 49.4634C46.4019 49.6168 46.6155 49.9208 46.8766 50.1389C47.3919 50.5689 47.4565 50.4661 47.1593 49.6875C46.9558 49.1543 46.4019 48.9904 46.4019 49.4634ZM51.7828 49.8206C51.7828 50.4149 51.8673 50.4995 52.1626 50.2025C52.458 49.9055 52.458 49.7356 52.1626 49.4386C51.8673 49.1416 51.7828 49.2263 51.7828 49.8206ZM32.1581 50.4231C32.1581 50.821 33.0517 51.1244 33.2539 50.7949C33.3457 50.646 33.196 50.4371 32.9216 50.3315C32.2581 50.0752 32.1581 50.0873 32.1581 50.4231ZM32.3164 51.7305C32.424 51.9055 32.6544 52.0488 32.8285 52.0488C33.0026 52.0488 33.0571 51.9055 32.9494 51.7305C32.8418 51.5554 32.6114 51.4121 32.4373 51.4121C32.2632 51.4121 32.2088 51.5554 32.3164 51.7305ZM28.3598 53.6712C28.3598 53.9539 25.6126 54.9136 24.803 54.9136C23.9601 54.9136 24.3801 54.3929 26.0947 53.3119C27.4431 52.4616 27.602 52.4279 27.9641 52.9133C28.1819 53.2049 28.3598 53.5461 28.3598 53.6712ZM47.0349 54.4362C47.0349 54.6988 47.1773 54.9136 47.3514 54.9136C47.5255 54.9136 47.668 54.6988 47.668 54.4362C47.668 54.1736 47.5255 53.9587 47.3514 53.9587C47.1773 53.9587 47.0349 54.1736 47.0349 54.4362ZM48.301 54.5765C48.301 55.3453 48.477 55.4226 48.728 54.7647C48.8261 54.5078 48.7701 54.2127 48.6036 54.1093C48.4371 54.0058 48.301 54.2162 48.301 54.5765ZM49.1417 54.9792C49.0414 55.3657 49.0325 55.7553 49.1221 55.8454C49.3269 56.0513 49.8723 55.2075 49.8789 54.6749C49.8868 54.0055 49.3357 54.2331 49.1417 54.9792ZM50.1087 55.2316C49.9087 56.0004 50.3711 56.3906 50.6417 55.6814C50.9108 54.9764 50.8801 54.5953 50.5537 54.5953C50.3999 54.5953 50.1995 54.8818 50.1087 55.2316ZM76.4767 55.8571C76.4881 56.2506 76.9879 56.6717 77.5627 56.7723C78.065 56.8602 78.1094 56.7962 77.803 56.4247C77.5963 56.1742 77.4902 55.9055 77.5675 55.8279C77.6447 55.7502 77.4298 55.6868 77.0898 55.6868C76.7502 55.6868 76.4742 55.7635 76.4767 55.8571ZM44.1558 57.9743C43.7886 58.4193 43.812 58.4728 44.3283 58.3722C44.6565 58.3082 44.9844 58.0771 45.0566 57.8581C45.2446 57.2902 44.6578 57.366 44.1558 57.9743ZM45.1421 58.5667C44.8923 58.8691 44.8683 59.0518 45.0785 59.0518C45.4608 59.0518 45.9068 58.4479 45.6874 58.227C45.6077 58.1471 45.3624 58.2999 45.1421 58.5667ZM45.5919 59.5191C45.0756 59.9119 45.0598 59.988 45.4928 59.9965C45.7761 60.0023 46.185 59.7919 46.4019 59.5293C46.907 58.9171 46.3917 58.9108 45.5919 59.5191ZM34.8226 60.5183C35.6567 60.8401 35.3927 61.2794 33.9781 61.9252C32.2547 62.7118 28.3598 62.8162 28.3598 62.0758C28.3598 61.8132 28.4665 61.5875 28.5972 61.5745C28.7279 61.5614 29.618 61.5149 30.5755 61.4713C31.533 61.4274 32.7437 61.1575 33.266 60.8713C34.4102 60.2439 34.2219 60.2865 34.8226 60.5183ZM23.3197 61.5187C23.333 61.6499 23.3916 62.008 23.4498 62.3145C23.5081 62.6211 23.3903 62.8729 23.1884 62.8748C22.9861 62.8764 22.0811 63.224 21.1775 63.6473C19.2944 64.5288 18.3974 65.7412 17.2759 68.9203C15.9598 72.6507 14.3737 74.0363 12.6895 72.9263C10.4918 71.4783 13.1364 66.0841 17.2161 63.6935C17.444 63.5598 17.9853 63.6903 18.437 63.9879C19.4454 64.6523 20.1196 64.1799 19.3163 63.3717C18.6114 62.6631 19.0146 62.2665 20.9812 61.7346C22.794 61.2447 23.2871 61.1992 23.3197 61.5187ZM27.7267 61.9166C27.7267 62.4762 27.5156 62.5533 25.9858 62.5533C24.4561 62.5533 24.2449 62.4762 24.2449 61.9166C24.2449 61.357 24.4561 61.28 25.9858 61.28C27.5156 61.28 27.7267 61.357 27.7267 61.9166ZM13.5074 67.6008C13.018 68.5198 13.0864 68.7446 13.702 68.2423C14.066 67.9456 14.1613 67.9332 13.9999 68.2034C13.8692 68.4224 13.8847 68.6013 14.0341 68.6013C14.1835 68.6013 14.4978 68.4224 14.7323 68.2034C15.0197 67.9351 15.09 67.9281 14.9485 68.1815C14.8333 68.3881 14.8688 68.6379 15.0273 68.7366C15.1859 68.8353 15.4021 68.6901 15.5072 68.4142C15.7911 67.6702 15.743 67.436 15.303 67.4191C15.0856 67.4108 14.669 67.3042 14.3778 67.1823C14.0201 67.0323 13.7372 67.1686 13.5074 67.6008ZM16.0627 68.6013C15.6512 69.7887 16.2102 69.9188 16.6562 68.7398C17.0357 67.7355 17.0376 67.6464 16.6793 67.6464C16.5223 67.6464 16.2447 68.0761 16.0627 68.6013Z" fill="black"/>
</svg>
