<svg width="292" height="137" viewBox="0 0 292 137" fill="none" xmlns="http://www.w3.org/2000/svg">
<path d="M51.6823 36.2926C51.6823 36.2926 50.5908 41.5291 50.5908 46.5255C50.5908 48.8449 38.7487 52.4569 36.4012 59.6235C35.5069 62.3538 34.562 66.2015 35.1733 69.0378M51.6823 36.2926L53.3196 38.4756M51.6823 36.2926C51.6823 36.2926 47.6108 29.2226 48.5443 24.0131C49.373 19.388 54.5937 14.2339 56.3163 12.6396C56.6696 12.3127 56.9053 11.8808 56.9748 11.4045L57.9113 4.99313C58.1732 3.20059 60.4927 2.65183 61.53 4.13703L61.6423 4.29781L63.8338 7.43565C64.3193 8.13078 65.1888 8.4456 66.0164 8.26096C68.0912 7.79804 72.0806 7.07941 74.8769 7.64055C77.5057 8.16808 80.5994 10.1316 82.5372 11.5194C83.547 12.2425 84.9957 11.9768 85.6163 10.9011L86.714 8.99848C87.4997 7.63655 89.4604 7.67947 90.1531 9.09097C92.5678 14.0111 96.748 23.1825 96.1612 26.6055C94.804 34.5225 89.0987 39.6135 94.524 43.2509C106.531 51.3008 140.057 47.8682 166.29 59.6235C184.639 67.8457 202.31 85.274 210.224 84.4553C214.964 83.9649 220.401 83.4654 224.686 85.8197C238.876 93.6157 238.357 105.321 250.882 107.631C270.12 111.178 288.266 115.836 289.358 127.843C289.526 129.696 289.2 131.583 287.448 132.209C285.538 132.891 278.23 127.478 271.348 125.933C264.663 124.432 254.375 122.616 244.06 119.384C226.159 113.774 215.408 94.8246 202.856 96.4619C188.055 98.3925 182.527 118.292 174.477 121.567C158.714 127.979 128.906 124.159 105.712 127.024C95.5099 128.284 86.2012 135.756 80.3344 134.938C76.7595 134.439 74.566 130.864 75.559 127.024C76.5785 123.082 84.2911 121.192 84.2911 121.192M103.938 104.9C105.05 105.37 105.853 105.717 106.25 105.89C106.436 105.971 106.628 106.023 106.83 106.049C108.358 106.243 115.263 107.227 116.354 109.287C117.663 111.759 115.332 113.457 113.08 113.926C106.531 115.29 100.664 115.29 92.0681 116.928C88.6655 117.576 84.2911 121.192 84.2911 121.192M103.938 104.9C98.8557 102.749 87.3151 98.0274 78.5607 95.6433C63.5064 91.5435 53.8063 94.1565 38.5842 90.7315C27.6692 88.2756 19.4829 92.2323 9.11356 93.7331C2.49706 94.6908 1.16528 90.9648 2.4281 87.457C3.65604 84.046 10.8929 81.0843 15.6626 79.2707C16.9154 78.7943 18.3023 78.4807 19.7558 78.2799M103.938 104.9C103.938 104.9 101.315 108.313 99.0264 108.605C92.6138 109.424 80.3344 108.741 76.3777 111.607C73.8315 113.45 74.4262 116.919 76.3777 119.384C78.3455 121.869 84.2911 121.192 84.2911 121.192M35.1733 69.0378C35.9794 72.7782 38.5842 75.3003 38.5842 76.5419C38.5842 79.678 28.0786 77.1301 19.7558 78.2799M35.1733 69.0378C35.1733 69.0378 29.6982 69.4566 26.1684 71.7666C22.6385 74.0765 19.7558 78.2799 19.7558 78.2799" stroke="white" stroke-width="4" stroke-linecap="round" stroke-linejoin="round"/>
<path d="M58.5959 16.3726C58.5959 16.5242 58.5301 16.7013 58.4087 16.8379C58.2897 16.9719 58.1722 17.0099 58.0951 17.0099C58.0179 17.0099 57.9004 16.9719 57.7814 16.8379C57.66 16.7013 57.5942 16.5242 57.5942 16.3726C57.5942 16.0961 57.8185 15.8718 58.0951 15.8718C58.3717 15.8718 58.5959 16.0961 58.5959 16.3726Z" fill="#414141" fill-opacity="0.8" stroke="white" stroke-width="2" stroke-linecap="round" stroke-linejoin="round"/>
<path d="M59.0499 15.8268C59.0499 16.0529 58.7445 16.2361 58.3677 16.2361C57.991 16.2361 57.6855 16.0529 57.6855 15.8268C57.6855 15.6007 57.991 15.4175 58.3677 15.4175C58.7445 15.4175 59.0499 15.6007 59.0499 15.8268Z" fill="#414141"/>
<path d="M72.1033 19.5108C72.1033 19.6611 72.0182 19.9089 71.8147 20.1334C71.6089 20.3604 71.4155 20.4209 71.3296 20.4209C71.2634 20.4209 71.1152 20.38 70.9479 20.1742C70.7813 19.9692 70.6924 19.7101 70.6924 19.5108C70.6924 19.1588 70.9777 18.8735 71.3296 18.8735C71.7869 18.8735 72.1033 19.2585 72.1033 19.5108Z" fill="#414141" fill-opacity="0.8" stroke="white" stroke-width="2" stroke-linecap="round" stroke-linejoin="round"/>
<ellipse cx="71.4664" cy="18.8285" rx="0.682192" ry="0.409315" fill="#414141"/>
<path d="M62.8704 20.3604C62.8704 19.9828 61.9263 19.5107 61.6431 19.5107C61.3599 19.5107 60.4524 20.0772 60.4158 20.3604C60.3791 20.6437 61.171 21.4263 61.4543 21.4934C61.7375 21.5604 62.8704 20.7381 62.8704 20.3604Z" fill="#414141" fill-opacity="0.6" stroke="white" stroke-width="2" stroke-linecap="round" stroke-linejoin="round"/>
<path d="M60.6978 20.3604C60.6977 20.1493 61.6419 19.7939 61.6419 19.7939C61.6419 19.7939 61.2332 20.2641 61.2332 20.3604C61.2332 20.6436 61.6419 21.2844 61.6419 21.2844C61.6419 21.2844 60.6978 20.5492 60.6978 20.3604Z" fill="#414141"/>
</svg>
