<svg width="434" height="436" viewBox="0 0 434 436" fill="none" xmlns="http://www.w3.org/2000/svg">
<path d="M113.725 80.7558C107.353 88.7793 113.344 96.076 113.738 108.34C114.746 126.258 124.617 130.842 131.593 126.027C138.57 121.213 135.914 110.095 141.75 103.409C147.289 96.3408 158.77 96.913 161.941 89.2335C165.458 81.5923 158.969 72.8438 140.751 75.3668C128.934 77.2015 120.395 73.1142 113.725 80.7558Z" fill="white"/>
<path d="M329.476 419.373C344.025 419.456 346.279 405.521 359.079 393.601C377.377 375.671 373.104 359.656 361.437 355.858C349.771 352.06 340.308 365.598 327.695 364.904C314.947 364.92 304.868 350.737 293.67 354.138C282.191 357.092 278.842 372.975 298.519 392.277C311.494 404.611 315.06 418.579 329.476 419.373Z" fill="white"/>
<path d="M61.5931 129.876C76.0889 130.405 86.8213 138.584 86.6304 147.705C85.908 156.767 73.5682 164.006 59.6038 163.537C45.108 163.008 34.3755 154.829 34.5665 145.708C34.8312 136.057 47.0973 129.348 61.5931 129.876Z" fill="white"/>
<path d="M147.645 42.558C151.118 56.399 161.181 65.5865 170.208 62.8176C179.161 60.5788 183.74 47.0906 180.266 33.2496C176.793 19.4087 166.73 10.2212 157.703 12.9901C148.676 15.759 144.171 28.7171 147.645 42.558Z" fill="white"/>
<path d="M78.0285 74.277C91.036 81.633 97.917 94.2275 92.9425 102.821C87.968 111.414 73.2488 112.474 60.2413 105.118C47.2338 97.7625 40.3527 85.168 45.3272 76.5747C50.3017 67.9815 65.021 66.9211 78.0285 74.277Z" fill="white"/>
<path d="M85.7417 57.4472C95.5047 68.7502 109.564 72.4581 116.904 66.2758C124.317 59.5636 122.514 45.3752 112.751 34.0723C102.988 22.7693 88.928 19.0613 81.5888 25.2436C74.1757 31.9558 75.9788 46.1442 85.7417 57.4472Z" fill="white"/>
</svg>
