<svg width="409" height="397" viewBox="0 0 409 397" fill="none" xmlns="http://www.w3.org/2000/svg">
<path d="M108.002 73.0497C101.983 80.3924 107.576 87.0306 107.891 98.2198C108.758 114.566 118.006 118.716 124.578 114.3C131.15 109.883 128.706 99.7478 134.215 93.6271C139.448 87.1588 150.225 87.6425 153.238 80.6245C156.573 73.6402 150.52 65.679 133.402 68.042C122.299 69.7557 114.299 66.0546 108.002 73.0497Z" fill="white"/>
<path d="M311.019 381.172C324.748 381.199 326.938 368.521 339.07 357.639C356.418 341.274 352.457 326.725 341.465 323.31C330.472 319.895 321.482 332.237 309.582 331.648C297.552 331.705 288.104 318.841 277.521 321.971C266.675 324.696 263.444 339.15 281.926 356.637C294.116 367.809 297.418 380.499 311.019 381.172Z" fill="white"/>
<path d="M58.7619 117.661C72.3926 118.096 82.4496 125.536 82.2293 133.874C81.5095 142.161 69.8719 148.819 56.7408 148.436C43.1102 148.001 33.053 140.561 33.2733 132.223C33.5654 123.4 45.1313 117.226 58.7619 117.661Z" fill="white"/>
<path d="M139.864 38.3278C143.061 50.9381 152.458 59.2827 160.938 56.7276C169.346 54.6561 173.701 42.3406 170.504 29.7304C167.308 17.1201 157.91 8.77546 149.431 11.3306C140.951 13.8858 136.668 25.7176 139.864 38.3278Z" fill="white"/>
<path d="M74.2283 67.0477C86.4245 73.7248 92.8375 85.2085 88.1224 93.0761C83.4073 100.944 69.5643 101.962 57.3681 95.2848C45.1719 88.6077 38.7588 77.1241 43.4739 69.2564C48.189 61.3888 62.0321 60.3707 74.2283 67.0477Z" fill="white"/>
<path d="M81.4466 51.8924C90.5671 62.1772 103.758 65.5148 110.68 59.8471C117.673 53.6954 116.043 40.7503 106.922 30.4655C97.8015 20.1808 84.6108 16.8432 77.689 22.5109C70.6955 28.6626 72.326 41.6077 81.4466 51.8924Z" fill="white"/>
</svg>
