<svg width="17" height="17" viewBox="0 0 17 17" fill="none" xmlns="http://www.w3.org/2000/svg">
<g clip-path="url(#clip0_43_9875)">
<path d="M12.3053 7.13481H10.9053H10.4053V6.63481V5.08481V4.58481H10.9053H11.9553C12.2303 4.58481 12.4553 4.38481 12.4553 4.08481V1.43481C12.4553 1.15981 12.2553 0.934814 11.9553 0.934814H10.1303C8.15527 0.934814 6.78027 2.33481 6.78027 4.40981V6.58481V7.08481H6.28027H4.58027C4.23027 7.08481 3.90527 7.35981 3.90527 7.75981V9.55981C3.90527 9.90981 4.18027 10.2348 4.58027 10.2348H6.23027H6.73027V10.7348V15.7598C6.73027 16.1098 7.00527 16.4348 7.40527 16.4348H9.75527C9.90527 16.4348 10.0303 16.3598 10.1303 16.2598C10.2303 16.1598 10.3053 15.9848 10.3053 15.8348V10.7598V10.2598H10.8303H11.9553C12.2803 10.2598 12.5303 10.0598 12.5803 9.75981V9.73481V9.70981L12.9303 7.98481C12.9553 7.80981 12.9303 7.60981 12.7803 7.40981C12.7303 7.28481 12.5053 7.15981 12.3053 7.13481Z" fill="#F29188"/>
</g>
<defs>
<clipPath id="clip0_43_9875">
<rect width="16" height="16" fill="white" transform="translate(0.455078 0.684814)"/>
</clipPath>
</defs>
</svg>
