<svg width="17" height="17" viewBox="0 0 17 17" fill="none" xmlns="http://www.w3.org/2000/svg">
<path d="M15.0906 4.98479C15.1797 4.88091 15.0635 4.74515 14.9316 4.79378C14.6374 4.90232 14.3684 4.97391 13.9707 5.01811C14.4599 4.74571 14.6874 4.35637 14.8725 3.8795C14.9171 3.76448 14.7825 3.66011 14.6666 3.71505C14.1957 3.93831 13.6876 4.10395 13.1534 4.20182C12.6253 3.67847 11.8726 3.35144 11.0399 3.35144C9.44097 3.35144 8.14437 4.55729 8.14437 6.04422C8.14437 6.25531 8.17024 6.46093 8.21904 6.65781C5.92061 6.55072 3.87111 5.5675 2.44723 4.05985C2.34963 3.95651 2.17255 3.97023 2.11178 4.09626C1.94967 4.4325 1.8593 4.8055 1.8593 5.19821C1.8593 6.13227 2.37031 6.95639 3.14713 7.43931C2.79883 7.42884 2.46573 7.36097 2.15877 7.2458C2.00932 7.18973 1.838 7.28827 1.85808 7.43897C2.01223 8.59624 2.94918 9.55097 4.15857 9.77657C3.9157 9.83837 3.6599 9.87117 3.39528 9.87117C3.33112 9.87117 3.26751 9.86917 3.20449 9.86531C3.04411 9.85537 2.91376 9.99884 2.98252 10.1361C3.43619 11.0416 4.4158 11.6737 5.55577 11.6934C4.56491 12.4158 3.31648 12.8462 1.95985 12.8462C1.79258 12.8462 1.72082 13.0612 1.86922 13.1342C3.01537 13.6976 4.32061 14.0181 5.70749 14.0181C11.0334 14.0181 13.9454 9.91497 13.9454 6.35648C13.9454 6.24 13.9425 6.12351 13.9372 6.00813C14.3695 5.71771 14.7581 5.37237 15.0906 4.98479Z" fill="#F29188"/>
</svg>
