<svg width="32" height="32" viewBox="0 0 32 32" fill="none" xmlns="http://www.w3.org/2000/svg">
<path d="M28.0001 4.80005H4.0001C2.3001 4.80005 0.850098 6.20005 0.850098 7.95005V24.15C0.850098 25.85 2.2501 27.3 4.0001 27.3H28.0001C29.7001 27.3 31.1501 25.9 31.1501 24.15V7.90005C31.1501 6.20005 29.7001 4.80005 28.0001 4.80005ZM28.0001 7.05005C28.0501 7.05005 28.1001 7.05005 28.1501 7.05005L16.0001 14.85L3.8501 7.05005C3.9001 7.05005 3.9501 7.05005 4.0001 7.05005H28.0001ZM28.0001 24.9501H4.0001C3.5001 24.9501 3.1001 24.55 3.1001 24.05V9.25005L14.8001 16.75C15.1501 17 15.5501 17.1 15.9501 17.1C16.3501 17.1 16.7501 17 17.1001 16.75L28.8001 9.25005V24.1C28.9001 24.6 28.5001 24.9501 28.0001 24.9501Z" fill="#414141"/>
</svg>
