<svg width="17" height="17" viewBox="0 0 17 17" fill="none" xmlns="http://www.w3.org/2000/svg">
<g clip-path="url(#clip0_43_9881)">
<path d="M15.8801 4.95977C15.7051 4.28477 15.1801 3.75977 14.5051 3.58477C13.3051 3.25977 8.45508 3.25977 8.45508 3.25977C8.45508 3.25977 3.60508 3.25977 2.40508 3.58477C1.73008 3.75977 1.20508 4.28477 1.03008 4.95977C0.705078 6.18477 0.705078 8.68477 0.705078 8.68477C0.705078 8.68477 0.705078 11.2098 1.03008 12.4098C1.20508 13.0848 1.73008 13.6098 2.40508 13.7848C3.60508 14.1098 8.45508 14.1098 8.45508 14.1098C8.45508 14.1098 13.3051 14.1098 14.5051 13.7848C15.1801 13.6098 15.7051 13.0848 15.8801 12.4098C16.2051 11.2098 16.2051 8.68477 16.2051 8.68477C16.2051 8.68477 16.2051 6.18477 15.8801 4.95977ZM6.90508 11.0098V6.35977L10.9301 8.68477L6.90508 11.0098Z" fill="#F29188"/>
</g>
<defs>
<clipPath id="clip0_43_9881">
<rect width="16" height="16" fill="white" transform="translate(0.455078 0.684814)"/>
</clipPath>
</defs>
</svg>
