<svg width="32" height="32" viewBox="0 0 32 32" fill="none" xmlns="http://www.w3.org/2000/svg">
<path d="M29.4499 9.7L17.8999 1.6C16.7499 0.8 15.2499 0.8 14.0999 1.6L2.5499 9.7C1.6499 10.3 1.1499 11.35 1.1499 12.4V27.75C1.1499 29.55 2.6499 31.05 4.4499 31.05H27.5999C29.3999 31.05 30.8999 29.55 30.8999 27.75V12.4C30.8999 11.3 30.3499 10.3 29.4499 9.7ZM20.5499 28.75H11.4499V23C11.4499 22.65 11.5999 22.35 11.8999 22.15L15.3999 19.7C15.7499 19.45 16.2499 19.45 16.5999 19.7L20.0999 22.15C20.3999 22.35 20.5499 22.65 20.5499 23V28.75ZM28.6499 27.7C28.6499 28.3 28.1999 28.75 27.5999 28.75H22.7999V23C22.7999 21.95 22.2999 20.9 21.3999 20.3L17.8999 17.85C16.7499 17.05 15.2499 17.05 14.0999 17.85L10.5999 20.3C9.6999 20.9 9.1999 21.95 9.1999 23V28.75H4.3999C3.7999 28.75 3.3499 28.3 3.3499 27.7V12.4C3.3499 12.05 3.4999 11.75 3.7999 11.55L15.3999 3.4C15.5999 3.25 15.7999 3.2 15.9999 3.2C16.1999 3.2 16.3999 3.25 16.5999 3.4L28.1999 11.5C28.4999 11.7 28.6499 12 28.6499 12.35V27.7Z" fill="#414141"/>
</svg>
