<svg width="17" height="17" viewBox="0 0 17 17" fill="none" xmlns="http://www.w3.org/2000/svg">
<path d="M5.08171 4.0182C5.08153 4.37183 4.94088 4.71089 4.69071 4.96082C4.44054 5.21074 4.10133 5.35105 3.74771 5.35087C3.39408 5.35069 3.05502 5.21005 2.80509 4.95987C2.55517 4.7097 2.41486 4.37049 2.41504 4.01687C2.41522 3.66325 2.55586 3.32418 2.80603 3.07426C3.05621 2.82433 3.39542 2.68403 3.74904 2.6842C4.10266 2.68438 4.44173 2.82503 4.69165 3.0752C4.94158 3.32537 5.08188 3.66458 5.08171 4.0182ZM5.12171 6.3382H2.45504V14.6849H5.12171V6.3382ZM9.33504 6.3382H6.68171V14.6849H9.30837V10.3049C9.30837 7.86487 12.4884 7.6382 12.4884 10.3049V14.6849H15.1217V9.3982C15.1217 5.28487 10.415 5.4382 9.30837 7.4582L9.33504 6.3382Z" fill="#F29188"/>
</svg>
