<svg width="48" height="46" viewBox="0 0 48 46" fill="none" xmlns="http://www.w3.org/2000/svg">
<path d="M22.3485 22.1004C17.9071 21.4758 16.083 25.0331 11.3122 27.8241C4.39027 31.9123 4.55368 36.517 8.02579 38.0035C11.3752 39.5111 15.2973 36.2873 19.1478 37.1295C23.0759 37.7267 25.3251 41.9719 29.196 41.6524C32.9443 41.354 35.024 37.1736 30.2393 31.0488C27.0086 26.9726 26.8349 22.9488 22.3485 22.1004Z" fill="#F2DCC9"/>
<path d="M12.3557 17.2206C14.2021 20.7245 13.5496 24.4274 11.108 25.543C8.66639 26.6586 5.08182 24.6124 3.35813 21.0873C1.51174 17.5834 2.04152 13.9016 4.60582 12.7649C7.17012 11.6281 10.5093 13.7166 12.3557 17.2206Z" fill="#F2DCC9"/>
<path d="M33.7937 20.9391C30.6404 23.5672 29.7201 27.2004 31.6197 29.0737C33.5193 30.947 37.5682 30.2493 40.5763 27.5304C43.7295 24.9023 44.6498 21.2691 42.7502 19.3959C40.8506 17.5226 36.8018 18.2202 33.7937 20.9391Z" fill="#F2DCC9"/>
<path d="M23.5699 11.1187C23.4982 15.1847 21.1159 18.4908 18.204 18.5292C15.2922 18.5677 12.955 15.1483 13.0267 11.0822C13.0985 7.01613 15.4808 3.71012 18.3927 3.67167C21.3045 3.63322 23.6417 7.05259 23.5699 11.1187Z" fill="#F2DCC9"/>
<path d="M25.8131 11.5428C24.1791 15.4148 25.0664 19.1998 27.7902 20.1203C30.5139 21.0409 33.98 18.7063 35.614 14.8343C37.2479 10.9624 36.3606 7.17736 33.6369 6.25682C30.9132 5.33629 27.4471 7.67083 25.8131 11.5428Z" fill="#F2DCC9"/>
</svg>
