<svg width="35" height="34" viewBox="0 0 35 34" fill="none" xmlns="http://www.w3.org/2000/svg">
<path d="M16.732 16.8357C14.432 18.1455 14.983 20.4645 13.8507 23.4836C12.2484 27.883 14.0977 30.019 16.2627 29.5148C18.4276 29.0107 18.9358 26.112 21.0933 25.1184C23.1508 24.0094 25.8699 25.2269 27.4669 23.7062C29.114 22.2433 28.3844 19.4775 23.8247 18.2973C20.7813 17.5465 19.1213 15.7493 16.732 16.8357Z" fill="#F2DCC9"/>
<path d="M9.67461 18.0646C11.9076 19.2704 13.2126 21.35 12.5988 22.701C11.9273 24.0998 9.58159 24.2513 7.34865 23.0454C5.11571 21.8396 3.81068 19.76 4.42447 18.409C5.09596 17.0102 7.44167 16.8587 9.67461 18.0646Z" fill="#F2DCC9"/>
<path d="M21.3611 12.0869C20.9695 14.5089 21.947 16.5961 23.4876 16.8187C25.0283 17.0413 26.6385 15.3083 27.0302 12.8864C27.4219 10.4645 26.4443 8.37723 24.9037 8.15465C23.3027 7.98208 21.6924 9.71502 21.3611 12.0869Z" fill="#F2DCC9"/>
<path d="M12.8449 11.1642C14.5273 13.2263 14.7611 15.7551 13.4494 16.7365C12.1377 17.718 9.70014 16.8046 8.01776 14.7425C6.33538 12.6804 6.10164 10.1516 7.41335 9.17016C8.72505 8.18871 11.1626 9.10205 12.8449 11.1642Z" fill="#F2DCC9"/>
<path d="M14.0576 10.4481C14.7951 12.8041 16.6411 14.2421 18.1357 13.7701C19.6886 13.2498 20.337 10.9904 19.6477 8.69019C18.9102 6.33421 17.0642 4.89615 15.5696 5.36815C14.0268 5.78442 13.3201 8.09213 14.0576 10.4481Z" fill="#F2DCC9"/>
</svg>
