<svg width="134" height="59" viewBox="0 0 134 59" fill="none" xmlns="http://www.w3.org/2000/svg">
<path d="M65.236 23.544C65.236 25.4 65.0973 27.0533 64.82 28.504C64.5427 29.9547 64.0947 31.192 63.476 32.216C62.8787 33.2187 62.0893 33.9867 61.108 34.52C60.148 35.0533 58.9853 35.32 57.62 35.32C55.9133 35.32 54.4947 34.8507 53.364 33.912C52.2547 32.9733 51.4227 31.6293 50.868 29.88C50.3347 28.1093 50.068 25.9973 50.068 23.544C50.068 21.0693 50.3133 18.9573 50.804 17.208C51.316 15.4587 52.1267 14.1253 53.236 13.208C54.3453 12.2693 55.8067 11.8 57.62 11.8C59.3267 11.8 60.7453 12.2693 61.876 13.208C63.0067 14.1253 63.8493 15.4587 64.404 17.208C64.9587 18.9573 65.236 21.0693 65.236 23.544ZM52.884 23.544C52.884 25.6347 53.0333 27.3733 53.332 28.76C53.652 30.1467 54.1533 31.192 54.836 31.896C55.54 32.5787 56.468 32.92 57.62 32.92C58.772 32.92 59.6893 32.5787 60.372 31.896C61.076 31.2133 61.588 30.1787 61.908 28.792C62.228 27.384 62.388 25.6347 62.388 23.544C62.388 21.4533 62.228 19.7253 61.908 18.36C61.588 16.9733 61.076 15.9387 60.372 15.256C59.6893 14.552 58.772 14.2 57.62 14.2C56.468 14.2 55.54 14.552 54.836 15.256C54.1533 15.9387 53.652 16.9733 53.332 18.36C53.0333 19.7253 52.884 21.4533 52.884 23.544ZM83.4525 35H68.3485V32.664L74.3325 26.616C75.4845 25.464 76.4552 24.44 77.2445 23.544C78.0338 22.648 78.6312 21.7733 79.0365 20.92C79.4418 20.0453 79.6445 19.096 79.6445 18.072C79.6445 16.8133 79.2712 15.864 78.5245 15.224C77.7778 14.5627 76.8072 14.232 75.6125 14.232C74.5032 14.232 73.5218 14.424 72.6685 14.808C71.8365 15.192 70.9832 15.7253 70.1085 16.408L68.6045 14.52C69.2018 14.008 69.8525 13.5493 70.5565 13.144C71.2818 12.7387 72.0605 12.4187 72.8925 12.184C73.7458 11.9493 74.6525 11.832 75.6125 11.832C77.0418 11.832 78.2685 12.0773 79.2925 12.568C80.3165 13.0587 81.1058 13.7627 81.6605 14.68C82.2365 15.576 82.5245 16.6533 82.5245 17.912C82.5245 18.808 82.3858 19.6613 82.1085 20.472C81.8312 21.2613 81.4365 22.04 80.9245 22.808C80.4125 23.576 79.7938 24.3547 79.0685 25.144C78.3432 25.9333 77.5432 26.7547 76.6685 27.608L71.9005 32.312V32.44H83.4525V35Z" fill="black"/>
<path d="M1.25 58.138C1.25 55.338 39.101 37.4572 78.25 48.6444C81.75 49.6445 124.25 62.644 132.75 48.644" stroke="black" stroke-width="2"/>
</svg>
