<svg width="165" height="36" viewBox="0 0 165 36" fill="none" xmlns="http://www.w3.org/2000/svg">
<path d="M9.368 11.272C9.368 12.2 9.29867 13.0267 9.16 13.752C9.02133 14.4773 8.79733 15.096 8.488 15.608C8.18933 16.1093 7.79467 16.4933 7.304 16.76C6.824 17.0267 6.24267 17.16 5.56 17.16C4.70667 17.16 3.99733 16.9253 3.432 16.456C2.87733 15.9867 2.46133 15.3147 2.184 14.44C1.91733 13.5547 1.784 12.4987 1.784 11.272C1.784 10.0347 1.90667 8.97867 2.152 8.104C2.408 7.22933 2.81333 6.56267 3.368 6.104C3.92267 5.63467 4.65333 5.4 5.56 5.4C6.41333 5.4 7.12267 5.63467 7.688 6.104C8.25333 6.56267 8.67467 7.22933 8.952 8.104C9.22933 8.97867 9.368 10.0347 9.368 11.272ZM3.192 11.272C3.192 12.3173 3.26667 13.1867 3.416 13.88C3.576 14.5733 3.82667 15.096 4.168 15.448C4.52 15.7893 4.984 15.96 5.56 15.96C6.136 15.96 6.59467 15.7893 6.936 15.448C7.288 15.1067 7.544 14.5893 7.704 13.896C7.864 13.192 7.944 12.3173 7.944 11.272C7.944 10.2267 7.864 9.36267 7.704 8.68C7.544 7.98667 7.288 7.46933 6.936 7.128C6.59467 6.776 6.136 6.6 5.56 6.6C4.984 6.6 4.52 6.776 4.168 7.128C3.82667 7.46933 3.576 7.98667 3.416 8.68C3.26667 9.36267 3.192 10.2267 3.192 11.272ZM18.0443 8.248C18.0443 8.76 17.9483 9.20267 17.7563 9.576C17.5643 9.94933 17.2869 10.2533 16.9243 10.488C16.5723 10.7227 16.1563 10.888 15.6763 10.984V11.048C16.5936 11.1547 17.2763 11.4427 17.7243 11.912C18.1723 12.3813 18.3963 12.9947 18.3963 13.752C18.3963 14.4133 18.2416 15.0053 17.9323 15.528C17.6229 16.04 17.1429 16.44 16.4923 16.728C15.8523 17.016 15.0256 17.16 14.0123 17.16C13.4149 17.16 12.8603 17.112 12.3483 17.016C11.8363 16.9307 11.3456 16.7707 10.8763 16.536V15.224C11.3563 15.4587 11.8736 15.6453 12.4283 15.784C12.9829 15.912 13.5163 15.976 14.0283 15.976C15.0523 15.976 15.7883 15.7787 16.2363 15.384C16.6949 14.9787 16.9243 14.424 16.9243 13.72C16.9243 13.24 16.7963 12.856 16.5403 12.568C16.2949 12.2693 15.9323 12.0507 15.4523 11.912C14.9723 11.7733 14.3963 11.704 13.7243 11.704H12.6203V10.504H13.7403C14.3696 10.504 14.8923 10.4133 15.3083 10.232C15.7349 10.0507 16.0549 9.8 16.2683 9.48C16.4923 9.14933 16.6043 8.77067 16.6043 8.344C16.6043 7.78933 16.4176 7.36267 16.0443 7.064C15.6709 6.75467 15.1643 6.6 14.5243 6.6C14.1189 6.6 13.7509 6.64267 13.4203 6.728C13.0896 6.80267 12.7803 6.91467 12.4923 7.064C12.2149 7.20267 11.9323 7.368 11.6443 7.56L10.9403 6.6C11.2176 6.38667 11.5323 6.18933 11.8843 6.008C12.2469 5.82667 12.6469 5.68267 13.0843 5.576C13.5216 5.46933 13.9963 5.416 14.5083 5.416C15.7029 5.416 16.5883 5.68267 17.1643 6.216C17.7509 6.74933 18.0443 7.42667 18.0443 8.248Z" fill="#414141"/>
<path d="M1 35C1 32.2294 33.526 14.5364 67.1673 25.6061C70.1749 26.5957 106.696 39.4587 114 25.6058" stroke="#414141" stroke-width="2"/>
</svg>
