<svg width="166" height="36" viewBox="0 0 166 36" fill="none" xmlns="http://www.w3.org/2000/svg">
<path d="M9.868 11.272C9.868 12.2 9.79867 13.0267 9.66 13.752C9.52133 14.4773 9.29733 15.096 8.988 15.608C8.68933 16.1093 8.29467 16.4933 7.804 16.76C7.324 17.0267 6.74267 17.16 6.06 17.16C5.20667 17.16 4.49733 16.9253 3.932 16.456C3.37733 15.9867 2.96133 15.3147 2.684 14.44C2.41733 13.5547 2.284 12.4987 2.284 11.272C2.284 10.0347 2.40667 8.97867 2.652 8.104C2.908 7.22933 3.31333 6.56267 3.868 6.104C4.42267 5.63467 5.15333 5.4 6.06 5.4C6.91333 5.4 7.62267 5.63467 8.188 6.104C8.75333 6.56267 9.17467 7.22933 9.452 8.104C9.72933 8.97867 9.868 10.0347 9.868 11.272ZM3.692 11.272C3.692 12.3173 3.76667 13.1867 3.916 13.88C4.076 14.5733 4.32667 15.096 4.668 15.448C5.02 15.7893 5.484 15.96 6.06 15.96C6.636 15.96 7.09467 15.7893 7.436 15.448C7.788 15.1067 8.044 14.5893 8.204 13.896C8.364 13.192 8.444 12.3173 8.444 11.272C8.444 10.2267 8.364 9.36267 8.204 8.68C8.044 7.98667 7.788 7.46933 7.436 7.128C7.09467 6.776 6.636 6.6 6.06 6.6C5.484 6.6 5.02 6.776 4.668 7.128C4.32667 7.46933 4.076 7.98667 3.916 8.68C3.76667 9.36267 3.692 10.2267 3.692 11.272ZM18.9763 17H11.4243V15.832L14.4163 12.808C14.9923 12.232 15.4776 11.72 15.8723 11.272C16.2669 10.824 16.5656 10.3867 16.7683 9.96C16.9709 9.52267 17.0723 9.048 17.0723 8.536C17.0723 7.90667 16.8856 7.432 16.5123 7.112C16.1389 6.78133 15.6536 6.616 15.0563 6.616C14.5016 6.616 14.0109 6.712 13.5843 6.904C13.1683 7.096 12.7416 7.36267 12.3043 7.704L11.5523 6.76C11.8509 6.504 12.1763 6.27467 12.5283 6.072C12.8909 5.86933 13.2803 5.70933 13.6963 5.592C14.1229 5.47467 14.5763 5.416 15.0563 5.416C15.7709 5.416 16.3843 5.53867 16.8963 5.784C17.4083 6.02933 17.8029 6.38133 18.0803 6.84C18.3683 7.288 18.5123 7.82667 18.5123 8.456C18.5123 8.904 18.4429 9.33067 18.3043 9.736C18.1656 10.1307 17.9683 10.52 17.7123 10.904C17.4563 11.288 17.1469 11.6773 16.7843 12.072C16.4216 12.4667 16.0216 12.8773 15.5843 13.304L13.2003 15.656V15.72H18.9763V17Z" fill="#414141"/>
<path d="M1.5 35C1.5 32.2294 34.026 14.5364 67.6673 25.6061C70.6749 26.5957 107.196 39.4587 114.5 25.6058" stroke="#414141" stroke-width="2"/>
</svg>
