<svg width="134" height="59" viewBox="0 0 134 59" fill="none" xmlns="http://www.w3.org/2000/svg">
<path d="M65.236 23.544C65.236 25.4 65.0973 27.0533 64.82 28.504C64.5427 29.9547 64.0947 31.192 63.476 32.216C62.8787 33.2187 62.0893 33.9867 61.108 34.52C60.148 35.0533 58.9853 35.32 57.62 35.32C55.9133 35.32 54.4947 34.8507 53.364 33.912C52.2547 32.9733 51.4227 31.6293 50.868 29.88C50.3347 28.1093 50.068 25.9973 50.068 23.544C50.068 21.0693 50.3133 18.9573 50.804 17.208C51.316 15.4587 52.1267 14.1253 53.236 13.208C54.3453 12.2693 55.8067 11.8 57.62 11.8C59.3267 11.8 60.7453 12.2693 61.876 13.208C63.0067 14.1253 63.8493 15.4587 64.404 17.208C64.9587 18.9573 65.236 21.0693 65.236 23.544ZM52.884 23.544C52.884 25.6347 53.0333 27.3733 53.332 28.76C53.652 30.1467 54.1533 31.192 54.836 31.896C55.54 32.5787 56.468 32.92 57.62 32.92C58.772 32.92 59.6893 32.5787 60.372 31.896C61.076 31.2133 61.588 30.1787 61.908 28.792C62.228 27.384 62.388 25.6347 62.388 23.544C62.388 21.4533 62.228 19.7253 61.908 18.36C61.588 16.9733 61.076 15.9387 60.372 15.256C59.6893 14.552 58.772 14.2 57.62 14.2C56.468 14.2 55.54 14.552 54.836 15.256C54.1533 15.9387 53.652 16.9733 53.332 18.36C53.0333 19.7253 52.884 21.4533 52.884 23.544ZM78.1725 35H75.4205V19.032C75.4205 18.4133 75.4205 17.8907 75.4205 17.464C75.4418 17.0373 75.4632 16.6427 75.4845 16.28C75.5058 15.896 75.5272 15.5013 75.5485 15.096C75.2072 15.4373 74.8978 15.7253 74.6205 15.96C74.3432 16.1947 73.9912 16.4933 73.5645 16.856L71.1325 18.84L69.6605 16.952L75.8365 12.152H78.1725V35Z" fill="#414141"/>
<path d="M1.25 58.138C1.25 55.338 39.101 37.4572 78.25 48.6444C81.75 49.6445 124.25 62.644 132.75 48.644" stroke="#414141" stroke-width="2"/>
</svg>
