<svg width="165" height="36" viewBox="0 0 165 36" fill="none" xmlns="http://www.w3.org/2000/svg">
<path d="M9.368 11.272C9.368 12.2 9.29867 13.0267 9.16 13.752C9.02133 14.4773 8.79733 15.096 8.488 15.608C8.18933 16.1093 7.79467 16.4933 7.304 16.76C6.824 17.0267 6.24267 17.16 5.56 17.16C4.70667 17.16 3.99733 16.9253 3.432 16.456C2.87733 15.9867 2.46133 15.3147 2.184 14.44C1.91733 13.5547 1.784 12.4987 1.784 11.272C1.784 10.0347 1.90667 8.97867 2.152 8.104C2.408 7.22933 2.81333 6.56267 3.368 6.104C3.92267 5.63467 4.65333 5.4 5.56 5.4C6.41333 5.4 7.12267 5.63467 7.688 6.104C8.25333 6.56267 8.67467 7.22933 8.952 8.104C9.22933 8.97867 9.368 10.0347 9.368 11.272ZM3.192 11.272C3.192 12.3173 3.26667 13.1867 3.416 13.88C3.576 14.5733 3.82667 15.096 4.168 15.448C4.52 15.7893 4.984 15.96 5.56 15.96C6.136 15.96 6.59467 15.7893 6.936 15.448C7.288 15.1067 7.544 14.5893 7.704 13.896C7.864 13.192 7.944 12.3173 7.944 11.272C7.944 10.2267 7.864 9.36267 7.704 8.68C7.544 7.98667 7.288 7.46933 6.936 7.128C6.59467 6.776 6.136 6.6 5.56 6.6C4.984 6.6 4.52 6.776 4.168 7.128C3.82667 7.46933 3.576 7.98667 3.416 8.68C3.26667 9.36267 3.192 10.2267 3.192 11.272ZM15.8363 17H14.4603V9.016C14.4603 8.70667 14.4603 8.44533 14.4603 8.232C14.4709 8.01867 14.4816 7.82133 14.4923 7.64C14.5029 7.448 14.5136 7.25067 14.5243 7.048C14.3536 7.21867 14.1989 7.36267 14.0603 7.48C13.9216 7.59733 13.7456 7.74667 13.5323 7.928L12.3163 8.92L11.5803 7.976L14.6683 5.576H15.8363V17Z" fill="#414141"/>
<path d="M1 35C1 32.2294 33.526 14.5364 67.1673 25.6061C70.1749 26.5957 106.696 39.4587 114 25.6058" stroke="#414141" stroke-width="2"/>
</svg>
