<svg width="134" height="59" viewBox="0 0 134 59" fill="none" xmlns="http://www.w3.org/2000/svg">
<path d="M65.236 23.544C65.236 25.4 65.0973 27.0533 64.82 28.504C64.5427 29.9547 64.0947 31.192 63.476 32.216C62.8787 33.2187 62.0893 33.9867 61.108 34.52C60.148 35.0533 58.9853 35.32 57.62 35.32C55.9133 35.32 54.4947 34.8507 53.364 33.912C52.2547 32.9733 51.4227 31.6293 50.868 29.88C50.3347 28.1093 50.068 25.9973 50.068 23.544C50.068 21.0693 50.3133 18.9573 50.804 17.208C51.316 15.4587 52.1267 14.1253 53.236 13.208C54.3453 12.2693 55.8067 11.8 57.62 11.8C59.3267 11.8 60.7453 12.2693 61.876 13.208C63.0067 14.1253 63.8493 15.4587 64.404 17.208C64.9587 18.9573 65.236 21.0693 65.236 23.544ZM52.884 23.544C52.884 25.6347 53.0333 27.3733 53.332 28.76C53.652 30.1467 54.1533 31.192 54.836 31.896C55.54 32.5787 56.468 32.92 57.62 32.92C58.772 32.92 59.6893 32.5787 60.372 31.896C61.076 31.2133 61.588 30.1787 61.908 28.792C62.228 27.384 62.388 25.6347 62.388 23.544C62.388 21.4533 62.228 19.7253 61.908 18.36C61.588 16.9733 61.076 15.9387 60.372 15.256C59.6893 14.552 58.772 14.2 57.62 14.2C56.468 14.2 55.54 14.552 54.836 15.256C54.1533 15.9387 53.652 16.9733 53.332 18.36C53.0333 19.7253 52.884 21.4533 52.884 23.544ZM82.5885 17.496C82.5885 18.52 82.3965 19.4053 82.0125 20.152C81.6285 20.8987 81.0738 21.5067 80.3485 21.976C79.6445 22.4453 78.8125 22.776 77.8525 22.968V23.096C79.6872 23.3093 81.0525 23.8853 81.9485 24.824C82.8445 25.7627 83.2925 26.9893 83.2925 28.504C83.2925 29.8267 82.9832 31.0107 82.3645 32.056C81.7458 33.08 80.7858 33.88 79.4845 34.456C78.2045 35.032 76.5512 35.32 74.5245 35.32C73.3298 35.32 72.2205 35.224 71.1965 35.032C70.1725 34.8613 69.1912 34.5413 68.2525 34.072V31.448C69.2125 31.9173 70.2472 32.2907 71.3565 32.568C72.4658 32.824 73.5325 32.952 74.5565 32.952C76.6045 32.952 78.0765 32.5573 78.9725 31.768C79.8898 30.9573 80.3485 29.848 80.3485 28.44C80.3485 27.48 80.0925 26.712 79.5805 26.136C79.0898 25.5387 78.3645 25.1013 77.4045 24.824C76.4445 24.5467 75.2925 24.408 73.9485 24.408H71.7405V22.008H73.9805C75.2392 22.008 76.2845 21.8267 77.1165 21.464C77.9698 21.1013 78.6098 20.6 79.0365 19.96C79.4845 19.2987 79.7085 18.5413 79.7085 17.688C79.7085 16.5787 79.3352 15.7253 78.5885 15.128C77.8418 14.5093 76.8285 14.2 75.5485 14.2C74.7378 14.2 74.0018 14.2853 73.3405 14.456C72.6792 14.6053 72.0605 14.8293 71.4845 15.128C70.9298 15.4053 70.3645 15.736 69.7885 16.12L68.3805 14.2C68.9352 13.7733 69.5645 13.3787 70.2685 13.016C70.9938 12.6533 71.7938 12.3653 72.6685 12.152C73.5432 11.9387 74.4925 11.832 75.5165 11.832C77.9058 11.832 79.6765 12.3653 80.8285 13.432C82.0018 14.4987 82.5885 15.8533 82.5885 17.496Z" fill="black"/>
<path d="M1.25 58.138C1.25 55.338 39.101 37.4572 78.25 48.6444C81.75 49.6445 124.25 62.644 132.75 48.644" stroke="black" stroke-width="2"/>
</svg>
