<svg width="279" height="40" viewBox="0 0 279 40" fill="none" xmlns="http://www.w3.org/2000/svg">
<path d="M22.2009 18.2781C18.3508 16.7505 15.8152 20.0238 10.8133 21.9236C3.54635 24.7198 2.54157 29.462 5.30166 31.6771C7.94578 33.8893 12.2905 31.3769 15.553 33.0088C18.947 34.4057 19.9137 39.1977 23.4854 39.6455C26.9412 40.0903 29.8633 36.2309 27.0797 29.0092C25.1854 24.1937 26.0356 20.0436 22.2009 18.2781Z" fill="#F2DCC9"/>
<path d="M13.2656 11.9908C14.0409 15.8708 12.5636 19.4582 10.1384 20.0968C7.71314 20.7354 5.04979 17.9759 4.38791 14.0989C3.61266 10.2189 4.97654 6.62857 7.51515 5.9929C10.0538 5.35723 12.4904 8.11084 13.2656 11.9908Z" fill="#F2DCC9"/>
<path d="M33.6027 20.3392C30.1001 22.3964 28.3606 25.9288 29.6056 28.2252C30.8506 30.5217 34.6781 30.6184 38.0724 28.4392C41.575 26.3819 43.3145 22.8496 42.0695 20.5531C40.8245 18.2567 36.997 18.1599 33.6027 20.3392Z" fill="#F2DCC9"/>
<path d="M25.2538 8.70342C24.2015 12.7677 21.2975 15.6145 18.7218 15.0797C16.1461 14.5448 14.918 10.6548 15.9704 6.59057C17.0227 2.52632 19.9266 -0.320529 22.5023 0.214336C25.0781 0.749201 26.3061 4.63917 25.2538 8.70342Z" fill="#F2DCC9"/>
<path d="M28.1055 9.75793C25.6972 13.3452 25.5539 17.3433 27.7507 18.8116C29.9475 20.2799 33.6072 18.6076 36.0155 15.0203C38.4238 11.433 38.5671 7.43498 36.3703 5.96668C34.1735 4.49839 30.5138 6.17065 28.1055 9.75793Z" fill="#F2DCC9"/>
<path d="M70.4055 18.2781C66.5554 16.7505 64.0198 20.0238 59.0179 21.9236C51.7509 24.7198 50.7462 29.462 53.5062 31.6771C56.1504 33.8893 60.495 31.3769 63.7576 33.0088C67.1516 34.4057 68.1182 39.1977 71.69 39.6455C75.1458 40.0903 78.0679 36.2309 75.2843 29.0092C73.39 24.1937 74.2402 20.0436 70.4055 18.2781Z" fill="#F2DCC9"/>
<path d="M61.4702 11.9908C62.2455 15.8708 60.7682 19.4582 58.343 20.0968C55.9177 20.7354 53.2544 17.9759 52.5925 14.0989C51.8172 10.2189 53.1811 6.62857 55.7197 5.9929C58.2583 5.35723 60.695 8.11084 61.4702 11.9908Z" fill="#F2DCC9"/>
<path d="M81.8073 20.3392C78.3047 22.3964 76.5652 25.9288 77.8102 28.2252C79.0552 30.5217 82.8827 30.6184 86.277 28.4392C89.7795 26.3819 91.5191 22.8496 90.2741 20.5531C89.029 18.2567 85.2016 18.1599 81.8073 20.3392Z" fill="#F2DCC9"/>
<path d="M73.4584 8.70342C72.406 12.7677 69.5021 15.6145 66.9264 15.0797C64.3507 14.5448 63.1226 10.6548 64.1749 6.59057C65.2273 2.52632 68.1312 -0.320529 70.7069 0.214336C73.2827 0.749201 74.5107 4.63917 73.4584 8.70342Z" fill="#F2DCC9"/>
<path d="M76.3101 9.75793C73.9018 13.3452 73.7585 17.3433 75.9553 18.8116C78.1521 20.2799 81.8118 18.6076 84.2201 15.0203C86.6284 11.433 86.7717 7.43498 84.5749 5.96668C82.3781 4.49839 78.7184 6.17065 76.3101 9.75793Z" fill="#F2DCC9"/>
<path d="M117.405 18.2781C113.555 16.7505 111.02 20.0238 106.018 21.9236C98.7509 24.7198 97.7462 29.462 100.506 31.6771C103.15 33.8893 107.495 31.3769 110.758 33.0088C114.152 34.4057 115.118 39.1977 118.69 39.6455C122.146 40.0903 125.068 36.2309 122.284 29.0092C120.39 24.1937 121.24 20.0436 117.405 18.2781Z" fill="#F2DCC9"/>
<path d="M108.47 11.9908C109.245 15.8708 107.768 19.4582 105.343 20.0968C102.918 20.7354 100.254 17.9759 99.5925 14.0989C98.8172 10.2189 100.181 6.62857 102.72 5.9929C105.258 5.35723 107.695 8.11084 108.47 11.9908Z" fill="#F2DCC9"/>
<path d="M128.807 20.3392C125.305 22.3964 123.565 25.9288 124.81 28.2252C126.055 30.5217 129.883 30.6184 133.277 28.4392C136.78 26.3819 138.519 22.8496 137.274 20.5531C136.029 18.2567 132.202 18.1599 128.807 20.3392Z" fill="#F2DCC9"/>
<path d="M120.458 8.70342C119.406 12.7677 116.502 15.6145 113.926 15.0797C111.351 14.5448 110.123 10.6548 111.175 6.59057C112.227 2.52632 115.131 -0.320529 117.707 0.214336C120.283 0.749201 121.511 4.63917 120.458 8.70342Z" fill="#F2DCC9"/>
<path d="M123.31 9.75793C120.902 13.3452 120.758 17.3433 122.955 18.8116C125.152 20.2799 128.812 18.6076 131.22 15.0203C133.628 11.433 133.772 7.43498 131.575 5.96668C129.378 4.49839 125.718 6.17065 123.31 9.75793Z" fill="#F2DCC9"/>
<path d="M162.405 18.2781C158.555 16.7505 156.02 20.0238 151.018 21.9236C143.751 24.7198 142.746 29.462 145.506 31.6771C148.15 33.8893 152.495 31.3769 155.758 33.0088C159.152 34.4057 160.118 39.1977 163.69 39.6455C167.146 40.0903 170.068 36.2309 167.284 29.0092C165.39 24.1937 166.24 20.0436 162.405 18.2781Z" fill="#F2DCC9"/>
<path d="M153.47 11.9908C154.245 15.8708 152.768 19.4582 150.343 20.0968C147.918 20.7354 145.254 17.9759 144.592 14.0989C143.817 10.2189 145.181 6.62857 147.72 5.9929C150.258 5.35723 152.695 8.11084 153.47 11.9908Z" fill="#F2DCC9"/>
<path d="M173.807 20.3392C170.305 22.3964 168.565 25.9288 169.81 28.2252C171.055 30.5217 174.883 30.6184 178.277 28.4392C181.78 26.3819 183.519 22.8496 182.274 20.5531C181.029 18.2567 177.202 18.1599 173.807 20.3392Z" fill="#F2DCC9"/>
<path d="M165.458 8.70342C164.406 12.7677 161.502 15.6145 158.926 15.0797C156.351 14.5448 155.123 10.6548 156.175 6.59057C157.227 2.52632 160.131 -0.320529 162.707 0.214336C165.283 0.749201 166.511 4.63917 165.458 8.70342Z" fill="#F2DCC9"/>
<path d="M168.31 9.75793C165.902 13.3452 165.758 17.3433 167.955 18.8116C170.152 20.2799 173.812 18.6076 176.22 15.0203C178.628 11.433 178.772 7.43498 176.575 5.96668C174.378 4.49839 170.718 6.17065 168.31 9.75793Z" fill="#F2DCC9"/>
<path d="M207.405 18.2781C203.555 16.7505 201.02 20.0238 196.018 21.9236C188.751 24.7198 187.746 29.462 190.506 31.6771C193.15 33.8893 197.495 31.3769 200.758 33.0088C204.152 34.4057 205.118 39.1977 208.69 39.6455C212.146 40.0903 215.068 36.2309 212.284 29.0092C210.39 24.1937 211.24 20.0436 207.405 18.2781Z" fill="#F2DCC9"/>
<path d="M198.47 11.9908C199.245 15.8708 197.768 19.4582 195.343 20.0968C192.918 20.7354 190.254 17.9759 189.592 14.0989C188.817 10.2189 190.181 6.62857 192.72 5.9929C195.258 5.35723 197.695 8.11084 198.47 11.9908Z" fill="#F2DCC9"/>
<path d="M218.807 20.3392C215.305 22.3964 213.565 25.9288 214.81 28.2252C216.055 30.5217 219.883 30.6184 223.277 28.4392C226.78 26.3819 228.519 22.8496 227.274 20.5531C226.029 18.2567 222.202 18.1599 218.807 20.3392Z" fill="#F2DCC9"/>
<path d="M210.458 8.70342C209.406 12.7677 206.502 15.6145 203.926 15.0797C201.351 14.5448 200.123 10.6548 201.175 6.59057C202.227 2.52632 205.131 -0.320529 207.707 0.214336C210.283 0.749201 211.511 4.63917 210.458 8.70342Z" fill="#F2DCC9"/>
<path d="M213.31 9.75793C210.902 13.3452 210.758 17.3433 212.955 18.8116C215.152 20.2799 218.812 18.6076 221.22 15.0203C223.628 11.433 223.772 7.43498 221.575 5.96668C219.378 4.49839 215.718 6.17065 213.31 9.75793Z" fill="#F2DCC9"/>
<path d="M255.405 18.2781C251.555 16.7505 249.02 20.0238 244.018 21.9236C236.751 24.7198 235.746 29.462 238.506 31.6771C241.15 33.8893 245.495 31.3769 248.758 33.0088C252.152 34.4057 253.118 39.1977 256.69 39.6455C260.146 40.0903 263.068 36.2309 260.284 29.0092C258.39 24.1937 259.24 20.0436 255.405 18.2781Z" fill="#F2DCC9"/>
<path d="M246.47 11.9908C247.245 15.8708 245.768 19.4582 243.343 20.0968C240.918 20.7354 238.254 17.9759 237.592 14.0989C236.817 10.2189 238.181 6.62857 240.72 5.9929C243.258 5.35723 245.695 8.11084 246.47 11.9908Z" fill="#F2DCC9"/>
<path d="M266.807 20.3392C263.305 22.3964 261.565 25.9288 262.81 28.2252C264.055 30.5217 267.883 30.6184 271.277 28.4392C274.78 26.3819 276.519 22.8496 275.274 20.5531C274.029 18.2567 270.202 18.1599 266.807 20.3392Z" fill="#F2DCC9"/>
<path d="M258.458 8.70342C257.406 12.7677 254.502 15.6145 251.926 15.0797C249.351 14.5448 248.123 10.6548 249.175 6.59057C250.227 2.52632 253.131 -0.320529 255.707 0.214336C258.283 0.749201 259.511 4.63917 258.458 8.70342Z" fill="#F2DCC9"/>
<path d="M261.31 9.75793C258.902 13.3452 258.758 17.3433 260.955 18.8116C263.152 20.2799 266.812 18.6076 269.22 15.0203C271.628 11.433 271.772 7.43498 269.575 5.96668C267.378 4.49839 263.718 6.17065 261.31 9.75793Z" fill="#F2DCC9"/>
</svg>
